<?xml version="1.0" encoding="iso-8859-1"?>
<!-- Generator: Adobe Illustrator 19.0.0, SVG Export Plug-In . SVG Version: 6.00 Build 0)  -->
<svg version="1.1" id="Layer_1" xmlns="http://www.w3.org/2000/svg" xmlns:xlink="http://www.w3.org/1999/xlink" x="0px" y="0px"
	 viewBox="0 0 511.999 511.999" style="enable-background:new 0 0 511.999 511.999;" xml:space="preserve">
<rect x="94.838" y="275.342" style="fill:#CFF09E;" width="322.343" height="145.955"/>
<g>
	<path style="fill:#507C5C;" d="M162.624,391.176c-23.627,0-42.85-19.223-42.85-42.85s19.223-42.85,42.85-42.85
		s42.85,19.222,42.85,42.85c0,7.977-6.467,14.444-14.444,14.444s-14.444-6.467-14.444-14.444c0-7.699-6.263-13.963-13.963-13.963
		c-7.7,0-13.963,6.263-13.963,13.963s6.263,13.963,13.963,13.963c7.977,0,14.444,6.466,14.444,14.444
		S170.602,391.176,162.624,391.176z"/>
	<path style="fill:#507C5C;" d="M349.374,391.176c-23.627,0-42.85-19.223-42.85-42.85s19.222-42.85,42.85-42.85
		c23.629,0,42.85,19.222,42.85,42.85c0,7.977-6.466,14.444-14.444,14.444s-14.444-6.467-14.444-14.444
		c0-7.699-6.263-13.963-13.963-13.963c-7.699,0-13.963,6.263-13.963,13.963s6.263,13.963,13.963,13.963
		c7.977,0,14.444,6.466,14.444,14.444S357.352,391.176,349.374,391.176z"/>
</g>
<g>
	<rect x="111.694" y="422.005" style="fill:#CFF09E;" width="71.992" height="75.541"/>
	<rect x="328.322" y="422.005" style="fill:#CFF09E;" width="71.992" height="75.541"/>
	<path style="fill:#CFF09E;" d="M304.013,77.861h-96.027V62.457c0-26.517,21.497-48.014,48.014-48.014l0,0
		c26.517,0,48.014,21.497,48.014,48.014v15.404H304.013z"/>
</g>
<g>
	<path style="fill:#507C5C;" d="M417.168,218.279c7.977,0,14.444-6.467,14.444-14.444v-68.156c0-39.845-32.416-72.261-72.261-72.261
		h-40.893v-0.961C318.457,28.018,290.439,0,255.999,0s-62.458,28.018-62.458,62.457v0.961h-40.893
		c-39.845,0-72.261,32.416-72.261,72.261V275.35v145.952c0,7.977,6.466,14.444,14.444,14.444h2.414v61.809
		c0,7.977,6.466,14.444,14.444,14.444h71.992c7.977,0,14.444-6.466,14.444-14.444v-61.809h115.75v61.809
		c0,7.977,6.467,14.444,14.444,14.444h71.992c7.977,0,14.444-6.466,14.444-14.444v-61.809h2.414c7.977,0,14.444-6.466,14.444-14.444
		V275.35c0-7.977-6.466-14.444-14.444-14.444H109.275V135.678c0-23.916,19.457-43.373,43.373-43.373h55.337h96.027h55.337
		c23.916,0,43.373,19.457,43.373,43.373v68.156C402.724,211.813,409.19,218.279,417.168,218.279z M169.237,483.112h-43.105v-46.658
		h43.105V483.112z M385.866,483.112h-43.105v-46.658h43.105V483.112z M402.724,289.793v117.064H109.275V289.793H402.724
		L402.724,289.793z M222.43,63.417v-0.961c0-18.51,15.059-33.569,33.57-33.569s33.57,15.059,33.57,33.569v0.961H222.43z"/>
	<path style="fill:#507C5C;" d="M255.999,381.065c-7.977,0-14.444-6.466-14.444-14.444v-36.591c0-7.977,6.467-14.444,14.444-14.444
		c7.977,0,14.444,6.466,14.444,14.444v36.591C270.443,374.599,263.977,381.065,255.999,381.065z"/>
	<path style="fill:#507C5C;" d="M274.295,362.769h-36.591c-7.977,0-14.444-6.467-14.444-14.444c0-7.977,6.467-14.444,14.444-14.444
		h36.591c7.977,0,14.444,6.466,14.444,14.444C288.739,356.303,282.273,362.769,274.295,362.769z"/>
</g>
<g>
</g>
<g>
</g>
<g>
</g>
<g>
</g>
<g>
</g>
<g>
</g>
<g>
</g>
<g>
</g>
<g>
</g>
<g>
</g>
<g>
</g>
<g>
</g>
<g>
</g>
<g>
</g>
<g>
</g>
</svg>
