<?xml version="1.0" encoding="iso-8859-1"?>
<!-- Generator: Adobe Illustrator 19.0.0, SVG Export Plug-In . SVG Version: 6.00 Build 0)  -->
<svg xmlns="http://www.w3.org/2000/svg" xmlns:xlink="http://www.w3.org/1999/xlink" version="1.1" id="Layer_1" x="0px" y="0px" viewBox="0 0 435.351 435.351" style="enable-background:new 0 0 435.351 435.351;" xml:space="preserve" width="512" height="512">
<g>
	<g>
		<path style="fill:#A77F73;" d="M36.673,363.251L324.828,25.415c21.077-23.148,56.436-23.973,78.572-1.837l8.367,8.368    c22.137,22.137,21.31,57.495-1.836,78.574L72.096,398.674L36.673,363.251z"/>
		<polygon style="fill:#E8E8E8;" points="115.575,270.746 36.673,363.251 72.096,398.674 164.6,319.774   "/>
		<path style="fill:#A77F73;" d="M63.515,423.684c5.558,5.556,14.568,5.557,20.126-0.001c5.558-5.557,5.557-14.567,0-20.124    l-51.854-51.854c-5.556-5.556-14.565-5.556-20.124,0.001c-5.557,5.558-5.557,14.567,0,20.124L63.515,423.684z"/>
	</g>
	<g>
		<path style="fill:#C3C6C8;" d="M99.514,382.786c-1.919,0-3.839-0.733-5.304-2.197l-39.454-39.454    c-2.929-2.929-2.929-7.678,0-10.607c2.93-2.929,7.678-2.929,10.608,0l39.454,39.454c2.929,2.929,2.929,7.678,0,10.607    C103.353,382.054,101.433,382.786,99.514,382.786z"/>
		<path style="fill:#C3C6C8;" d="M135.936,351.723c-1.919,0-3.839-0.732-5.303-2.197l-44.813-44.81    c-2.93-2.929-2.93-7.677-0.001-10.607c2.93-2.929,7.679-2.93,10.606,0l44.813,44.811c2.93,2.929,2.93,7.677,0.001,10.606    C139.775,350.991,137.855,351.723,135.936,351.723z"/>
		<path style="fill:#7C5C5B;" d="M224.587,276.283c-0.153,0-0.308-0.005-0.463-0.014c-4.135-0.253-7.282-3.809-7.03-7.943    c1.883-30.877,12.199-73.27,50.651-99.89c19.584-13.559,41.398-13.742,64.492-13.936c5.694-0.047,11.583-0.097,17.434-0.362    c4.149-0.19,7.645,3.015,7.832,7.152c0.188,4.138-3.015,7.645-7.152,7.832c-6.127,0.278-12.156,0.329-17.987,0.377    c-21.62,0.181-40.292,0.338-56.08,11.269c-33.501,23.192-42.536,60.912-44.217,88.47    C231.824,273.219,228.521,276.283,224.587,276.283z"/>
		<path style="fill:#7C5C5B;" d="M256.953,112.487c-3.393,0-6.467-2.316-7.289-5.76c-0.962-4.029,1.524-8.075,5.554-9.036    c2.981-0.712,5.896-1.329,8.715-1.925c14.512-3.071,27.044-5.723,44.121-19.775C331,57.109,346.443,33.985,355.265,5.297    c1.219-3.959,5.412-6.181,9.374-4.964c3.959,1.217,6.182,5.414,4.964,9.373c-9.715,31.587-26.73,57.058-52.019,77.867    c-19.911,16.385-35.486,19.68-50.548,22.867c-2.725,0.577-5.543,1.173-8.337,1.84C258.115,112.42,257.529,112.487,256.953,112.487    z"/>
		<path d="M417.071,26.643l-8.367-8.368C396.533,6.105,380.518-0.378,363.539,0.018c-16.952,0.396-32.67,7.623-44.257,20.348    c-0.054,0.06-0.107,0.121-0.16,0.182L39.301,348.613l-2.211-2.211c-4.104-4.103-9.56-6.363-15.364-6.363    s-11.261,2.26-15.367,6.365c-8.472,8.473-8.472,22.258,0,30.73l51.854,51.855c4.104,4.103,9.561,6.363,15.366,6.363    s11.262-2.26,15.365-6.364c4.104-4.104,6.365-9.561,6.365-15.366c0-5.805-2.261-11.261-6.364-15.365l-2.21-2.21l328.063-279.819    c0.062-0.052,0.123-0.106,0.183-0.161c12.725-11.588,19.951-27.307,20.348-44.26C435.724,54.853,429.241,38.814,417.071,26.643z     M78.337,418.38c-1.271,1.271-2.961,1.971-4.759,1.971c-1.799,0-3.489-0.7-4.76-1.97l-51.852-51.855    c-2.624-2.624-2.624-6.894-0.001-9.517c1.271-1.271,2.963-1.972,4.761-1.972c1.798,0,3.487,0.7,4.757,1.97l51.854,51.854    c1.271,1.271,1.972,2.962,1.972,4.759C80.309,415.419,79.609,417.109,78.337,418.38z M76.095,385.406l-26.154-26.154l66.07-77.462    l37.545,37.546L76.095,385.406z M404.967,104.897L165.004,309.571l-39.228-39.23L330.452,30.379    c8.792-9.61,20.662-15.066,33.438-15.365c12.84-0.308,24.964,4.626,34.206,13.868l8.367,8.368    c9.243,9.243,14.169,21.391,13.869,34.206C420.034,84.232,414.578,96.104,404.967,104.897z"/>
	</g>
</g>















</svg>
