<?xml version="1.0" encoding="iso-8859-1"?>
<!-- Generator: Adobe Illustrator 19.0.0, SVG Export Plug-In . SVG Version: 6.00 Build 0)  -->
<svg version="1.1" id="Layer_1" xmlns="http://www.w3.org/2000/svg" xmlns:xlink="http://www.w3.org/1999/xlink" x="0px" y="0px"
	 viewBox="0 0 512 512" style="enable-background:new 0 0 512 512;" xml:space="preserve">
<g>
	<path style="fill:#CFF09E;" d="M102.03,366.587H34.488v-64.111h67.542c17.703,0,32.055,14.352,32.055,32.055l0,0
		C134.085,352.236,119.733,366.587,102.03,366.587z"/>
	<path style="fill:#CFF09E;" d="M409.97,302.477h67.542v64.111H409.97c-17.703,0-32.055-14.352-32.055-32.055l0,0
		C377.913,316.828,392.265,302.477,409.97,302.477z"/>
	<rect x="174.149" y="347.639" style="fill:#CFF09E;" width="163.703" height="75.752"/>
	<rect x="57.618" y="423.407" style="fill:#CFF09E;" width="78.476" height="70.693"/>
	<rect x="375.907" y="423.407" style="fill:#CFF09E;" width="78.477" height="70.693"/>
	<path style="fill:#CFF09E;" d="M341.344,89.799H170.656V42.305c0-13.478,10.927-24.404,24.404-24.404h121.877
		c13.478,0,24.404,10.927,24.404,24.404v47.495H341.344z"/>
</g>
<path style="fill:#507C5C;" d="M496.339,243.07h-47.432c-0.02,0-0.041-0.003-0.061-0.003H82.802l27.012-120.202
	c2.368-9.129,13.009-17.405,22.42-17.405h38.421h170.688h38.422c9.462,0,20.165,8.364,22.451,17.546l16.803,67.533
	c2.089,8.394,10.59,13.503,18.978,11.417c8.394-2.088,13.506-10.585,11.417-18.979l-16.804-67.537
	c-5.769-23.159-28.98-41.301-52.844-41.301h-22.76V42.305c0-22.093-17.974-40.065-40.065-40.065H195.061
	c-22.091,0-40.065,17.974-40.065,40.065v31.834h-22.76c-23.861,0-47.076,18.14-52.849,41.298c-0.03,0.117-0.056,0.236-0.085,0.354
	L50.697,243.069H15.661C7.013,243.069,0,250.08,0,258.73s7.013,15.661,15.661,15.661h19.153l-13.221,19.203
	c-0.003,0.005-0.006,0.009-0.009,0.014c-0.132,0.191-0.251,0.393-0.374,0.59c-0.111,0.179-0.224,0.356-0.327,0.537
	c-0.127,0.222-0.244,0.448-0.36,0.677c-0.083,0.164-0.163,0.33-0.24,0.498c-0.113,0.243-0.224,0.486-0.324,0.736
	c-0.06,0.149-0.11,0.301-0.164,0.451c-0.168,0.459-0.315,0.927-0.44,1.406c-0.049,0.183-0.1,0.365-0.141,0.548
	c-0.053,0.24-0.096,0.481-0.138,0.724c-0.039,0.227-0.074,0.453-0.103,0.681c-0.028,0.222-0.058,0.445-0.077,0.67
	c-0.028,0.326-0.042,0.655-0.05,0.983c-0.003,0.122-0.019,0.241-0.019,0.365v64.111c0,0.031,0.005,0.06,0.005,0.091v27.895
	c0,16.793,9.356,31.439,23.126,39.01V494.1c0,8.65,7.013,15.661,15.661,15.661h78.48c8.648,0,15.661-7.011,15.661-15.661v-55.039
	h22.392h163.698h22.392V494.1c0,8.65,7.013,15.661,15.661,15.661h78.48c8.648,0,15.661-7.011,15.661-15.661v-55.142
	c7.824-0.871,13.912-7.5,13.912-15.557c0-8.649-7.013-15.661-15.661-15.661h-13.912h-78.48h-22.392v-60.099
	c0-8.649-7.013-15.661-15.661-15.661H174.15c-8.648,0-15.661,7.011-15.661,15.661v60.099h-22.392H63.321
	c-7.262,0-13.168-5.906-13.168-13.166v-12.325h51.877c26.31,0,47.715-21.405,47.715-47.715c0-26.31-21.405-47.717-47.715-47.717
	H64.288l8.556-12.428h367.54l8.142,12.428h-38.557c-26.31,0-47.715,21.405-47.715,47.715s21.405,47.715,47.715,47.715h67.544
	c8.648,0,15.661-7.011,15.661-15.661v-64.111c0-0.227-0.025-0.449-0.034-0.675c-0.011-0.252-0.016-0.503-0.038-0.755
	c-0.025-0.283-0.07-0.561-0.111-0.841c-0.033-0.227-0.061-0.453-0.103-0.68c-0.058-0.307-0.135-0.606-0.211-0.907
	c-0.049-0.191-0.091-0.384-0.147-0.573c-0.099-0.334-0.215-0.656-0.334-0.98c-0.056-0.153-0.106-0.309-0.169-0.46
	c-0.146-0.36-0.31-0.708-0.481-1.054c-0.056-0.114-0.105-0.23-0.164-0.343c-0.204-0.387-0.426-0.76-0.659-1.126
	c-0.039-0.063-0.07-0.128-0.111-0.191l-0.059-0.089c-0.028-0.042-0.055-0.086-0.083-0.128l-12.635-19.285h18.508
	c8.648,0,15.661-7.011,15.661-15.661S504.987,243.07,496.339,243.07z M186.317,42.305c0-4.822,3.923-8.743,8.743-8.743h121.879
	c4.82,0,8.743,3.923,8.743,8.743v31.834H186.317L186.317,42.305L186.317,42.305z M438.721,439.061v39.378h-47.158v-39.378H438.721z
	 M189.811,363.302h132.376v44.438H189.811V363.302z M120.437,439.061v39.378H73.279v-39.378H120.437z M118.424,334.531
	c0,9.039-7.354,16.394-16.394,16.394H50.152v-32.789h51.878C111.07,318.138,118.424,325.492,118.424,334.531z M461.851,350.927
	h-51.883c-9.038,0-16.394-7.354-16.394-16.394c0-9.039,7.354-16.394,16.394-16.394h51.883V350.927z"/>
<g>
</g>
<g>
</g>
<g>
</g>
<g>
</g>
<g>
</g>
<g>
</g>
<g>
</g>
<g>
</g>
<g>
</g>
<g>
</g>
<g>
</g>
<g>
</g>
<g>
</g>
<g>
</g>
<g>
</g>
</svg>
