<?xml version="1.0" encoding="iso-8859-1"?>
<!-- Generator: Adobe Illustrator 19.0.0, SVG Export Plug-In . SVG Version: 6.00 Build 0)  -->
<svg version="1.1" id="Layer_1" xmlns="http://www.w3.org/2000/svg" xmlns:xlink="http://www.w3.org/1999/xlink" x="0px" y="0px"
	 viewBox="0 0 512.001 512.001" style="enable-background:new 0 0 512.001 512.001;" xml:space="preserve">
<g>
	<path style="fill:#CFF09E;" d="M101.375,338.823H33.544v-64.384h67.831c17.778,0,32.192,14.412,32.192,32.192l0,0
		C133.566,324.41,119.154,338.823,101.375,338.823z"/>
	<path style="fill:#CFF09E;" d="M410.626,274.439h67.831v64.384h-67.831c-17.778,0-32.192-14.412-32.192-32.192l0,0
		C378.434,288.851,392.846,274.439,410.626,274.439z"/>
	<rect x="173.803" y="319.796" style="fill:#CFF09E;" width="164.392" height="76.083"/>
	<rect x="56.773" y="395.875" style="fill:#CFF09E;" width="78.814" height="71"/>
	<rect x="376.41" y="395.875" style="fill:#CFF09E;" width="78.814" height="71"/>
</g>
<path style="fill:#507C5C;" d="M497.364,215.872h-47.64c-0.019,0-0.038-0.003-0.057-0.003H80.312l27.852-137.927
	c2.547-9.553,13.685-18.185,23.542-18.185h248.588c9.857,0,20.992,8.632,23.538,18.184l16.801,83.187
	c1.6,7.925,9.323,13.044,17.244,11.45c7.924-1.6,13.05-9.32,11.45-17.244l-16.875-83.559c-0.044-0.214-0.092-0.427-0.145-0.641
	c-5.677-22.794-28.524-40.649-52.012-40.649H131.707c-23.485,0-46.333,17.855-52.015,40.647c-0.053,0.214-0.101,0.427-0.145,0.643
	L50.448,215.873H14.636C6.553,215.873,0,222.426,0,230.509c0,8.083,6.553,14.636,14.636,14.636h21.312l-14.455,20.995
	c-0.004,0.006-0.007,0.012-0.012,0.018c-0.117,0.171-0.224,0.35-0.334,0.527c-0.11,0.176-0.22,0.351-0.322,0.53
	c-0.114,0.202-0.222,0.407-0.328,0.615c-0.082,0.161-0.16,0.323-0.236,0.489c-0.102,0.221-0.203,0.442-0.294,0.669
	c-0.061,0.152-0.113,0.307-0.168,0.461c-0.149,0.41-0.28,0.825-0.391,1.251c-0.048,0.181-0.1,0.363-0.141,0.546
	c-0.05,0.22-0.088,0.443-0.127,0.667c-0.038,0.214-0.07,0.429-0.098,0.644c-0.026,0.206-0.053,0.414-0.072,0.623
	c-0.026,0.306-0.04,0.612-0.047,0.919c-0.003,0.114-0.018,0.225-0.018,0.341v64.384c0,0.029,0.004,0.056,0.004,0.085v28.021
	c0,16.682,9.424,31.197,23.224,38.522v61.429c0,8.083,6.553,14.636,14.636,14.636h78.814c8.083,0,14.636-6.553,14.636-14.636
	v-56.365h211.554v56.365c0,8.084,6.553,14.636,14.636,14.636h78.814c8.084,0,14.636-6.553,14.636-14.636v-56.4
	c7.773-0.35,13.972-6.743,13.972-14.602c0-8.084-6.553-14.636-14.636-14.636H352.833v-61.447c0-8.083-6.553-14.636-14.636-14.636
	H173.802c-8.083,0-14.636,6.553-14.636,14.636v61.447H62.5c-7.893,0-14.316-6.421-14.316-14.314v-13.47h53.19
	c25.821,0,46.828-21.007,46.828-46.828s-21.007-46.828-46.828-46.828H61.394l10.094-14.664h370.269l9.607,14.664h-40.739
	c-25.821,0-46.828,21.007-46.828,46.828s21.007,46.828,46.828,46.828h67.831c8.083,0,14.636-6.553,14.636-14.636v-64.384
	c0-0.22-0.023-0.435-0.034-0.651c-0.01-0.227-0.013-0.452-0.034-0.679c-0.025-0.274-0.067-0.542-0.107-0.812
	c-0.029-0.202-0.054-0.405-0.092-0.606c-0.057-0.297-0.13-0.587-0.205-0.878c-0.042-0.168-0.08-0.337-0.13-0.505
	c-0.095-0.322-0.208-0.635-0.323-0.948c-0.05-0.133-0.092-0.266-0.145-0.398c-0.142-0.35-0.301-0.689-0.468-1.026
	c-0.045-0.092-0.086-0.187-0.135-0.278c-0.198-0.378-0.416-0.743-0.644-1.101c-0.029-0.045-0.051-0.094-0.081-0.139l-0.042-0.064
	c-0.032-0.05-0.063-0.1-0.097-0.148l-13.799-21.063h20.609c8.084,0,14.636-6.553,14.636-14.636
	C512.001,222.423,505.447,215.872,497.364,215.872z M440.591,410.515v41.729h-49.542v-41.729H440.591z M188.438,334.432h135.124
	v46.81H188.438V334.432z M120.951,410.515v41.729H71.409v-41.729H120.951z M118.93,306.631c0,9.68-7.876,17.556-17.556,17.556
	H48.185v-35.112h53.19C111.054,289.075,118.93,296.951,118.93,306.631z M463.82,324.187h-53.195c-9.68,0-17.556-7.876-17.556-17.556
	c0-9.68,7.876-17.556,17.556-17.556h53.195V324.187z"/>
<g>
</g>
<g>
</g>
<g>
</g>
<g>
</g>
<g>
</g>
<g>
</g>
<g>
</g>
<g>
</g>
<g>
</g>
<g>
</g>
<g>
</g>
<g>
</g>
<g>
</g>
<g>
</g>
<g>
</g>
</svg>
