<?xml version="1.0" encoding="iso-8859-1"?>
<!-- Generator: Adobe Illustrator 19.0.0, SVG Export Plug-In . SVG Version: 6.00 Build 0)  -->
<svg version="1.1" id="Layer_1" xmlns="http://www.w3.org/2000/svg" xmlns:xlink="http://www.w3.org/1999/xlink" x="0px" y="0px"
	 viewBox="0 0 512 512" style="enable-background:new 0 0 512 512;" xml:space="preserve">
<path style="fill:#5AB8FF;" d="M501.675,311.617c0-62.804-46.1-114.845-106.307-124.133
	c-16.384-64.772-75.051-112.711-144.913-112.711c-70.714,0-129.958,49.114-145.493,115.088
	c-54.393,13.796-94.638,63.076-94.638,121.757c0,69.37,56.24,125.611,125.61,125.611h241.689v-0.021
	C446.275,436.373,501.675,380.465,501.675,311.617z"/>
<path d="M377.623,447.552H135.935C60.98,447.552,0,386.572,0,311.617c0-60.207,39.354-112.843,96.447-130.104
	c8.906-32.083,27.957-61.015,54.111-81.991c28.201-22.617,63.679-35.074,99.898-35.074c71.02,0,133.055,46.556,153.142,114.031
	c29.138,6.008,55.678,21.554,75.311,44.248C500.247,247.394,512,278.963,512,311.617c0,36.014-13.945,69.95-39.265,95.56
	c-25.139,25.425-58.609,39.737-94.31,40.345C378.16,447.542,377.893,447.552,377.623,447.552z M250.456,85.098
	c-64.894,0-120.59,44.053-135.443,107.13c-0.883,3.749-3.779,6.695-7.511,7.641c-51.137,12.969-86.852,58.922-86.852,111.748
	c0,63.568,51.717,115.286,115.285,115.286h241.04c0.173-0.01,0.347-0.018,0.522-0.019c62.779-0.764,113.853-52.472,113.853-115.268
	c0-56.371-41.94-105.35-97.555-113.928c-4.097-0.632-7.418-3.654-8.435-7.672C369.733,128.242,314.259,85.098,250.456,85.098z"/>
<path d="M255.683,283.922c-4.38,0-8.444-2.808-9.838-7.206c-15.253-48.079-59.423-80.383-109.91-80.383
	c-5.702,0-10.325-4.622-10.325-10.325c0-5.702,4.622-10.325,10.325-10.325c29.447,0,57.471,9.263,81.038,26.789
	c23.101,17.178,39.891,40.692,48.554,68c1.724,5.435-1.284,11.24-6.719,12.964C257.77,283.765,256.718,283.922,255.683,283.922z"/>
<path d="M261.544,321.942c-5.702,0-10.325-4.622-10.325-10.325c0-1.407-0.026-2.837-0.077-4.249
	c-0.205-5.698,4.247-10.485,9.945-10.691c5.714-0.205,10.485,4.247,10.691,9.945c0.06,1.659,0.09,3.34,0.09,4.995
	C271.869,317.319,267.247,321.942,261.544,321.942z"/>
<g>
</g>
<g>
</g>
<g>
</g>
<g>
</g>
<g>
</g>
<g>
</g>
<g>
</g>
<g>
</g>
<g>
</g>
<g>
</g>
<g>
</g>
<g>
</g>
<g>
</g>
<g>
</g>
<g>
</g>
</svg>
