<?xml version="1.0" encoding="iso-8859-1"?>
<!-- Generator: Adobe Illustrator 19.0.0, SVG Export Plug-In . SVG Version: 6.00 Build 0)  -->
<svg version="1.1" id="Layer_1" xmlns="http://www.w3.org/2000/svg" xmlns:xlink="http://www.w3.org/1999/xlink" x="0px" y="0px"
	 viewBox="0 0 349 349" style="enable-background:new 0 0 349 349;" xml:space="preserve">
<g>
	<path style="fill:#80D0E1;" d="M281.722,143.413h-20.931c-4.325-50.997-47.082-91.041-99.198-91.041
		c-52.19,0-94.995,40.157-99.218,91.258C31.657,146.126,7.5,171.829,7.5,203.191c0,33.014,26.763,59.778,59.778,59.778
		c13.603,0,26.138-4.551,36.183-12.204c6.273,26.3,29.911,45.863,58.132,45.863c23.648,0,44.085-13.735,53.779-33.66h66.35
		c33.015,0,59.778-26.763,59.778-59.778S314.737,143.413,281.722,143.413z"/>
	<g>
		<path style="fill:#414042;" d="M281.723,135.913h-14.264c-3.604-23.99-15.256-46.032-33.257-62.654
			c-19.823-18.306-45.609-28.387-72.609-28.387c-27.04,0-52.856,10.107-72.691,28.461c-18.218,16.857-29.911,39.262-33.326,63.614
			c-14.402,2.527-27.598,9.687-37.658,20.54C6.363,169.952,0,186.185,0,203.19c0,37.098,30.181,67.278,67.277,67.278
			c11.354,0,22.264-2.779,32.045-8.107c10.179,25.029,34.502,41.766,62.271,41.766c24.363,0,46.286-12.779,58.289-33.659h61.841
			c37.097,0,67.277-30.181,67.277-67.278C349,166.094,318.819,135.913,281.723,135.913z M281.723,255.469h-66.35
			c-2.87,0-5.488,1.638-6.744,4.219c-8.836,18.159-26.859,29.44-47.036,29.44c-24.3,0-45.204-16.491-50.837-40.104
			c-0.588-2.468-2.385-4.471-4.773-5.323c-2.384-0.851-5.043-0.444-7.066,1.098c-9.164,6.98-20.104,10.67-31.639,10.67
			C38.451,255.469,15,232.017,15,203.19c0-27.02,21.077-49.898,47.983-52.085c3.659-0.298,6.564-3.199,6.867-6.858
			c1.895-22.936,12.279-44.21,29.239-59.904c17.055-15.78,39.252-24.471,62.503-24.471c23.217,0,45.39,8.668,62.434,24.406
			c16.947,15.65,27.351,36.877,29.291,59.769c0.33,3.883,3.577,6.866,7.474,6.866h20.932c28.826,0,52.277,23.451,52.277,52.277
			C334,232.017,310.549,255.469,281.723,255.469z"/>
		<path style="fill:#414042;" d="M67.277,225.469C54.993,225.469,45,215.475,45,203.19c0-4.143-3.357-7.5-7.5-7.5
			s-7.5,3.357-7.5,7.5c0,20.556,16.723,37.278,37.277,37.278c4.143,0,7.5-3.357,7.5-7.5
			C74.777,228.827,71.42,225.469,67.277,225.469z"/>
		<path style="fill:#414042;" d="M213.85,95.299c-14.265-13.173-32.823-20.427-52.257-20.427c-4.143,0-7.5,3.357-7.5,7.5
			s3.357,7.5,7.5,7.5c15.65,0,30.595,5.841,42.081,16.446c11.43,10.556,18.444,24.854,19.751,40.264
			c0.332,3.912,3.609,6.866,7.465,6.866c0.213,0,0.428-0.009,0.643-0.026c4.128-0.351,7.189-3.98,6.84-8.107
			C236.747,126.164,228.038,108.401,213.85,95.299z"/>
	</g>
</g>
<g>
</g>
<g>
</g>
<g>
</g>
<g>
</g>
<g>
</g>
<g>
</g>
<g>
</g>
<g>
</g>
<g>
</g>
<g>
</g>
<g>
</g>
<g>
</g>
<g>
</g>
<g>
</g>
<g>
</g>
</svg>
