<?xml version="1.0" encoding="iso-8859-1"?>
<!-- Generator: Adobe Illustrator 19.0.0, SVG Export Plug-In . SVG Version: 6.00 Build 0)  -->
<svg version="1.1" id="Layer_1" xmlns="http://www.w3.org/2000/svg" xmlns:xlink="http://www.w3.org/1999/xlink" x="0px" y="0px"
	 viewBox="0 0 354 354" style="enable-background:new 0 0 354 354;" xml:space="preserve">
<g>
	<path style="fill:#95E1D3;" d="M294.776,164.363C288.505,109.288,241.753,66.5,185,66.5c-47.116,0-87.337,29.491-103.229,71.018
		C40.687,137.912,7.5,171.323,7.5,212.5c0,41.421,33.579,75,75,75h202c34.242,0,62-27.758,62-62
		C346.5,194.761,324.125,169.262,294.776,164.363z"/>
	<g>
		<path style="fill:#414042;" d="M301.486,158.103C292.358,101.232,243.214,59,185,59c-24.359,0-47.745,7.363-67.627,21.294
			c-18.057,12.652-32.06,29.84-40.727,49.925C33.85,133.204,0,168.821,0,212.5C0,257.991,37.009,295,82.5,295h202
			c38.322,0,69.5-31.178,69.5-69.5C354,193.278,332.229,165.771,301.486,158.103z M284.5,280h-202C45.28,280,15,249.72,15,212.5
			c0-61.427,75.556-90.575,117.001-45.89c1.478,1.594,3.486,2.4,5.501,2.4c6.478,0,9.968-7.78,5.497-12.6
			c-13.171-14.2-30.988-23.249-50.017-25.707c7.637-15.188,18.894-28.241,32.998-38.123c63.284-44.342,152.47-5.301,161.344,72.633
			c0.379,3.326,2.916,5.998,6.218,6.549C319.882,176.157,339,198.758,339,225.5C339,255.551,314.552,280,284.5,280z"/>
		<path style="fill:#414042;" d="M245,255h-66c-4.142,0-7.5,3.358-7.5,7.5s3.358,7.5,7.5,7.5h66c4.143,0,7.5-3.358,7.5-7.5
			S249.143,255,245,255z"/>
	</g>
</g>
<g>
</g>
<g>
</g>
<g>
</g>
<g>
</g>
<g>
</g>
<g>
</g>
<g>
</g>
<g>
</g>
<g>
</g>
<g>
</g>
<g>
</g>
<g>
</g>
<g>
</g>
<g>
</g>
<g>
</g>
</svg>
