<?xml version="1.0" encoding="UTF-8" standalone="no"?>
<!-- Created with Inkscape (http://www.inkscape.org/) -->
<svg xmlns:inkscape="http://www.inkscape.org/namespaces/inkscape" xmlns:rdf="http://www.w3.org/1999/02/22-rdf-syntax-ns#" xmlns="http://www.w3.org/2000/svg" xmlns:xlink="http://www.w3.org/1999/xlink" xmlns:ns1="http://sozi.baierouge.fr" xmlns:cc="http://creativecommons.org/ns#" xmlns:sodipodi="http://sodipodi.sourceforge.net/DTD/sodipodi-0.dtd" xmlns:dc="http://purl.org/dc/elements/1.1/" id="svg2" xml:space="preserve" viewBox="0 0 163.55 63.411" version="1.1" inkscape:version="0.91 r13725">
  <defs id="defs6">
    <clipPath id="clipPath18">
      <path id="path20" d="m65.441 32.038c18.051 0 33.465-1.559 46.239-4.68 12.773-3.117 19.16-6.891 19.16-11.316 0-4.43-6.387-8.204-19.16-11.321-12.774-3.148-28.188-4.722-46.239-4.722-18.082 0-33.507 1.574-46.281 4.722-12.773 3.117-19.16 6.891-19.16 11.317 0 4.429 6.387 8.203 19.16 11.32 12.774 3.121 28.199 4.68 46.281 4.68z" inkscape:connector-curvature="0"/>
    </clipPath>
    <clipPath id="clipPath26">
      <path id="path28" d="m-2.9866-40.526h165.67v170.36h-165.67v-170.36z" inkscape:connector-curvature="0"/>
    </clipPath>
    <radialGradient id="radialGradient30" gradientUnits="userSpaceOnUse" cy="43.601" cx="79.733" r="81.734">
      <stop id="stop32" style="stop-color:#ffffff" offset="0"/>
      <stop id="stop34" style="stop-color:#ffffff;stop-opacity:0" offset="1"/>
    </radialGradient>
    <mask id="mask36">
      <g id="g38">
        <g id="g40" clip-path="url(#clipPath26)">
          <path id="path42" style="fill:url(#radialGradient30)" d="m-2.9866-40.526h165.67v170.36h-165.67v-170.36z" inkscape:connector-curvature="0"/>
        </g>
      </g>
    </mask>
    <radialGradient id="radialGradient46" gradientUnits="userSpaceOnUse" cy="43.601" cx="79.733" r="81.734">
      <stop id="stop48" style="stop-color:#000000" offset="0"/>
      <stop id="stop50" style="stop-color:#000000" offset="1"/>
    </radialGradient>
  </defs>
  <g id="g10" transform="matrix(1.25 0 0 -1.25 0 63.411)">
    <g id="g12">
      <g id="g14">
        <g id="g16" clip-path="url(#clipPath18)">
          <g id="g22" transform="matrix(.8 .00224 -.0092 .19584 2.0337 7.3056)">
            <g id="g44" mask="url(#mask36)">
              <path id="path52" style="fill-rule:evenodd;fill:url(#radialGradient46)" d="m65.441 32.038c18.051 0 33.465-1.559 46.239-4.68 12.773-3.117 19.16-6.891 19.16-11.316 0-4.43-6.387-8.204-19.16-11.321-12.774-3.148-28.188-4.722-46.239-4.722-18.082 0-33.507 1.574-46.281 4.722-12.773 3.117-19.16 6.891-19.16 11.317 0 4.429 6.387 8.203 19.16 11.32 12.774 3.121 28.199 4.68 46.281 4.68z" inkscape:connector-curvature="0"/>
            </g>
          </g>
        </g>
      </g>
      <path id="path54" style="fill-rule:evenodd;fill:#20140e" d="m34 29.319c8.613 2 19.012 3 31.199 3 12.188 0 22.602-1 31.242-3 8.614-2 12.918-4.414 12.918-7.238 0-2.856-4.304-5.282-12.918-7.282-8.613-2-19.027-3-31.242-3-12.187 0-22.586 1-31.199 3-8.641 2.028-12.961 4.454-12.961 7.282 0 2.824 4.32 5.238 12.961 7.238z" inkscape:connector-curvature="0"/>
      <path id="path56" style="fill-rule:evenodd;fill:#0d0804" d="m34 26.198c8.641 1.652 19.039 2.48 31.199 2.48 12.188 0 22.602-0.828 31.242-2.48 8.614-1.653 12.918-3.637 12.918-5.957 0-2.321-4.304-4.309-12.918-5.961-8.64-1.652-19.054-2.481-31.242-2.481-12.16 0-22.558 0.829-31.199 2.481s-12.961 3.64-12.961 5.961c0 2.32 4.32 4.304 12.961 5.957z" inkscape:connector-curvature="0"/>
      <path id="path58" style="fill-rule:evenodd;fill:#000000" d="m21.039 18.6c0 1.867 4.32 3.465 12.961 4.801 8.613 1.332 19.012 2 31.199 2 12.215 0 22.629-0.668 31.242-2 8.614-1.336 12.918-2.934 12.918-4.801s-4.304-3.469-12.918-4.801c-8.668-1.332-19.082-2-31.242-2s-22.558 0.668-31.199 2-12.961 2.934-12.961 4.801z" inkscape:connector-curvature="0"/>
      <path id="path60" style="fill-rule:evenodd;fill:#342518" d="m41.52 20.561c1.707 0.481 3.761 0.692 6.16 0.637 0.16 1.203 1.265 2.16 3.32 2.883 2.027 0.718 4.426 1 7.199 0.839 2.188-0.109 4.133-0.492 5.84-1.16 1.652-0.64 2.801-1.414 3.441-2.32 1.254 0.188 2.481 0.242 3.68 0.16 2.375-0.16 4.387-0.668 6.039-1.519 1.121 0.718 2.801 1.265 5.043 1.64 2.266 0.348 4.758 0.453 7.481 0.321 3.867-0.243 7.089-0.907 9.679-2 1.653 0.718 3.692 1 6.121 0.839 2.106-0.132 3.891-0.546 5.356-1.242 1.441-0.719 2.121-1.519 2.043-2.398-0.11-0.906-0.934-1.629-2.481-2.16-1.574-0.536-3.425-0.735-5.562-0.602-0.426 0-0.84 0.043-1.238 0.121l0.039-0.281c-0.078-0.664-1.024-1.172-2.84-1.52-1.813-0.347-3.985-0.453-6.52-0.32-1.89 0.109-3.64 0.363-5.238 0.762h-0.203l-0.957 0.078c-1.414-0.449-3.652-0.746-6.719-0.879-3.094-0.133-6.535-0.094-10.32 0.121-3.762 0.211-7.203 0.574-10.321 1.078-2.988 0.508-5.148 1.055-6.48 1.641-1.867-0.371-3.867-0.481-6-0.32-2.641 0.136-4.852 0.562-6.641 1.281-1.812 0.719-2.679 1.508-2.597 2.359 0.078 0.801 0.972 1.453 2.679 1.961h-0.003z" inkscape:connector-curvature="0"/>
      <path id="path62" style="fill-rule:evenodd;fill:#342518" d="m52.48 31.479c-1.359-0.266-2.8-0.348-4.32-0.238-1.867 0.105-3.441 0.41-4.719 0.918-1.281 0.508-1.906 1.066-1.882 1.679 0.054 0.586 0.695 1.055 1.921 1.403 1.2 0.344 2.665 0.504 4.399 0.476 0.133 0.856 0.933 1.536 2.402 2.043 1.465 0.508 3.184 0.707 5.16 0.598 1.547-0.078 2.934-0.359 4.161-0.84 1.199-0.453 2.023-1 2.476-1.64 0.856 0.136 1.734 0.16 2.641 0.082 1.656-0.082 3.093-0.426 4.32-1.04 0.828 0.504 2.027 0.891 3.602 1.161 1.652 0.238 3.437 0.304 5.359 0.199 2.801-0.16 5.121-0.629 6.961-1.402 1.144 0.48 2.598 0.683 4.359 0.601 1.52-0.078 2.801-0.387 3.84-0.918 1.012-0.508 1.492-1.082 1.442-1.723-0.055-0.613-0.641-1.121-1.762-1.519-1.117-0.399-2.442-0.547-3.961-0.441l-0.918 0.082 0.039-0.2c-0.051-0.453-0.734-0.816-2.039-1.082-1.309-0.265-2.867-0.347-4.68-0.238-1.386 0.078-2.629 0.266-3.719 0.559l-0.839 0.039c-1.043-0.293-2.657-0.493-4.844-0.598-2.238-0.105-4.691-0.082-7.359 0.078-5.973 0.348-9.985 1-12.04 1.961z" inkscape:connector-curvature="0"/>
      <path id="path64" style="fill-rule:evenodd;fill:#342518" d="m42.922 23.6c2.773-0.055 5.277-0.441 7.519-1.16 2.161-0.719 3.68-1.613 4.559-2.68 1.52 0.239 3.066 0.348 4.641 0.321 3.011-0.055 5.625-0.575 7.839-1.563 1.387 0.961 3.481 1.707 6.282 2.242 2.879 0.532 6.05 0.774 9.519 0.719 4.985-0.133 9.145-0.801 12.481-2 2 0.961 4.574 1.399 7.718 1.32 2.719-0.054 5.028-0.48 6.918-1.281 1.895-0.824 2.829-1.785 2.801-2.879-0.027-1.094-1.027-2-3-2.722-1.945-0.747-4.277-1.09-7-1.039-0.371 0-0.906 0.027-1.597 0.082l0.039-0.321c-0.028-0.801-1.188-1.469-3.481-2-2.293-0.508-5.055-0.734-8.281-0.679-2.266 0.023-4.492 0.25-6.68 0.679l-1.48 0.039c-2.558-0.879-5.398-1.613-8.519-2.199-4.535-0.851-8.933-1.238-13.199-1.16-4.293 0.082-8.68 0.641-13.16 1.68-3.016 0.718-5.801 1.574-8.36 2.562-2.187-0.508-4.734-0.734-7.64-0.683-3.36 0.054-6.215 0.48-8.563 1.281-2.343 0.801-3.504 1.734-3.476 2.801 0.023 0.984 1.105 1.824 3.238 2.519 2.106 0.668 4.695 1.027 7.762 1.082 0.133 1.465 1.465 2.68 4 3.637 2.531 0.988 5.574 1.453 9.121 1.402z" inkscape:connector-curvature="0"/>
      <path id="path66" style="fill-rule:evenodd;fill:#342518" d="m106.92 22.799c-1.231 0.375-2.457 0.813-3.684 1.321-2.453 1.011-3.652 1.84-3.597 2.48 0.023 0.453-0.496 0.625-1.563 0.52-1.867-0.215-3.773-0.039-5.719 0.519-2.293 0.641-4.386 1.586-6.281 2.84l-2.199 1.68 2.519 1.199c2.055 0.723 4.082 0.801 6.082 0.242 0.879-0.242 2.813-0.293 5.797-0.16 2.082 0.105 4.176-0.613 6.282-2.16 3.652-2.695 6.082-4.563 7.281-5.602l0.719-1.48c0.507-1.117 0.789-2.012 0.839-2.68 0.137-2.183-2.023-1.758-6.476 1.281z" inkscape:connector-curvature="0"/>
      <path id="path68" style="fill-rule:evenodd;fill:#342518" d="m43.398 33.639c1.043-0.347 1.868-0.746 2.481-1.199-0.504-0.508-1.227-1.066-2.16-1.68-1.918-1.281-4.012-2.242-6.278-2.882-1.949-0.559-3.867-0.731-5.761-0.52-1.067 0.109-1.575-0.066-1.52-0.52 0.051-0.64-1.148-1.464-3.601-2.48l-3.719-1.277c-4.426-3.043-6.574-3.481-6.442-1.321 0.028 0.692 0.297 1.586 0.801 2.68l0.723 1.48 1.598 1.278c1.492 1.203 3.386 2.64 5.679 4.32 2.106 1.574 4.199 2.309 6.281 2.199 2.985-0.132 4.918-0.078 5.801 0.161 2.024 0.535 4.067 0.457 6.117-0.239z" inkscape:connector-curvature="0"/>
      <path id="path70" style="fill-rule:evenodd;fill:#4b4226" d="m15.398 28.241c0.297 0.051 0.696-0.242 1.204-0.883 0.238-0.133 0.359-0.227 0.359-0.277 0-0.11-0.133-0.028-0.402 0.238l-1.118-0.121c-0.187-0.024-0.402 0.109-0.64 0.402l-0.281 0.399 0.878 0.242z" inkscape:connector-curvature="0"/>
      <path id="path72" style="fill-rule:evenodd;fill:#645c44" d="m16.48 27.401-0.761 0.277-1 0.16 0.761 0.04c0.215-0.024 0.547-0.184 1-0.477z" inkscape:connector-curvature="0"/>
      <path id="path74" style="fill-rule:evenodd;fill:#4c2d17" d="m11.879 38.44c0.293-0.027 0.586-0.414 0.883-1.16 0.211-0.215 0.304-0.336 0.277-0.36-0.027-0.136-0.133-0.027-0.32 0.321l-1 0.32c-0.16 0.051-0.321 0.238-0.481 0.559l-0.199 0.441 0.84-0.121z" inkscape:connector-curvature="0"/>
      <path id="path76" style="fill-rule:evenodd;fill:#4f462b" d="m12.68 37.319-0.641 0.519-0.84 0.52 0.68-0.238c0.187-0.106 0.453-0.375 0.801-0.801z" inkscape:connector-curvature="0"/>
      <path id="path78" style="fill-rule:evenodd;fill:#4c2d17" d="m22.199 29.081c0.242 0.16 0.641 0.023 1.199-0.403 0.243 0 0.375-0.039 0.403-0.117 0-0.082-0.133-0.055-0.403 0.078l-0.957-0.441c-0.16-0.078-0.363-0.039-0.601 0.121l-0.36 0.281 0.719 0.481z" inkscape:connector-curvature="0"/>
      <path id="path80" style="fill-rule:evenodd;fill:#4f462b" d="m23.32 28.678c-0.347 0.028-0.586 0.028-0.718 0l-0.922-0.16 0.679 0.281c0.188 0.055 0.508 0.012 0.961-0.121z" inkscape:connector-curvature="0"/>
      <path id="path82" style="fill-rule:evenodd;fill:#4b4226" d="m10.281 29.081c0.293 0.183 0.692 0.023 1.199-0.481 0.239 0 0.36-0.039 0.36-0.121 0-0.078-0.133-0.055-0.399 0.082l-0.961-0.402c-0.16-0.078-0.359-0.028-0.601 0.16l-0.359 0.32 0.761 0.442z" inkscape:connector-curvature="0"/>
      <path id="path84" style="fill-rule:evenodd;fill:#645c44" d="m11.359 28.6-0.718 0.039-0.879-0.121 0.636 0.281c0.215 0.028 0.536-0.039 0.961-0.199z" inkscape:connector-curvature="0"/>
      <path id="path86" style="fill-rule:evenodd;fill:#4b4226" d="m10.68 28.081c0.082 0.32 0.359 0.531 0.84 0.636 0.105 0.188 0.187 0.254 0.242 0.203 0.078-0.082 0-0.175-0.242-0.281l-0.36-0.961c-0.082-0.238-0.308-0.386-0.68-0.437l0.2 0.84z" inkscape:connector-curvature="0"/>
      <path id="path88" style="fill-rule:evenodd;fill:#4c2d17" d="m9.879 33.038c0.293 0.16 0.68 0 1.16-0.477 0.242 0 0.375-0.055 0.402-0.16 0-0.082-0.136-0.055-0.402 0.078l-0.961-0.359c-0.156-0.082-0.371-0.028-0.637 0.16l-0.32 0.281 0.758 0.477z" inkscape:connector-curvature="0"/>
      <path id="path90" style="fill-rule:evenodd;fill:#4f462b" d="m10.961 32.561-0.723 0.039-0.918-0.121 0.68 0.238c0.188 0.055 0.508 0 0.961-0.156z" inkscape:connector-curvature="0"/>
      <path id="path92" style="fill-rule:evenodd;fill:#4b4226" d="m14.48 36.081c-0.054-0.243-0.292-0.43-0.718-0.563-0.11-0.183-0.188-0.25-0.242-0.199l0.199 0.242 0.32 0.84c0.055 0.16 0.176 0.277 0.359 0.359 0.082 0.028 0.161 0.051 0.243 0.078l-0.161-0.757z" inkscape:connector-curvature="0"/>
      <path id="path94" style="fill-rule:evenodd;fill:#4c2d17" d="m21.281 36.401c-0.082-0.27-0.336-0.469-0.761-0.602-0.133-0.132-0.2-0.187-0.2-0.16-0.054 0.055 0.012 0.133 0.2 0.239l0.281 0.839c0.051 0.161 0.172 0.27 0.359 0.321 0.106 0.054 0.199 0.082 0.281 0.082l-0.16-0.719z" inkscape:connector-curvature="0"/>
      <path id="path96" style="fill-rule:evenodd;fill:#4f462b" d="m20.559 35.878 0.363 0.48 0.398 0.68c-0.054-0.211-0.132-0.41-0.242-0.598-0.316-0.348-0.492-0.535-0.519-0.562z" inkscape:connector-curvature="0"/>
      <path id="path98" style="fill-rule:evenodd;fill:#4b4226" d="m25.121 37.28c-0.133-0.215-0.426-0.266-0.883-0.16-0.133-0.133-0.211-0.149-0.238-0.039-0.027 0.05 0.066 0.078 0.281 0.078l0.52 0.64c0.133 0.161 0.359 0.172 0.679 0.039l-0.359-0.558z" inkscape:connector-curvature="0"/>
      <path id="path100" style="fill-rule:evenodd;fill:#4b4226" d="m11.879 37.518c0.187 0.11 0.496-0.051 0.922-0.48 0.211 0 0.32-0.039 0.32-0.118 0-0.054-0.109-0.027-0.32 0.079l-0.801-0.239c-0.133-0.027-0.293 0.039-0.48 0.2l-0.282 0.238 0.641 0.32z" inkscape:connector-curvature="0"/>
      <path id="path102" style="fill-rule:evenodd;fill:#645c44" d="m12.719 37.038-0.559 0.082h-0.762l0.563 0.16c0.16 0 0.414-0.082 0.758-0.242z" inkscape:connector-curvature="0"/>
      <path id="path104" style="fill-rule:evenodd;fill:#686048" d="m16.559 36.717c-0.293 0.297-0.532 0.75-0.719 1.364-0.215 0.636-0.266 1.05-0.16 1.238 0.027-0.215 0.199-0.574 0.519-1.078 0.348-0.563 0.707-0.973 1.082-1.242 0.371-0.266 1.266-0.586 2.68-0.961 1.227-0.477 1.867-1.211 1.918-2.2 0.055-1.121-0.067-1.918-0.359-2.398l-2.36-0.121 0.801 0.84c0.48 0.695 0.613 1.293 0.398 1.801-0.214 0.535-0.707 0.972-1.48 1.32-1.012 0.398-1.785 0.879-2.32 1.437z" inkscape:connector-curvature="0"/>
      <path id="path106" style="fill-rule:evenodd;fill:#686048" d="m11.641 40.159 0.8-0.039c0.532-0.215 0.879-0.707 1.039-1.481 0.028-0.078 0.122-0.988 0.282-2.719 0.105-1.253 0.343-2.175 0.718-2.761 0.481-0.774 1.122-1.332 1.918-1.68 0.403-0.187 0.747-0.293 1.043-0.32l-2.16-0.559c-0.375 0.211-0.761 0.52-1.16 0.918-0.801 0.774-1.242 1.602-1.32 2.481-0.055 0.668-0.055 1.613 0 2.839 0.027 1.094 0.027 1.723 0 1.879-0.106 0.43-0.336 0.789-0.68 1.082l-0.48 0.36z" inkscape:connector-curvature="0"/>
      <path id="path108" style="fill-rule:evenodd;fill:#686048" d="m24.121 37.28c0-0.133 0.094-0.629 0.277-1.481 0.215-0.933 0.348-1.652 0.403-2.16 0.078-0.695-0.133-1.398-0.641-2.121l-0.762-0.879-2.398-0.121c1.281 0.586 2.133 1.414 2.559 2.481 0.214 0.535 0.281 1.242 0.203 2.121-0.11 1.304-0.16 1.972-0.16 2 0.023 0.613 0.226 1.039 0.597 1.281 0.215 0.133 0.414 0.199 0.602 0.199-0.106-0.082-0.215-0.199-0.321-0.359-0.214-0.321-0.335-0.641-0.359-0.961z" inkscape:connector-curvature="0"/>
      <path id="path110" style="fill-rule:evenodd;fill:#492813" d="m22.52 25.838c-0.079 0.133-0.122 0.293-0.122 0.481-0.023 0.375 0.176 0.707 0.602 1 0.266 0.187 0.652 0.215 1.16 0.082 0.426-0.137 0.735-0.309 0.918-0.523 0.188-0.293 0.188-0.571 0-0.84 0.027 0.347-0.293 0.64-0.957 0.882-0.426 0.133-0.828-0.015-1.199-0.441l-0.402-0.641z" inkscape:connector-curvature="0"/>
      <path id="path112" style="fill-rule:evenodd;fill:#686048" d="m18.441 29.878c-2.347-0.211-4.136 0-5.363 0.64-0.531 0.266-1.078 0.801-1.637 1.602-0.562 0.773-0.789 1.32-0.679 1.64 0.16-0.32 0.57-0.746 1.238-1.281 0.773-0.641 1.508-1.055 2.199-1.238 0.082-0.028 2.016 0.078 5.801 0.32 2.934 0.184 4.602-0.402 5-1.762 0.293-1.015 0.441-1.746 0.441-2.199 0-0.265-0.054-0.668-0.16-1.199-0.054-0.563-0.402-0.856-1.043-0.883-0.636-0.023-0.933 0.266-0.879 0.883 0.133 0.984 0.188 1.586 0.161 1.797-0.051 0.613-0.321 1.082-0.801 1.402-0.586 0.399-2.012 0.492-4.278 0.278z" inkscape:connector-curvature="0"/>
      <path id="path114" style="fill-rule:evenodd;fill:#686048" d="m13.762 27.081c0.426-0.11 2.011 0.332 4.758 1.32 2.187 0.773 3.492 0.531 3.921-0.723 0.321-1.011 0.504-1.8 0.559-2.359 0.027-0.32 0-0.824-0.078-1.52-0.055-0.586-0.363-0.918-0.922-1-0.586-0.082-0.867 0.188-0.84 0.801 0.078 0.906 0.106 1.586 0.078 2.039 0 0.774-0.211 1.281-0.636 1.52-0.508 0.32-1.641 0.066-3.403-0.758-1.812-0.856-3.238-1.055-4.277-0.602-0.453 0.215-0.867 0.746-1.242 1.602-0.348 0.797-0.481 1.398-0.399 1.797 0.16-0.348 0.438-0.703 0.84-1.078 0.531-0.559 1.078-0.907 1.641-1.039z" inkscape:connector-curvature="0"/>
      <path id="path116" style="fill-rule:evenodd;fill:#4b4226" d="m22.121 27.639c0.211 0.399 0.734 0.535 1.559 0.399 0.054 0.082 0.132 0.148 0.242 0.203 0.133 0.051 0.211 0.039 0.238-0.043 0.078-0.16-0.082-0.238-0.48-0.238l-0.918-1.243c-0.242-0.343-0.668-0.425-1.282-0.238l0.641 1.16z" inkscape:connector-curvature="0"/>
      <path id="path118" style="fill-rule:evenodd;fill:#645c44" d="m23.559 27.999-0.84-0.559-0.957-0.922 0.636 0.883c0.215 0.184 0.602 0.383 1.161 0.598z" inkscape:connector-curvature="0"/>
      <path id="path120" style="fill-rule:evenodd;fill:#4b4226" d="m16.441 25.678c-0.027 0.403 0.227 0.867 0.758 1.403 0.106 0.32 0.188 0.464 0.242 0.437 0.133-0.078 0.067-0.25-0.203-0.519l-0.039-1.438c-0.027-0.402-0.254-0.762-0.679-1.082l-0.079 1.199z" inkscape:connector-curvature="0"/>
      <path id="path122" style="fill-rule:evenodd;fill:#645c44" d="m17.18 26.92-0.301-0.921-0.238-1.282c0 0.348 0.027 0.696 0.078 1.043 0.027 0.16 0.109 0.399 0.242 0.719 0.117 0.219 0.191 0.367 0.219 0.441z" inkscape:connector-curvature="0"/>
      <path id="path124" style="fill-rule:evenodd;fill:#4b4226" d="m16.199 27.159c0.106 0.215 0.426 0.32 0.961 0.32 0.133 0.133 0.227 0.172 0.281 0.121 0.028-0.105-0.066-0.16-0.281-0.16l-0.519-0.84c-0.133-0.215-0.403-0.281-0.801-0.199l0.359 0.758z" inkscape:connector-curvature="0"/>
      <path id="path126" style="fill-rule:evenodd;fill:#4b4226" d="m14.52 39.038c0.242 0.082 0.625-0.145 1.16-0.68 0.242 0 0.359-0.066 0.359-0.199 0-0.16-0.133-0.106-0.398 0.16l-1-0.199c-0.161-0.028-0.36 0.066-0.602 0.281l-0.277 0.359 0.758 0.278z" inkscape:connector-curvature="0"/>
      <path id="path128" style="fill-rule:evenodd;fill:#645c44" d="m15.559 38.401-0.719 0.16-0.879 0.039 0.199 0.078c0.16 0.055 0.32 0.067 0.481 0.039 0.187 0 0.492-0.105 0.918-0.316z" inkscape:connector-curvature="0"/>
      <path id="path130" style="fill-rule:evenodd;fill:#4b4226" d="m17.039 38.999c-0.051-0.266-0.293-0.465-0.719-0.598-0.105-0.215-0.175-0.281-0.199-0.203-0.055 0.055 0.012 0.137 0.199 0.242l0.282 0.879c0.05 0.16 0.171 0.281 0.359 0.359 0.078 0.028 0.16 0.055 0.238 0.082l-0.16-0.761z" inkscape:connector-curvature="0"/>
      <path id="path132" style="fill-rule:evenodd;fill:#4c2d17" d="m17.238 38.319c-0.105-0.16-0.398-0.172-0.879-0.039-0.054-0.027-0.093-0.039-0.121-0.039-0.078-0.028-0.117-0.016-0.117 0.039-0.027 0.051 0.067 0.078 0.277 0.078l0.563 0.562c0.16 0.133 0.398 0.118 0.719-0.042l-0.442-0.559z" inkscape:connector-curvature="0"/>
      <path id="path134" style="fill-rule:evenodd;fill:#4f462b" d="m16.441 38.319 0.481 0.199 0.598 0.36-0.399-0.399c-0.426-0.105-0.656-0.16-0.68-0.16z" inkscape:connector-curvature="0"/>
      <path id="path136" style="fill-rule:evenodd;fill:#342518" d="m24.961 20.198c0-1.36-0.481-2.52-1.441-3.481-0.961-0.957-2.122-1.437-3.481-1.437-1.387 0-2.559 0.48-3.519 1.437-0.961 0.961-1.442 2.121-1.442 3.481 0 1.363 0.481 2.519 1.442 3.48 0.96 0.989 2.132 1.481 3.519 1.481 1.359 0 2.52-0.492 3.481-1.481 0.96-0.961 1.441-2.117 1.441-3.48z" inkscape:connector-curvature="0"/>
      <path id="path138" style="fill-rule:evenodd;fill:#342518" d="m27.84 25.198c0-0.77-0.492-1.438-1.481-2-0.961-0.531-2.132-0.797-3.519-0.797s-2.559 0.266-3.52 0.797c-0.988 0.562-1.48 1.23-1.48 2 0 0.773 0.492 1.441 1.48 2 0.961 0.535 2.133 0.801 3.52 0.801s2.558-0.266 3.519-0.801c0.989-0.559 1.481-1.227 1.481-2z" inkscape:connector-curvature="0"/>
      <path id="path140" style="fill-rule:evenodd;fill:#342518" d="m27.32 19.92c0.961-0.96 1.442-2.121 1.442-3.48s-0.481-2.535-1.442-3.52c-0.988-0.96-2.16-1.441-3.519-1.441-1.36 0-2.52 0.481-3.481 1.441-0.988 0.985-1.48 2.161-1.48 3.52s0.492 2.52 1.48 3.48c0.961 0.985 2.121 1.481 3.481 1.481 1.359 0 2.531-0.496 3.519-1.481z" inkscape:connector-curvature="0"/>
      <path id="path142" style="fill-rule:evenodd;fill:#342518" d="m115.36 20.198c0-1.36-0.48-2.52-1.437-3.481-0.961-0.957-2.121-1.437-3.484-1.437-1.383 0-2.559 0.48-3.516 1.437-0.961 0.961-1.442 2.121-1.442 3.481 0 1.363 0.481 2.519 1.442 3.48 0.957 0.989 2.133 1.481 3.516 1.481 1.363 0 2.523-0.492 3.484-1.481 0.957-0.961 1.437-2.117 1.437-3.48z" inkscape:connector-curvature="0"/>
      <path id="path144" style="fill-rule:evenodd;fill:#7b7560" d="m36.641 14.678c-0.028 0.375 0.011 0.707 0.121 1 0.133 0.293 0.293 0.453 0.476 0.481 0.215 0.027 0.403-0.094 0.563-0.36 0.187-0.265 0.293-0.586 0.32-0.961 0.051-0.371 0.012-0.707-0.121-1-0.105-0.293-0.266-0.453-0.48-0.48-0.188-0.023-0.375 0.094-0.559 0.359-0.16 0.27-0.266 0.59-0.32 0.961z" inkscape:connector-curvature="0"/>
      <path id="path146" style="fill-rule:evenodd;fill:#494024" d="m36.762 14.678c-0.055 0.586 0.078 0.907 0.398 0.961 0.293 0 0.481-0.281 0.559-0.84 0.054-0.586-0.078-0.906-0.399-0.961-0.132-0.027-0.254 0.055-0.359 0.243-0.106 0.16-0.176 0.359-0.199 0.597z" inkscape:connector-curvature="0"/>
      <path id="path148" style="fill-rule:evenodd;fill:#7b7560" d="m15.398 20.038c-0.132 0.746-0.117 1.402 0.043 1.961 0.184 0.586 0.465 0.918 0.84 1 0.399 0.082 0.785-0.121 1.16-0.602 0.371-0.453 0.614-1.051 0.719-1.797 0.133-0.75 0.121-1.402-0.039-1.961-0.187-0.586-0.469-0.922-0.84-1-0.402-0.082-0.789 0.121-1.16 0.602-0.348 0.453-0.586 1.051-0.723 1.797z" inkscape:connector-curvature="0"/>
      <path id="path150" style="fill-rule:evenodd;fill:#494024" d="m15.602 20.038c-0.082 0.48-0.055 0.906 0.078 1.281 0.105 0.375 0.281 0.586 0.519 0.641 0.242 0.027 0.481-0.106 0.723-0.399 0.238-0.293 0.398-0.683 0.476-1.16 0.11-0.453 0.094-0.867-0.039-1.242-0.105-0.375-0.281-0.586-0.519-0.641-0.238-0.051-0.481 0.067-0.719 0.36-0.242 0.292-0.414 0.683-0.519 1.16z" inkscape:connector-curvature="0"/>
      <path id="path152" style="fill-rule:evenodd;fill:#7b7560" d="m47.602 13.12c0.105 0.664 0.343 1.199 0.718 1.597 0.375 0.43 0.774 0.602 1.2 0.524 0.425-0.082 0.761-0.387 1-0.922 0.242-0.508 0.308-1.106 0.199-1.801-0.106-0.664-0.344-1.199-0.719-1.598-0.375-0.425-0.785-0.601-1.238-0.519-0.43 0.078-0.75 0.383-0.961 0.918-0.242 0.535-0.309 1.133-0.199 1.801z" inkscape:connector-curvature="0"/>
      <path id="path154" style="fill-rule:evenodd;fill:#494024" d="m47.84 13.038c0.055 0.429 0.199 0.773 0.441 1.043 0.266 0.265 0.531 0.371 0.797 0.316 0.297-0.051 0.508-0.25 0.641-0.598 0.16-0.347 0.203-0.734 0.121-1.16-0.051-0.426-0.199-0.773-0.442-1.039-0.238-0.269-0.503-0.375-0.796-0.32-0.27 0.051-0.481 0.254-0.641 0.598-0.133 0.32-0.176 0.707-0.121 1.16z" inkscape:connector-curvature="0"/>
      <path id="path156" style="fill-rule:evenodd;fill:#7b7560" d="m32.559 16.159c0.187 0.32 0.414 0.547 0.679 0.679 0.27 0.133 0.496 0.149 0.684 0.043 0.211-0.136 0.332-0.347 0.359-0.64 0.024-0.321-0.043-0.641-0.203-0.961-0.156-0.32-0.371-0.547-0.637-0.68-0.269-0.16-0.507-0.172-0.722-0.039-0.211 0.106-0.332 0.317-0.36 0.637-0.027 0.32 0.039 0.64 0.2 0.961z" inkscape:connector-curvature="0"/>
      <path id="path158" style="fill-rule:evenodd;fill:#494024" d="m32.68 16.081c0.105 0.183 0.242 0.332 0.398 0.437 0.188 0.082 0.348 0.082 0.481 0 0.32-0.211 0.347-0.558 0.082-1.039-0.106-0.187-0.243-0.332-0.403-0.441-0.16-0.078-0.304-0.078-0.437 0-0.321 0.187-0.36 0.535-0.121 1.043z" inkscape:connector-curvature="0"/>
      <path id="path160" style="fill-rule:evenodd;fill:#4b4226" d="m108.28 35.319c0.293-0.051 0.586-0.441 0.879-1.16 0.215-0.215 0.309-0.332 0.281-0.36-0.027-0.082-0.132 0.028-0.32 0.321l-1 0.32c-0.16 0.055-0.32 0.238-0.48 0.559l-0.161 0.441 0.801-0.121z" inkscape:connector-curvature="0"/>
      <path id="path162" style="fill-rule:evenodd;fill:#645c44" d="m109.08 34.198-0.637 0.519-0.839 0.524 0.718-0.242c0.188-0.106 0.442-0.371 0.758-0.801z" inkscape:connector-curvature="0"/>
      <path id="path164" style="fill-rule:evenodd;fill:#4c2d17" d="m108.12 33.717c0.184 0.11 0.481-0.039 0.879-0.437 0.188 0 0.281-0.039 0.281-0.121 0-0.051-0.109-0.028-0.32 0.082l-0.719-0.203c-0.109-0.024-0.254 0.043-0.441 0.203l-0.239 0.238 0.559 0.238z" inkscape:connector-curvature="0"/>
      <path id="path166" style="fill-rule:evenodd;fill:#4f462b" d="m108.92 33.28-0.524 0.121-0.679-0.043 0.48 0.16c0.16 0 0.403-0.078 0.723-0.238z" inkscape:connector-curvature="0"/>
      <path id="path168" style="fill-rule:evenodd;fill:#4b4226" d="m111.48 29.639c-0.132-0.347-0.519-0.519-1.16-0.519-0.187-0.188-0.308-0.254-0.359-0.2-0.055 0.079 0.066 0.172 0.359 0.278l0.602 1.082c0.105 0.187 0.289 0.305 0.558 0.359h0.399l-0.399-1z" inkscape:connector-curvature="0"/>
      <path id="path170" style="fill-rule:evenodd;fill:#645c44" d="m110.4 29.198 0.6 0.519c0.188 0.188 0.414 0.469 0.68 0.844-0.106-0.293-0.254-0.547-0.442-0.762-0.078-0.132-0.238-0.265-0.476-0.398-0.215-0.133-0.336-0.203-0.364-0.203z" inkscape:connector-curvature="0"/>
      <path id="path172" style="fill-rule:evenodd;fill:#686048" d="m109.08 31.038c0.11 1.894 0.188 2.949 0.242 3.16 0.242 0.961 0.707 1.496 1.403 1.601 0.371 0.079 0.703 0.051 1-0.082-0.215-0.05-0.43-0.156-0.645-0.316-0.476-0.348-0.769-0.773-0.879-1.281-0.133-0.559-0.133-1.387 0-2.481 0.133-1.121 0.121-2.066-0.039-2.84-0.32-1.652-1.027-2.894-2.121-3.718l-1.519-0.762-3.2 0.68 1.918 0.761c1.387 0.664 2.375 1.387 2.961 2.16 0.508 0.665 0.801 1.708 0.879 3.118z" inkscape:connector-curvature="0"/>
      <path id="path174" style="fill-rule:evenodd;fill:#342518" d="m111.72 23.198c0-0.852-0.465-1.586-1.399-2.199-0.933-0.614-2.054-0.918-3.359-0.918-1.309 0-2.414 0.304-3.32 0.918-0.934 0.613-1.403 1.347-1.403 2.199 0 0.855 0.469 1.586 1.403 2.203 0.906 0.613 2.011 0.918 3.32 0.918 1.305 0 2.426-0.305 3.359-0.918 0.934-0.617 1.399-1.348 1.399-2.203z" inkscape:connector-curvature="0"/>
      <path id="path176" style="fill-rule:evenodd;fill:#4b4226" d="m24.281 24.799 0.797 0.2c-0.105-0.614-0.293-0.973-0.558-1.079l-0.961-0.402c-0.133-0.398-0.239-0.519-0.321-0.359-0.023 0.054 0.067 0.187 0.282 0.402 0.132 0.719 0.386 1.133 0.761 1.238z" inkscape:connector-curvature="0"/>
      <path id="path178" style="fill-rule:evenodd;fill:#645c44" d="m23.602 23.6c0 0.028 0.078 0.145 0.238 0.36 0.187 0.265 0.332 0.441 0.441 0.519 0.211 0.133 0.438 0.227 0.68 0.281l-0.801-0.562-0.558-0.598z" inkscape:connector-curvature="0"/>
      <path id="path180" style="fill-rule:evenodd;fill:#4c2d17" d="m24.602 23.198 0.558-0.199c-0.215-0.348-0.426-0.504-0.64-0.481l-0.719 0.16c-0.188-0.183-0.293-0.226-0.321-0.117l0.282 0.156c0.293 0.43 0.57 0.59 0.84 0.481z" inkscape:connector-curvature="0"/>
      <path id="path182" style="fill-rule:evenodd;fill:#4f462b" d="m23.84 22.717 0.68 0.282c0.16 0 0.335-0.039 0.519-0.118-0.293 0-0.519-0.015-0.68-0.043l-0.519-0.121z" inkscape:connector-curvature="0"/>
      <path id="path184" style="fill-rule:evenodd;fill:#4b4226" d="m21.078 19.799 0.402 0.039c0.293-0.027 0.493-0.117 0.598-0.277l0.723-1.082c0.32 0 0.453-0.066 0.398-0.199-0.054-0.11-0.187-0.055-0.398 0.16-0.613-0.133-1.016 0.012-1.199 0.438l-0.524 0.921z" inkscape:connector-curvature="0"/>
      <path id="path186" style="fill-rule:evenodd;fill:#645c44" d="m21.801 19.038-0.481 0.722 1.399-1.281c-0.453 0.188-0.758 0.375-0.918 0.559z" inkscape:connector-curvature="0"/>
      <path id="path188" style="fill-rule:evenodd;fill:#686048" d="m23.879 20.479c0.187-1.414 0.562-2.426 1.121-3.039 0.641-0.746 1.695-1.387 3.16-1.922 0.719-0.265 1.371-0.453 1.961-0.558l-3.121-1c-0.48 0.05-1.012 0.265-1.602 0.64-1.144 0.719-1.957 1.895-2.437 3.52-0.215 0.746-0.293 1.691-0.242 2.84 0.027 1.093-0.051 1.918-0.239 2.48-0.16 0.508-0.48 0.895-0.96 1.16l-0.68 0.278 0.961 0.203c0.719-0.082 1.238-0.575 1.558-1.481 0.082-0.242 0.254-1.281 0.52-3.121z" inkscape:connector-curvature="0"/>
      <path id="path190" style="fill-rule:evenodd;fill:#4c2d17" d="m117.04 25.401c-0.266-0.242-0.68-0.16-1.238 0.238-0.266-0.078-0.403-0.066-0.403 0.039-0.023 0.16 0.11 0.16 0.403 0l0.918 0.602c0.269 0.16 0.613 0.066 1.043-0.281l-0.723-0.598z" inkscape:connector-curvature="0"/>
      <path id="path192" style="fill-rule:evenodd;fill:#4f462b" d="m115.88 25.639 0.762 0.121 0.879 0.321c-0.211-0.188-0.426-0.321-0.641-0.403-0.106-0.05-0.305-0.066-0.598-0.039h-0.402z" inkscape:connector-curvature="0"/>
      <path id="path194" style="fill-rule:evenodd;fill:#4b4226" d="m116.4 24.561c-0.265-0.027-0.531 0.223-0.796 0.758l0.839-0.039c0.211 0 0.426-0.215 0.637-0.641l-0.68-0.078z" inkscape:connector-curvature="0"/>
      <path id="path196" style="fill-rule:evenodd;fill:#645c44" d="m115.68 25.28 0.519-0.281 0.762-0.239c-0.215-0.027-0.414-0.015-0.602 0.039-0.105 0.028-0.254 0.106-0.437 0.239-0.16 0.136-0.242 0.215-0.242 0.242z" inkscape:connector-curvature="0"/>
      <path id="path198" style="fill-rule:evenodd;fill:#686048" d="m107.08 21.038c0.11-0.586-0.117-0.946-0.68-1.078-0.503-0.133-0.933 0.011-1.277 0.437-0.269 0.32-0.43 0.613-0.48 0.883-0.082 0.426-0.043 1.172 0.117 2.238 0.187 1.336 1.535 1.922 4.043 1.762 3.172-0.188 4.863-0.227 5.078-0.121 0.559 0.242 1.133 0.668 1.719 1.281 0.48 0.531 0.773 0.961 0.882 1.277 0.133-0.316 0-0.863-0.402-1.636-0.398-0.801-0.812-1.336-1.238-1.602-0.934-0.668-2.375-0.918-4.32-0.762-1.868 0.137-3.028 0-3.481-0.398-0.348-0.32-0.465-0.641-0.359-0.961 0.054-0.238 0.187-0.68 0.398-1.32z" inkscape:connector-curvature="0"/>
      <path id="path200" style="fill-rule:evenodd;fill:#4c2d17" d="m55.078 43.6c-0.078-0.187-0.277-0.308-0.598-0.359-0.214-0.028-0.414-0.028-0.601 0-0.184-0.188-0.32-0.242-0.399-0.16-0.054 0.132 0.067 0.199 0.36 0.199l0.558 1c0.082 0.16 0.27 0.238 0.563 0.238 0.16 0 0.305-0.012 0.437-0.039l-0.32-0.879z" inkscape:connector-curvature="0"/>
      <path id="path202" style="fill-rule:evenodd;fill:#4f462b" d="m54.039 43.338 0.52 0.422 0.64 0.68c-0.105-0.242-0.238-0.469-0.398-0.68-0.395-0.207-0.649-0.347-0.762-0.422z" inkscape:connector-curvature="0"/>
      <path id="path204" style="fill-rule:evenodd;fill:#4b4226" d="m54.961 42.561c-0.188-0.109-0.563-0.016-1.121 0.277-0.188 0-0.293 0.028-0.32 0.082-0.028 0.051 0.093 0.04 0.359-0.042l0.723 0.363c0.183 0.105 0.476 0.012 0.878-0.281l-0.519-0.399z" inkscape:connector-curvature="0"/>
      <path id="path206" style="fill-rule:evenodd;fill:#645c44" d="m53.922 42.838 0.637 0.04 0.722 0.16c-0.16-0.133-0.336-0.211-0.519-0.239-0.535 0.028-0.817 0.039-0.84 0.039z" inkscape:connector-curvature="0"/>
      <path id="path208" style="fill-rule:evenodd;fill:#686048" d="m53.922 43.76c0.023-0.882-0.082-1.547-0.32-2-0.508-1.043-1.657-1.949-3.442-2.722-1.707-0.77-2.668-1.438-2.879-2-0.136-0.453-0.082-0.813 0.16-1.078 0.161-0.161 0.493-0.481 1-0.961 0.371-0.454 0.348-0.868-0.082-1.239-0.398-0.347-0.851-0.425-1.359-0.242-0.375 0.133-0.652 0.32-0.84 0.563-0.265 0.32-0.586 0.984-0.961 2-0.48 1.25 0.426 2.414 2.723 3.48 2.879 1.359 4.383 2.133 4.519 2.317 0.348 0.48 0.625 1.148 0.84 2 0.184 0.695 0.25 1.203 0.199 1.523 0.266-0.242 0.415-0.789 0.442-1.641z" inkscape:connector-curvature="0"/>
      <path id="path210" style="fill-rule:evenodd;fill:#544c32" d="m93.68 49.6c0.16 0.641 0.468 1.012 0.922 1.117 0.238 0.028 0.464 0 0.679-0.078-0.133-0.054-0.269-0.133-0.402-0.238-0.293-0.215-0.492-0.496-0.598-0.84-0.054-0.16-0.066-0.695-0.043-1.601 0-1.094-0.023-1.907-0.078-2.442-0.105-0.746-0.508-1.398-1.199-1.957l-1-0.601-1.082 1.558 0.48-0.117c0.426 0.023 0.868 0.332 1.321 0.918 0.347 0.453 0.586 1.16 0.718 2.121 0.161 1.387 0.254 2.105 0.282 2.16z" inkscape:connector-curvature="0"/>
      <path id="path212" style="fill-rule:evenodd;fill:#4c2d17" d="m92.281 47.999c0.293-0.055 0.586-0.438 0.879-1.161 0.215-0.21 0.309-0.332 0.281-0.359-0.027-0.078-0.082-0.066-0.16 0.039-0.082 0.11-0.136 0.199-0.16 0.281l-1 0.321c-0.16 0.054-0.32 0.238-0.48 0.558l-0.2 0.442 0.84-0.121z" inkscape:connector-curvature="0"/>
      <path id="path214" style="fill-rule:evenodd;fill:#4f462b" d="m93.078 46.878-0.637 0.523-0.839 0.519 0.679-0.242c0.184-0.105 0.453-0.371 0.797-0.8z" inkscape:connector-curvature="0"/>
      <path id="path216" style="fill-rule:evenodd;fill:#4b4226" d="m90.68 39.96c0.242-0.028 0.492-0.36 0.761-1 0.184-0.106 0.266-0.2 0.239-0.282-0.028-0.105-0.118-0.011-0.282 0.282-0.371 0.078-0.652 0.171-0.839 0.281-0.161 0.027-0.293 0.172-0.399 0.437l-0.16 0.403 0.68-0.121z" inkscape:connector-curvature="0"/>
      <path id="path218" style="fill-rule:evenodd;fill:#4b4226" d="m98.922 49.76c0.289-0.054 0.586-0.441 0.879-1.16 0.211-0.215 0.304-0.347 0.277-0.402-0.023-0.051-0.133 0.066-0.316 0.363l-1 0.317c-0.16 0.054-0.321 0.242-0.481 0.562l-0.16 0.438 0.801-0.118z" inkscape:connector-curvature="0"/>
      <path id="path220" style="fill-rule:evenodd;fill:#645c44" d="m99.719 48.639-0.641 0.52-0.84 0.519 0.723-0.238c0.187-0.105 0.437-0.375 0.758-0.801z" inkscape:connector-curvature="0"/>
      <path id="path222" style="fill-rule:evenodd;fill:#4c2d17" d="m98.762 48.159c0.211 0.082 0.504-0.067 0.879-0.442 0.187 0 0.281-0.039 0.281-0.117 0-0.055-0.11-0.027-0.32 0.078l-0.723-0.199c-0.106-0.027-0.25 0.027-0.438 0.16l-0.242 0.239 0.563 0.281z" inkscape:connector-curvature="0"/>
      <path id="path224" style="fill-rule:evenodd;fill:#4f462b" d="m99.559 47.717-0.52 0.082h-0.68l0.481 0.121c0.16 0.024 0.398-0.042 0.719-0.203z" inkscape:connector-curvature="0"/>
      <path id="path226" style="fill-rule:evenodd;fill:#4c2d17" d="m95 48.401c-0.055-0.188-0.172-0.336-0.359-0.441-0.161-0.082-0.293-0.122-0.403-0.122-0.105-0.21-0.172-0.277-0.199-0.199l0.199 0.239 0.321 0.839c0.054 0.161 0.175 0.282 0.363 0.364 0.078 0.023 0.156 0.05 0.238 0.078l-0.16-0.758z" inkscape:connector-curvature="0"/>
      <path id="path228" style="fill-rule:evenodd;fill:#4f462b" d="m94.32 47.878 0.719 1.16c-0.051-0.211-0.133-0.41-0.238-0.598-0.055-0.133-0.215-0.32-0.481-0.562z" inkscape:connector-curvature="0"/>
      <path id="path230" style="fill-rule:evenodd;fill:#4b4226" d="m95.641 47.44c-0.215-0.242-0.625-0.215-1.243 0.078-0.238-0.105-0.371-0.105-0.398 0 0 0.055 0.133 0.082 0.398 0.082l0.883 0.68c0.239 0.215 0.586 0.172 1.039-0.121l-0.679-0.719z" inkscape:connector-curvature="0"/>
      <path id="path232" style="fill-rule:evenodd;fill:#645c44" d="m94.48 47.561 0.719 0.199c0.242 0.078 0.535 0.211 0.879 0.399-0.183-0.188-0.383-0.348-0.598-0.481-0.64-0.078-0.972-0.117-1-0.117z" inkscape:connector-curvature="0"/>
      <path id="path234" style="fill-rule:evenodd;fill:#4b4226" d="m102.12 44.081c-0.133-0.348-0.519-0.52-1.16-0.52-0.188-0.187-0.309-0.254-0.359-0.203-0.028 0.055 0.011 0.109 0.117 0.16 0.082 0.055 0.16 0.082 0.242 0.082l0.598 1.117c0.109 0.188 0.293 0.309 0.562 0.364h0.399l-0.399-1z" inkscape:connector-curvature="0"/>
      <path id="path236" style="fill-rule:evenodd;fill:#645c44" d="m101.04 43.6 0.602 0.559c0.187 0.187 0.414 0.469 0.679 0.84-0.105-0.293-0.254-0.547-0.441-0.758-0.078-0.11-0.238-0.242-0.481-0.403-0.21-0.16-0.332-0.238-0.359-0.238z" inkscape:connector-curvature="0"/>
      <path id="path238" style="fill-rule:evenodd;fill:#4b4226" d="m105.92 39.717c-0.27-0.238-0.684-0.156-1.242 0.243-0.266 0-0.403 0.027-0.403 0.078-0.023 0.16 0.11 0.16 0.403 0l0.961 0.601c0.238 0.16 0.57 0.067 1-0.281l-0.719-0.641z" inkscape:connector-curvature="0"/>
      <path id="path240" style="fill-rule:evenodd;fill:#645c44" d="m104.76 39.999 0.758 0.082 0.878 0.32c-0.21-0.188-0.425-0.32-0.636-0.402-0.11-0.055-0.309-0.067-0.602-0.039-0.238 0.027-0.375 0.039-0.398 0.039z" inkscape:connector-curvature="0"/>
      <path id="path242" style="fill-rule:evenodd;fill:#4c2d17" d="m103.36 34.76c-0.214-0.16-0.64-0.082-1.281 0.239-0.238 0-0.371 0.027-0.398 0.082-0.028 0.105 0.121 0.105 0.441 0l0.918 0.597c0.238 0.16 0.574 0.067 1-0.277l-0.68-0.641z" inkscape:connector-curvature="0"/>
      <path id="path244" style="fill-rule:evenodd;fill:#4f462b" d="m102.16 35.038 0.762 0.121c0.238 0.027 0.543 0.121 0.918 0.281-0.215-0.16-0.442-0.293-0.68-0.402-0.109-0.051-0.308-0.067-0.601-0.039-0.239 0.027-0.375 0.039-0.399 0.039z" inkscape:connector-curvature="0"/>
      <path id="path246" style="fill-rule:evenodd;fill:#4b4226" d="m102.72 33.92c-0.16-0.027-0.442 0.227-0.84 0.758-0.188 0.082-0.266 0.16-0.238 0.242 0 0.051 0.039 0.04 0.117-0.042 0.082-0.051 0.133-0.106 0.16-0.161l0.84-0.039c0.215 0 0.43-0.226 0.64-0.679l-0.679-0.079z" inkscape:connector-curvature="0"/>
      <path id="path248" style="fill-rule:evenodd;fill:#645c44" d="m102.06 34.6 0.461-0.242 0.719-0.199c-0.183-0.028-0.371-0.012-0.558 0.039-0.301 0.195-0.508 0.332-0.622 0.402z" inkscape:connector-curvature="0"/>
      <path id="path250" style="fill-rule:evenodd;fill:#686048" d="m92.961 40.838c0.371-0.585 1.027-1.05 1.961-1.398 0.476-0.16 0.918-0.266 1.316-0.32l-1.199-0.481c-0.773 0-1.559 0.067-2.359 0.199-0.719 0.106-1.266 1.282-1.641 3.52-0.293 2.453-0.531 3.934-0.719 4.441-0.242 0.668-0.761 1.2-1.558 1.602 0.211 0.16 0.531 0.211 0.957 0.16 0.535-0.055 0.933-0.32 1.203-0.801 0.183-0.347 0.504-1.468 0.957-3.359 0.43-1.895 0.789-3.082 1.082-3.563z" inkscape:connector-curvature="0"/>
      <path id="path252" style="fill-rule:evenodd;fill:#686048" d="m101.36 50.241c0.375 0.051 0.707 0.027 1-0.082-0.214-0.051-0.425-0.16-0.64-0.321-0.481-0.343-0.774-0.773-0.879-1.277-0.133-0.562-0.133-1.387 0-2.48 0.133-1.121 0.121-2.067-0.039-2.84-0.321-1.656-1.028-2.906-2.121-3.762l-1.52-0.762-3.199 0.723 1.918 0.719c1.387 0.668 2.375 1.402 2.961 2.199 0.508 0.668 0.801 1.707 0.879 3.121 0.109 1.895 0.187 2.945 0.242 3.16 0.238 0.934 0.707 1.465 1.398 1.602z" inkscape:connector-curvature="0"/>
      <path id="path254" style="fill-rule:evenodd;fill:#686048" d="m105.32 42.319c0.16-0.348-0.027-0.961-0.558-1.84-0.535-0.879-1.094-1.492-1.684-1.84-1.277-0.746-3.226-1.054-5.84-0.922-2.48 0.137-4.027-0.039-4.64-0.519-0.477-0.371-0.719-1.067-0.719-2.078 0-0.559 0.066-1.36 0.199-2.403 0.055-0.691-0.277-1.089-1-1.199-0.691-0.078-1.09 0.242-1.199 0.961-0.106 0.852-0.16 1.52-0.16 2 0.027 0.695 0.148 1.652 0.359 2.879 0.293 1.496 2.067 2.203 5.32 2.121 4.188-0.078 6.336-0.105 6.442-0.078 0.719 0.238 1.48 0.73 2.281 1.477 0.664 0.617 1.067 1.093 1.199 1.441z" inkscape:connector-curvature="0"/>
      <path id="path256" style="fill-rule:evenodd;fill:#686048" d="m100.2 34.518c0.535 0.242 1.094 0.68 1.68 1.32 0.508 0.563 0.801 0.973 0.883 1.243 0.133-0.321 0-0.868-0.403-1.641-0.371-0.773-0.773-1.309-1.199-1.602-0.933-0.64-2.371-0.878-4.32-0.718-1.867 0.133-3.028 0-3.481-0.403-0.347-0.316-0.48-0.652-0.398-1 0.078-0.211 0.227-0.652 0.441-1.316 0.078-0.59-0.148-0.934-0.679-1.043-0.508-0.133-0.95 0-1.321 0.402-0.269 0.293-0.429 0.586-0.48 0.879-0.055 0.426-0.016 1.172 0.117 2.239 0.215 1.335 1.574 1.921 4.082 1.761 3.172-0.187 4.867-0.226 5.078-0.121z" inkscape:connector-curvature="0"/>
      <path id="path258" style="fill-rule:evenodd;fill:#4b4226" d="m97.602 39.358c-0.188-0.293-0.602-0.359-1.243-0.199-0.238-0.133-0.371-0.16-0.398-0.078-0.055 0.105 0.078 0.16 0.398 0.16l0.762 0.879c0.211 0.238 0.559 0.265 1.039 0.078l-0.558-0.84z" inkscape:connector-curvature="0"/>
      <path id="path260" style="fill-rule:evenodd;fill:#645c44" d="m96.441 39.198 0.68 0.363c0.215 0.133 0.481 0.344 0.801 0.637-0.16-0.266-0.348-0.481-0.563-0.637-0.105-0.082-0.281-0.16-0.519-0.242l-0.399-0.121z" inkscape:connector-curvature="0"/>
      <path id="path262" style="fill-rule:evenodd;fill:#4c2d17" d="m97.039 38.038c-0.238-0.024-0.519 0.203-0.84 0.679-0.187 0.082-0.277 0.161-0.277 0.243 0.051 0.132 0.144 0.066 0.277-0.2 0.375 0 0.653 0.012 0.84 0.039 0.188 0 0.402-0.214 0.641-0.64l-0.641-0.121z" inkscape:connector-curvature="0"/>
      <path id="path264" style="fill-rule:evenodd;fill:#4f462b" d="m96.281 38.717 0.52-0.238 0.719-0.16c-0.188-0.051-0.375-0.051-0.559 0l-0.68 0.398z" inkscape:connector-curvature="0"/>
      <path id="path266" style="fill-rule:evenodd;fill:#4b4226" d="m90.48 49.241c-0.082-0.215-0.32-0.387-0.718-0.524-0.11-0.132-0.176-0.183-0.203-0.156-0.051 0.051 0.015 0.133 0.203 0.238l0.316 0.762c0.027 0.133 0.133 0.227 0.32 0.277 0.082 0.055 0.161 0.082 0.243 0.082l-0.161-0.679z" inkscape:connector-curvature="0"/>
      <path id="path268" style="fill-rule:evenodd;fill:#544c32" d="m41.441 39.6c0.348 0.453 0.571 1.16 0.68 2.117 0.106 1.043 0.199 1.762 0.277 2.161 0.161 0.64 0.481 1 0.961 1.082 0.243 0.054 0.469 0.039 0.68-0.04-0.133-0.054-0.277-0.136-0.437-0.242-0.297-0.238-0.481-0.519-0.563-0.84-0.051-0.16-0.078-0.707-0.078-1.64 0.027-1.039 0-1.84-0.082-2.399-0.078-0.746-0.465-1.398-1.16-1.961l-1-0.597-1.117 1.558 0.519-0.121c0.426 0.028 0.867 0.336 1.32 0.922z" inkscape:connector-curvature="0"/>
      <path id="path270" style="fill-rule:evenodd;fill:#4c2d17" d="m41.039 42.28c0.293-0.055 0.586-0.442 0.883-1.16 0.211-0.215 0.305-0.348 0.277-0.403-0.027-0.05-0.078-0.023-0.16 0.082-0.078 0.106-0.133 0.2-0.16 0.282l-1 0.32c-0.16 0.051-0.32 0.238-0.481 0.559l-0.199 0.441 0.84-0.121z" inkscape:connector-curvature="0"/>
      <path id="path272" style="fill-rule:evenodd;fill:#4f462b" d="m41.84 41.159-0.641 0.519-0.84 0.52 0.68-0.238c0.188-0.106 0.453-0.375 0.801-0.801z" inkscape:connector-curvature="0"/>
      <path id="path274" style="fill-rule:evenodd;fill:#4c2d17" d="m43.762 42.678c-0.055-0.183-0.176-0.332-0.364-0.437-0.16-0.082-0.293-0.121-0.398-0.121-0.105-0.215-0.172-0.282-0.199-0.2-0.055 0.051 0.011 0.133 0.199 0.239l0.32 0.84c0.028 0.16 0.133 0.265 0.321 0.32 0.105 0.055 0.199 0.082 0.281 0.082l-0.16-0.723z" inkscape:connector-curvature="0"/>
      <path id="path276" style="fill-rule:evenodd;fill:#4f462b" d="m43.039 42.159 0.359 0.48 0.403 0.68c-0.055-0.215-0.133-0.414-0.242-0.602-0.321-0.343-0.493-0.531-0.52-0.558z" inkscape:connector-curvature="0"/>
      <path id="path278" style="fill-rule:evenodd;fill:#4b4226" d="m44.398 41.717c-0.238-0.238-0.652-0.211-1.238 0.082-0.238-0.082-0.375-0.082-0.398 0-0.028 0.133 0.105 0.145 0.398 0.039l0.879 0.723c0.242 0.184 0.586 0.133 1.039-0.16l-0.68-0.684z" inkscape:connector-curvature="0"/>
      <path id="path280" style="fill-rule:evenodd;fill:#645c44" d="m43.238 41.838 0.723 0.2 0.879 0.402c-0.188-0.187-0.399-0.348-0.641-0.48-0.105-0.082-0.293-0.122-0.558-0.122h-0.403z" inkscape:connector-curvature="0"/>
      <path id="path282" style="fill-rule:evenodd;fill:#686048" d="m44.961 33.401-1.16-0.523c-0.774 0.027-1.563 0.109-2.36 0.242-0.722 0.105-1.269 1.281-1.64 3.519-0.321 2.453-0.574 3.934-0.762 4.442-0.293 0.797-0.801 1.32-1.519 1.558 0.187 0.188 0.507 0.254 0.96 0.199 0.508-0.05 0.907-0.32 1.2-0.8 0.187-0.321 0.492-1.438 0.922-3.36 0.425-1.894 0.796-3.078 1.117-3.558 0.375-0.586 1.027-1.055 1.961-1.403 0.453-0.156 0.879-0.265 1.281-0.316z" inkscape:connector-curvature="0"/>
      <path id="path284" style="fill-rule:evenodd;fill:#4b4226" d="m39.238 43.518c-0.078-0.211-0.316-0.387-0.718-0.519-0.133-0.133-0.215-0.188-0.239-0.161-0.027 0.028 0 0.067 0.078 0.122 0.055 0.054 0.106 0.078 0.161 0.078l0.281 0.8c0.054 0.133 0.172 0.227 0.359 0.282 0.078 0.054 0.16 0.078 0.238 0.078l-0.16-0.68z" inkscape:connector-curvature="0"/>
      <path id="path286" style="fill-rule:evenodd;fill:#544c32" d="m87.281 21.159c0.16 1.359 0.254 2.082 0.281 2.16 0.161 0.641 0.477 1.016 0.958 1.121 0.242 0.027 0.468 0 0.679-0.082-0.133-0.051-0.277-0.133-0.437-0.238-0.293-0.215-0.496-0.492-0.602-0.84-0.027-0.137-0.039-0.668-0.039-1.602 0-1.066-0.027-1.879-0.082-2.441-0.078-0.746-0.465-1.399-1.16-1.957l-1.039-0.602-1.078 1.559 0.515-0.117c0.43 0.023 0.856 0.332 1.282 0.918 0.347 0.457 0.589 1.16 0.722 2.121z" inkscape:connector-curvature="0"/>
      <path id="path288" style="fill-rule:evenodd;fill:#4c2d17" d="m86.16 21.717c0.293-0.05 0.586-0.437 0.879-1.156 0.215-0.215 0.309-0.336 0.281-0.363-0.027-0.078-0.132 0.027-0.32 0.32l-1 0.32c-0.16 0.055-0.32 0.243-0.48 0.559l-0.161 0.441 0.801-0.121z" inkscape:connector-curvature="0"/>
      <path id="path290" style="fill-rule:evenodd;fill:#4f462b" d="m86.961 20.6-0.641 0.52-0.84 0.519 0.719-0.242c0.16-0.105 0.414-0.371 0.762-0.797z" inkscape:connector-curvature="0"/>
      <path id="path292" style="fill-rule:evenodd;fill:#4c2d17" d="m88.879 22.12c-0.051-0.242-0.293-0.426-0.719-0.559-0.105-0.187-0.187-0.254-0.238-0.203l0.199 0.242 0.32 0.84c0.051 0.16 0.172 0.281 0.36 0.359 0.078 0.028 0.16 0.055 0.238 0.082l-0.16-0.761z" inkscape:connector-curvature="0"/>
      <path id="path294" style="fill-rule:evenodd;fill:#4b4226" d="m89.559 21.159c-0.239-0.239-0.664-0.215-1.282 0.082-0.238-0.11-0.371-0.11-0.398 0 0 0.051 0.133 0.078 0.398 0.078l0.883 0.68c0.238 0.214 0.586 0.175 1.039-0.118l-0.64-0.722z" inkscape:connector-curvature="0"/>
      <path id="path296" style="fill-rule:evenodd;fill:#645c44" d="m88.359 21.28 0.762 0.199 0.84 0.399c-0.188-0.184-0.387-0.344-0.602-0.481-0.64-0.078-0.972-0.117-1-0.117z" inkscape:connector-curvature="0"/>
      <path id="path298" style="fill-rule:evenodd;fill:#686048" d="m84.199 20.518c-0.238 0.668-0.758 1.199-1.558 1.602 0.214 0.16 0.531 0.215 0.961 0.16 0.531-0.055 0.945-0.32 1.238-0.801 0.16-0.32 0.469-1.441 0.922-3.359 0.426-1.867 0.785-3.039 1.078-3.52 0.375-0.613 1.027-1.094 1.961-1.441 0.48-0.16 0.918-0.266 1.32-0.321l-1.199-0.48c-0.777 0-1.563 0.07-2.363 0.203-0.719 0.133-1.266 1.317-1.637 3.559-0.297 2.425-0.535 3.89-0.723 4.398z" inkscape:connector-curvature="0"/>
      <path id="path300" style="fill-rule:evenodd;fill:#4b4226" d="m84.359 22.96c-0.105-0.321-0.347-0.481-0.718-0.481-0.082-0.187-0.149-0.254-0.2-0.199l0.2 0.238 0.32 0.762c0.051 0.133 0.172 0.226 0.359 0.281 0.078 0.051 0.16 0.078 0.239 0.078l-0.2-0.679z" inkscape:connector-curvature="0"/>
      <path id="path302" style="fill-rule:evenodd;fill:#342518" d="m101.6 11.999c0-0.559-1.055-1.051-3.161-1.481-2.13-0.398-4.666-0.598-7.599-0.598-2.934 0-5.453 0.2-7.559 0.598-2.109 0.426-3.16 0.922-3.16 1.481 0 0.586 1.051 1.082 3.16 1.48 2.078 0.402 4.598 0.602 7.559 0.602s5.492-0.2 7.601-0.602c2.106-0.398 3.161-0.894 3.161-1.48z" inkscape:connector-curvature="0"/>
      <path id="path304" style="fill-rule:evenodd;fill:#342518" d="m31.199 14.038c0-0.344-0.332-0.641-1-0.879-0.664-0.242-1.48-0.36-2.437-0.36-0.934 0-1.75 0.121-2.442 0.36-0.668 0.242-1 0.535-1 0.883 0 0.343 0.332 0.636 1 0.878 0.692 0.239 1.508 0.36 2.442 0.36 0.957 0 1.769-0.121 2.437-0.36 0.668-0.242 1-0.535 1-0.882z" inkscape:connector-curvature="0"/>
      <path id="path306" style="fill-rule:evenodd;fill:#7b7560" d="m86.039 36.081c0.508-0.055 0.934-0.243 1.281-0.563 0.348-0.293 0.492-0.613 0.442-0.957-0.028-0.375-0.254-0.656-0.684-0.844-0.398-0.183-0.863-0.238-1.398-0.156-0.532 0.078-0.957 0.266-1.282 0.559-0.32 0.32-0.464 0.652-0.437 1 0.051 0.347 0.277 0.613 0.68 0.8 0.398 0.184 0.867 0.239 1.398 0.161z" inkscape:connector-curvature="0"/>
      <path id="path308" style="fill-rule:evenodd;fill:#494024" d="m85.961 35.878c0.348-0.051 0.625-0.172 0.84-0.36 0.238-0.183 0.332-0.387 0.277-0.598-0.023-0.242-0.156-0.425-0.398-0.562-0.266-0.105-0.575-0.133-0.918-0.078-0.348 0.027-0.629 0.144-0.84 0.359-0.215 0.188-0.309 0.387-0.281 0.602 0.05 0.238 0.199 0.426 0.437 0.558 0.242 0.106 0.535 0.133 0.883 0.079z" inkscape:connector-curvature="0"/>
      <path id="path310" style="fill-rule:evenodd;fill:#342518" d="m92.199 31.198c0-0.559-0.332-1.039-1-1.438-0.664-0.375-1.48-0.562-2.437-0.562-0.934 0-1.75 0.187-2.442 0.562-0.668 0.399-1 0.879-1 1.438 0 0.562 0.332 1.027 1 1.402 0.692 0.399 1.508 0.598 2.442 0.598 0.957 0 1.773-0.199 2.437-0.598 0.668-0.375 1-0.84 1-1.402z" inkscape:connector-curvature="0"/>
      <path id="path312" style="fill-rule:evenodd;fill:#342518" d="m107.88 20.639c0.668-0.375 1-0.84 1-1.398 0-0.563-0.332-1.043-1-1.442-0.691-0.402-1.504-0.601-2.438-0.601-0.961 0-1.773 0.199-2.441 0.601-0.691 0.399-1.039 0.879-1.039 1.442 0 0.558 0.348 1.023 1.039 1.398 0.668 0.399 1.48 0.602 2.441 0.602 0.934 0 1.747-0.203 2.438-0.602z" inkscape:connector-curvature="0"/>
      <path id="path314" style="fill-rule:evenodd;fill:#342518" d="m51.238 33.401c0-0.348-0.332-0.629-1-0.84-0.664-0.242-1.476-0.363-2.437-0.363s-1.774 0.121-2.442 0.363c-0.664 0.211-1 0.492-1 0.84 0 0.344 0.336 0.637 1 0.879 0.668 0.238 1.481 0.359 2.442 0.359s1.773-0.121 2.437-0.359c0.668-0.242 1-0.535 1-0.879z" inkscape:connector-curvature="0"/>
      <path id="path316" style="fill-rule:evenodd;fill:#342518" d="m101.32 29.44c0-0.562-0.586-1.055-1.761-1.48-1.2-0.399-2.625-0.602-4.282-0.602-1.679 0-3.105 0.203-4.277 0.602-1.176 0.425-1.762 0.918-1.762 1.48 0 0.586 0.586 1.078 1.762 1.48 1.176 0.399 2.598 0.598 4.277 0.598 1.657 0 3.082-0.199 4.282-0.598 1.175-0.402 1.761-0.894 1.761-1.48z" inkscape:connector-curvature="0"/>
      <path id="path318" style="fill-rule:evenodd;fill:#342518" d="m54.359 32.76c0-0.562-0.773-1.043-2.32-1.441-1.547-0.375-3.414-0.559-5.598-0.559-2.214 0-4.093 0.184-5.64 0.559-1.547 0.398-2.321 0.879-2.321 1.441 0 0.559 0.774 1.028 2.321 1.399 1.547 0.402 3.426 0.601 5.64 0.601 2.184 0 4.051-0.199 5.598-0.601 1.547-0.375 2.32-0.84 2.32-1.399z" inkscape:connector-curvature="0"/>
      <path id="path320" style="fill-rule:evenodd;fill:#7b7560" d="m109.68 20.12c0.027 0.347 0.121 0.652 0.281 0.918 0.187 0.242 0.387 0.347 0.601 0.32 0.239-0.027 0.426-0.172 0.559-0.441 0.16-0.239 0.227-0.547 0.199-0.918-0.027-0.371-0.121-0.68-0.281-0.918-0.184-0.27-0.387-0.387-0.598-0.364-0.242 0.028-0.429 0.176-0.562 0.442-0.16 0.269-0.227 0.586-0.199 0.961z" inkscape:connector-curvature="0"/>
      <path id="path322" style="fill-rule:evenodd;fill:#494024" d="m110.12 20.081c0 0.238 0.051 0.437 0.156 0.597 0.137 0.16 0.27 0.242 0.403 0.242 0.347-0.054 0.519-0.347 0.519-0.882-0.054-0.559-0.254-0.84-0.601-0.84-0.133 0.027-0.25 0.121-0.36 0.281-0.105 0.188-0.144 0.387-0.117 0.602z" inkscape:connector-curvature="0"/>
      <path id="path324" style="fill-rule:evenodd;fill:#7b7560" d="m111.24 17.038c0.055 0.269 0.176 0.48 0.364 0.64 0.16 0.16 0.32 0.215 0.476 0.16 0.43-0.132 0.563-0.519 0.402-1.16-0.187-0.668-0.48-0.933-0.878-0.8-0.188 0.027-0.309 0.16-0.364 0.402-0.078 0.215-0.078 0.465 0 0.758z" inkscape:connector-curvature="0"/>
      <path id="path326" style="fill-rule:evenodd;fill:#494024" d="m111.6 16.96c0.105 0.398 0.293 0.574 0.558 0.519 0.266-0.105 0.348-0.359 0.238-0.762-0.023-0.183-0.105-0.332-0.238-0.437-0.105-0.11-0.215-0.133-0.32-0.082-0.106 0.027-0.188 0.109-0.238 0.242-0.055 0.16-0.055 0.332 0 0.52z" inkscape:connector-curvature="0"/>
      <path id="path328" style="fill-rule:evenodd;fill:#7b7560" d="m92.238 13.12c-0.105 0.664-0.066 1.254 0.121 1.758 0.161 0.48 0.414 0.75 0.762 0.8 0.344 0.055 0.68-0.133 1-0.558 0.293-0.426 0.492-0.973 0.598-1.641 0.109-0.668 0.066-1.254-0.117-1.762-0.188-0.504-0.454-0.773-0.801-0.797-0.348-0.054-0.668 0.133-0.961 0.559-0.32 0.426-0.52 0.973-0.602 1.641z" inkscape:connector-curvature="0"/>
      <path id="path330" style="fill-rule:evenodd;fill:#494024" d="m92.84 13.198c-0.051 0.43-0.028 0.801 0.082 1.121 0.133 0.32 0.305 0.492 0.519 0.519 0.211 0.028 0.426-0.093 0.637-0.359 0.188-0.266 0.309-0.613 0.363-1.039 0.051-0.43 0.024-0.801-0.082-1.121-0.105-0.348-0.265-0.535-0.48-0.559-0.215-0.027-0.426 0.106-0.641 0.399-0.211 0.269-0.343 0.613-0.398 1.039z" inkscape:connector-curvature="0"/>
      <path id="path332" style="fill-rule:evenodd;fill:#7b7560" d="m96.922 16.518c-0.082 0.453 0 0.867 0.238 1.242 0.238 0.371 0.574 0.598 1 0.68 0.399 0.055 0.762-0.066 1.078-0.359 0.348-0.293 0.551-0.668 0.602-1.121 0.082-0.454 0-0.868-0.238-1.239-0.243-0.375-0.563-0.601-0.961-0.679-0.426-0.055-0.801 0.066-1.121 0.359-0.348 0.293-0.547 0.664-0.598 1.117z" inkscape:connector-curvature="0"/>
      <path id="path334" style="fill-rule:evenodd;fill:#494024" d="m97.359 16.6c-0.027 0.293 0.028 0.559 0.161 0.801 0.16 0.211 0.375 0.344 0.64 0.398 0.266 0.055 0.508-0.015 0.719-0.199 0.215-0.187 0.332-0.426 0.359-0.719 0.055-0.296 0-0.562-0.16-0.8-0.133-0.27-0.332-0.414-0.598-0.442-0.269-0.054-0.507 0.028-0.718 0.242-0.215 0.184-0.348 0.426-0.403 0.719z" inkscape:connector-curvature="0"/>
    </g>
  </g>
<metadata><rdf:RDF><cc:Work><dc:format>image/svg+xml</dc:format><dc:type rdf:resource="http://purl.org/dc/dcmitype/StillImage"/><cc:license rdf:resource="http://creativecommons.org/licenses/publicdomain/"/><dc:publisher><cc:Agent rdf:about="http://openclipart.org/"><dc:title>Openclipart</dc:title></cc:Agent></dc:publisher></cc:Work><cc:License rdf:about="http://creativecommons.org/licenses/publicdomain/"><cc:permits rdf:resource="http://creativecommons.org/ns#Reproduction"/><cc:permits rdf:resource="http://creativecommons.org/ns#Distribution"/><cc:permits rdf:resource="http://creativecommons.org/ns#DerivativeWorks"/></cc:License></rdf:RDF></metadata></svg>
