<?xml version="1.0" encoding="UTF-8" ?>
<!DOCTYPE svg PUBLIC "-//W3C//DTD SVG 1.1//EN" "http://www.w3.org/Graphics/SVG/1.1/DTD/svg11.dtd">
<svg width="927pt" height="633pt" viewBox="0 0 927 633" version="1.1" xmlns="http://www.w3.org/2000/svg">
<path fill="#000000" opacity="1.00" d=" M 589.97 6.76 C 611.53 0.11 635.51 17.24 639.37 38.96 C 642.30 55.33 637.60 72.04 629.08 86.01 C 669.94 100.62 697.75 143.92 695.06 187.03 C 696.20 195.57 692.58 205.89 696.11 213.67 C 771.25 253.82 847.60 292.05 922.36 332.79 C 846.58 333.29 770.79 332.84 695.01 333.00 C 694.97 349.33 694.97 365.66 695.01 381.99 C 741.14 382.23 787.29 381.58 833.42 382.29 C 785.90 408.23 737.03 432.60 689.22 458.26 C 676.58 494.67 641.87 521.79 603.68 525.88 C 548.21 526.34 492.72 525.60 437.25 526.21 C 425.39 548.08 414.48 571.51 415.61 597.09 C 394.30 591.59 380.55 572.28 370.93 553.69 C 377.49 545.75 382.58 536.77 386.09 527.09 C 379.77 527.08 373.47 527.06 367.16 527.05 C 359.06 541.52 351.68 556.57 348.17 572.90 C 346.19 580.56 345.62 588.47 344.64 596.30 C 344.31 596.53 343.64 596.98 343.31 597.21 C 336.88 594.56 331.14 590.43 325.36 586.62 C 320.46 582.15 315.96 577.26 312.00 571.95 C 302.46 558.83 295.83 542.80 297.05 526.32 C 295.43 526.43 292.19 526.67 290.58 526.79 C 282.82 526.93 275.06 527.01 267.31 526.85 C 216.14 526.17 169.96 483.87 166.13 432.61 C 165.67 397.35 166.28 362.09 165.91 326.83 C 138.35 350.59 100.31 369.99 63.45 357.52 C 48.37 350.51 29.66 337.20 33.82 318.33 C 48.64 299.04 76.21 299.90 98.13 295.25 C 73.12 288.20 48.37 275.64 32.38 254.62 C 18.06 235.29 11.11 206.24 25.20 185.24 C 38.07 174.48 56.76 182.99 69.74 189.27 C 105.17 207.85 136.14 233.95 165.99 260.03 C 166.20 230.12 165.68 200.21 166.15 170.30 C 171.58 122.85 212.67 82.52 260.49 79.26 C 357.69 78.55 454.94 79.36 552.16 78.87 C 533.35 70.13 514.23 61.21 498.25 47.76 C 491.09 42.67 490.03 30.46 499.09 27.02 C 530.11 10.29 569.21 23.53 591.99 48.11 C 587.54 35.11 580.95 19.00 589.97 6.76 M 193.07 184.03 C 192.94 244.35 192.96 304.68 193.07 365.00 C 192.91 384.96 192.98 404.92 192.97 424.89 C 192.65 465.61 231.06 502.59 271.98 499.03 C 265.87 484.98 274.18 469.58 267.15 455.88 C 264.14 443.76 262.85 429.69 269.75 418.66 C 280.23 399.42 301.48 390.79 319.23 379.80 L 320.03 380.01 C 341.66 367.86 365.25 356.85 379.84 335.84 C 369.00 371.96 332.07 389.61 304.95 411.95 C 293.55 421.17 280.69 433.90 282.45 449.91 C 301.79 424.81 332.58 411.55 362.03 402.01 C 341.20 419.29 317.71 434.41 302.05 456.98 C 292.59 470.06 292.11 489.50 304.32 501.12 C 313.09 453.76 357.06 425.39 396.84 404.81 C 366.77 436.58 331.51 468.91 322.50 513.67 C 321.24 528.83 320.42 545.21 327.74 559.07 C 335.80 512.41 371.73 478.20 398.68 441.68 C 423.86 409.26 448.66 368.56 437.11 325.71 C 449.33 355.97 440.72 390.16 429.89 419.69 C 417.08 447.25 401.11 473.17 384.63 498.66 C 430.77 499.41 476.93 498.87 523.09 498.93 C 547.33 499.05 571.58 499.05 595.83 498.99 C 636.02 498.74 671.06 460.01 668.08 420.09 C 667.85 341.42 668.13 262.75 667.94 184.07 C 670.33 144.17 636.12 108.23 596.89 105.95 C 486.97 106.04 377.04 106.02 267.12 105.96 C 226.78 106.25 190.82 143.60 193.07 184.03 M 695.13 233.89 C 695.10 238.21 695.07 242.52 695.05 246.85 C 694.90 254.85 694.96 262.85 695.14 270.85 C 694.79 285.56 695.05 300.28 695.01 315.00 C 746.47 314.77 797.94 315.48 849.39 314.64 C 797.96 287.74 746.51 260.89 695.13 233.89 M 695.00 398.02 C 694.99 399.68 694.99 401.35 695.00 403.02 C 695.03 406.05 694.98 409.03 695.07 412.09 C 694.94 420.51 694.61 428.93 694.34 437.36 C 719.06 424.30 743.87 411.40 768.63 398.41 C 744.10 397.39 719.54 398.27 695.00 398.02 M 391.96 527.54 C 391.13 538.47 393.00 549.26 397.79 559.14 C 399.28 547.87 403.08 537.11 408.12 526.97 C 402.72 527.13 397.34 527.32 391.96 527.54 Z" />
<path fill="#84d9f4" opacity="1.00" d=" M 193.07 184.03 C 190.82 143.60 226.78 106.25 267.12 105.96 C 377.04 106.02 486.97 106.04 596.89 105.95 C 636.12 108.23 670.33 144.17 667.94 184.07 C 651.40 159.43 623.01 142.15 592.82 143.09 C 484.57 142.85 376.32 143.10 268.06 142.97 C 237.83 141.79 209.80 159.69 193.07 184.03 Z" />
<path fill="#00adee" opacity="1.00" d=" M 193.07 184.03 C 209.80 159.69 237.83 141.79 268.06 142.97 C 376.32 143.10 484.57 142.85 592.82 143.09 C 623.01 142.15 651.40 159.43 667.94 184.07 C 668.13 262.75 667.85 341.42 668.08 420.09 C 671.06 460.01 636.02 498.74 595.83 498.99 C 571.58 499.05 547.33 499.05 523.09 498.93 C 501.53 463.19 466.09 438.88 429.89 419.69 C 440.72 390.16 449.33 355.97 437.11 325.71 C 448.66 368.56 423.86 409.26 398.68 441.68 C 371.73 478.20 335.80 512.41 327.74 559.07 C 320.42 545.21 321.24 528.83 322.50 513.67 C 331.51 468.91 366.77 436.58 396.84 404.81 C 357.06 425.39 313.09 453.76 304.32 501.12 C 292.11 489.50 292.59 470.06 302.05 456.98 C 317.71 434.41 341.20 419.29 362.03 402.01 C 332.58 411.55 301.79 424.81 282.45 449.91 C 280.69 433.90 293.55 421.17 304.95 411.95 C 332.07 389.61 369.00 371.96 379.84 335.84 C 365.25 356.85 341.66 367.86 320.03 380.01 L 319.23 379.80 C 278.19 368.99 235.43 364.71 193.07 365.00 C 192.96 304.68 192.94 244.35 193.07 184.03 M 504.02 257.02 C 455.21 291.41 463.58 375.11 517.06 400.95 C 567.99 431.64 642.07 393.32 644.70 333.70 C 651.99 304.34 643.90 270.66 620.28 250.73 C 588.53 219.67 532.93 224.47 504.02 257.02 M 470.25 398.29 C 458.90 399.25 457.27 413.10 463.85 420.16 C 478.44 436.86 503.00 446.79 524.87 441.35 C 534.80 439.46 534.88 426.25 529.12 419.95 C 514.75 403.59 491.67 395.89 470.25 398.29 Z" />
<path fill="#000000" opacity="1.00" d=" M 504.02 257.02 C 532.93 224.47 588.53 219.67 620.28 250.73 C 643.90 270.66 651.99 304.34 644.70 333.70 C 632.11 378.41 579.24 407.14 535.48 387.44 C 483.48 369.48 466.79 296.69 504.02 257.02 M 529.40 255.05 L 529.21 255.72 C 503.54 271.80 491.12 306.66 503.12 334.96 C 516.57 374.59 571.10 392.28 603.78 365.27 C 636.02 345.78 641.53 296.91 617.09 268.90 C 596.49 243.40 556.84 237.01 529.40 255.05 Z" />
<path fill="#f6921e" opacity="1.00" d=" M 695.13 233.89 C 746.51 260.89 797.96 287.74 849.39 314.64 C 797.94 315.48 746.47 314.77 695.01 315.00 C 695.05 300.28 694.79 285.56 695.14 270.85 C 733.41 280.44 770.98 292.68 809.07 302.96 C 771.10 284.20 733.26 265.16 695.05 246.85 C 695.07 242.52 695.10 238.21 695.13 233.89 Z" />
<path fill="#ffffff" opacity="1.00" d=" M 529.40 255.05 C 556.84 237.01 596.49 243.40 617.09 268.90 C 641.53 296.91 636.02 345.78 603.78 365.27 C 570.96 368.94 537.55 348.88 526.26 317.78 C 518.36 297.63 521.74 275.40 529.21 255.72 L 529.40 255.05 M 558.91 315.30 C 556.96 329.57 570.34 342.68 584.57 340.86 C 599.18 340.22 610.42 324.39 606.07 310.50 C 602.99 322.15 584.47 321.78 583.12 309.64 C 580.48 301.67 588.86 298.81 593.18 294.62 C 578.37 288.38 558.58 298.38 558.91 315.30 Z" />
<path fill="#ffffff" opacity="1.00" d=" M 695.05 246.85 C 733.26 265.16 771.10 284.20 809.07 302.96 C 770.98 292.68 733.41 280.44 695.14 270.85 C 694.96 262.85 694.90 254.85 695.05 246.85 Z" />
<path fill="#d0d2d3" opacity="1.00" d=" M 503.12 334.96 C 491.12 306.66 503.54 271.80 529.21 255.72 C 521.74 275.40 518.36 297.63 526.26 317.78 C 537.55 348.88 570.96 368.94 603.78 365.27 C 571.10 392.28 516.57 374.59 503.12 334.96 Z" />
<path fill="#0594c1" opacity="1.00" d=" M 517.06 400.95 C 463.58 375.11 455.21 291.41 504.02 257.02 C 466.79 296.69 483.48 369.48 535.48 387.44 C 579.24 407.14 632.11 378.41 644.70 333.70 C 642.07 393.32 567.99 431.64 517.06 400.95 Z" />
<path fill="#000000" opacity="1.00" d=" M 558.91 315.30 C 558.58 298.38 578.37 288.38 593.18 294.62 C 588.86 298.81 580.48 301.67 583.12 309.64 C 584.47 321.78 602.99 322.15 606.07 310.50 C 610.42 324.39 599.18 340.22 584.57 340.86 C 570.34 342.68 556.96 329.57 558.91 315.30 Z" />
<path fill="#ffffff" opacity="1.00" d=" M 193.07 365.00 C 235.43 364.71 278.19 368.99 319.23 379.80 C 301.48 390.79 280.23 399.42 269.75 418.66 C 262.85 429.69 264.14 443.76 267.15 455.88 C 274.18 469.58 265.87 484.98 271.98 499.03 C 231.06 502.59 192.65 465.61 192.97 424.89 C 192.98 404.92 192.91 384.96 193.07 365.00 Z" />
<path fill="#000000" opacity="1.00" d=" M 470.25 398.29 C 491.67 395.89 514.75 403.59 529.12 419.95 C 534.88 426.25 534.80 439.46 524.87 441.35 C 503.00 446.79 478.44 436.86 463.85 420.16 C 457.27 413.10 458.90 399.25 470.25 398.29 Z" />
<path fill="#f6921e" opacity="1.00" d=" M 695.00 398.02 C 719.54 398.27 744.10 397.39 768.63 398.41 C 743.87 411.40 719.06 424.30 694.34 437.36 C 694.61 428.93 694.94 420.51 695.07 412.09 C 711.96 410.01 728.58 406.25 745.34 403.35 C 728.56 402.78 711.78 402.98 695.00 403.02 C 694.99 401.35 694.99 399.68 695.00 398.02 Z" />
<path fill="#ffffff" opacity="1.00" d=" M 695.00 403.02 C 711.78 402.98 728.56 402.78 745.34 403.35 C 728.58 406.25 711.96 410.01 695.07 412.09 C 694.98 409.03 695.03 406.05 695.00 403.02 Z" />
<path fill="#ffffff" opacity="1.00" d=" M 384.63 498.66 C 401.11 473.17 417.08 447.25 429.89 419.69 C 466.09 438.88 501.53 463.19 523.09 498.93 C 476.93 498.87 430.77 499.41 384.63 498.66 Z" />
<path fill="#f6921e" opacity="1.00" d=" M 266.35 526.83 L 267.31 526.85 C 275.06 527.01 282.82 526.93 290.58 526.79 C 285.78 539.87 273.45 548.83 265.31 559.36 C 270.87 583.32 258.63 610.66 235.57 620.15 C 232.91 614.09 229.73 608.30 227.02 602.27 C 236.97 595.47 246.81 585.26 245.00 572.05 C 229.89 578.96 213.95 584.52 197.28 585.90 C 196.32 579.02 196.63 572.04 195.14 565.24 C 222.63 562.92 249.83 549.26 266.35 526.83 Z" />
<path fill="#f6921e" opacity="1.00" d=" M 367.16 527.05 C 373.47 527.06 379.77 527.08 386.09 527.09 C 382.58 536.77 377.49 545.75 370.93 553.69 C 367.31 557.16 364.91 561.86 367.04 566.88 C 373.90 586.63 362.31 607.09 347.01 619.12 C 342.56 614.56 339.85 608.63 335.63 603.87 C 338.00 601.44 340.38 598.96 343.31 597.21 C 343.64 596.98 344.31 596.53 344.64 596.30 L 345.28 595.83 C 348.61 588.66 351.00 580.67 348.17 572.90 C 351.68 556.57 359.06 541.52 367.16 527.05 Z" />
<path fill="#00adee" opacity="1.00" d=" M 391.96 527.54 C 397.34 527.32 402.72 527.13 408.12 526.97 C 403.08 537.11 399.28 547.87 397.79 559.14 C 393.00 549.26 391.13 538.47 391.96 527.54 Z" />
<path fill="#f6921e" opacity="1.00" d=" M 303.87 574.21 C 306.58 573.45 309.29 572.70 312.00 571.95 C 315.96 577.26 320.46 582.15 325.36 586.62 C 319.80 588.75 314.34 591.27 308.39 592.07 C 306.47 586.23 304.90 580.27 303.87 574.21 Z" />
</svg>
