<?xml version="1.0" encoding="UTF-8" ?>
<!DOCTYPE svg PUBLIC "-//W3C//DTD SVG 1.1//EN" "http://www.w3.org/Graphics/SVG/1.1/DTD/svg11.dtd">
<svg width="927pt" height="633pt" viewBox="0 0 927 633" version="1.1" xmlns="http://www.w3.org/2000/svg">
<path fill="#000000" opacity="1.00" d=" M 575.68 11.74 C 596.29 2.12 622.87 14.95 629.78 36.26 C 636.37 52.16 631.86 69.39 627.03 85.03 C 671.27 100.12 700.04 147.54 695.16 193.70 C 771.04 233.02 847.22 272.16 922.33 312.81 C 846.56 313.26 770.78 312.85 695.01 313.01 C 694.98 339.34 694.97 365.66 695.01 391.99 C 741.13 392.22 787.26 391.59 833.37 392.28 C 784.01 419.42 733.00 444.37 683.51 471.49 C 667.87 501.22 637.02 522.21 603.68 525.88 C 530.99 526.61 458.24 525.05 385.57 526.63 C 378.13 526.92 370.70 527.11 363.27 527.22 C 339.17 526.84 315.07 527.04 290.97 526.99 C 281.80 526.95 272.64 526.84 263.48 526.74 C 213.78 524.07 169.89 482.56 166.14 432.61 C 165.51 399.91 166.57 367.18 165.73 334.48 C 139.94 363.54 94.94 388.31 57.14 366.83 C 45.63 360.85 31.19 345.12 42.32 332.34 C 57.62 318.25 78.62 313.16 98.17 307.96 C 75.96 303.86 53.70 296.40 35.83 282.18 C 15.47 267.19 4.41 240.25 9.03 215.35 C 13.03 200.01 31.68 198.61 44.41 202.42 C 88.85 214.92 127.56 241.38 165.96 266.04 C 166.05 239.33 166.03 212.62 165.93 185.91 C 163.68 155.63 178.32 126.13 199.80 105.46 C 198.07 79.33 207.48 49.18 229.66 33.85 C 237.84 49.37 243.08 74.19 261.60 78.98 C 266.67 62.17 273.99 43.32 289.66 33.85 C 295.60 50.16 304.53 65.26 315.32 78.82 C 381.58 79.18 447.85 79.00 514.11 78.91 C 504.97 75.72 496.25 71.15 488.32 65.63 C 480.49 60.30 484.82 47.70 492.88 44.87 C 520.64 26.01 557.96 33.71 583.92 52.10 C 577.19 40.49 568.33 24.83 575.68 11.74 M 283.98 72.05 C 283.32 74.35 282.68 76.65 282.05 78.96 L 286.95 78.96 C 286.31 76.65 285.67 74.35 285.02 72.05 L 283.98 72.05 M 236.07 147.93 C 257.34 184.92 289.54 214.17 323.05 239.94 C 279.29 228.90 241.18 200.29 215.20 163.76 C 205.78 172.95 204.68 187.84 210.95 199.07 C 223.11 221.27 246.07 234.09 266.72 247.28 C 293.91 262.32 322.11 275.62 351.24 286.44 C 308.33 286.03 265.17 272.57 229.16 248.95 C 226.79 271.18 235.64 294.70 253.00 309.00 C 284.05 333.74 326.46 337.49 364.65 338.32 C 333.24 343.88 299.16 342.54 268.04 333.94 C 241.69 327.26 218.73 306.34 212.53 279.50 C 207.39 262.25 207.78 244.04 208.71 226.25 C 202.80 220.38 197.57 213.89 193.51 206.61 C 192.32 259.36 193.26 312.21 193.08 365.00 C 193.16 388.12 192.37 411.27 193.52 434.38 C 198.69 471.24 234.30 502.12 271.95 499.04 C 355.66 498.90 439.38 499.11 523.09 498.94 C 547.35 499.05 571.62 499.05 595.88 498.99 C 636.05 498.65 671.07 460.04 668.08 420.09 C 667.86 341.42 668.12 262.75 667.95 184.09 C 670.36 143.88 635.56 107.63 595.97 105.92 C 490.92 106.20 385.87 105.76 280.82 106.14 C 293.25 119.45 307.67 130.66 320.76 143.29 L 321.72 143.25 L 320.78 143.06 C 376.10 189.60 439.54 247.71 437.36 326.15 C 433.69 295.00 417.84 266.70 398.22 242.78 C 357.62 193.28 302.00 159.81 255.73 116.27 C 243.10 103.67 230.89 89.77 224.74 72.74 C 213.67 97.67 223.60 125.51 236.07 147.93 M 199.91 150.02 C 203.18 146.94 209.39 143.99 207.13 138.77 C 203.54 141.63 201.79 145.97 199.91 150.02 M 695.11 213.94 C 695.06 218.23 695.03 222.53 695.04 226.84 C 694.90 234.84 694.96 242.84 695.13 250.85 C 694.80 265.56 695.03 280.28 695.01 295.00 C 746.42 294.57 797.87 295.88 849.25 294.34 C 797.66 267.92 746.53 240.67 695.11 213.94 M 695.00 408.02 C 694.99 409.69 694.99 411.36 694.99 413.03 C 695.03 416.07 695.00 419.05 695.10 422.11 C 694.71 430.89 693.70 439.64 692.26 448.31 C 717.80 435.21 743.12 421.64 768.62 408.44 C 744.10 407.35 719.54 408.29 695.00 408.02 Z" />
<path fill="#00adee" opacity="1.00" d=" M 283.98 72.05 L 285.02 72.05 C 285.67 74.35 286.31 76.65 286.95 78.96 L 282.05 78.96 C 282.68 76.65 283.32 74.35 283.98 72.05 Z" />
<path fill="#00adee" opacity="1.00" d=" M 236.07 147.93 C 223.60 125.51 213.67 97.67 224.74 72.74 C 230.89 89.77 243.10 103.67 255.73 116.27 C 302.00 159.81 357.62 193.28 398.22 242.78 C 417.84 266.70 433.69 295.00 437.36 326.15 C 439.54 247.71 376.10 189.60 320.78 143.06 L 321.72 143.25 C 413.40 142.72 505.11 143.06 596.80 143.07 C 625.64 143.42 652.01 160.74 667.95 184.09 C 668.12 262.75 667.86 341.42 668.08 420.09 C 671.07 460.04 636.05 498.65 595.88 498.99 C 571.62 499.05 547.35 499.05 523.09 498.94 C 505.44 469.52 477.84 447.62 448.76 430.24 C 371.83 385.40 281.72 364.63 193.08 365.00 C 193.26 312.21 192.32 259.36 193.51 206.61 C 197.57 213.89 202.80 220.38 208.71 226.25 C 207.78 244.04 207.39 262.25 212.53 279.50 C 218.73 306.34 241.69 327.26 268.04 333.94 C 299.16 342.54 333.24 343.88 364.65 338.32 C 326.46 337.49 284.05 333.74 253.00 309.00 C 235.64 294.70 226.79 271.18 229.16 248.95 C 265.17 272.57 308.33 286.03 351.24 286.44 C 322.11 275.62 293.91 262.32 266.72 247.28 C 246.07 234.09 223.11 221.27 210.95 199.07 C 204.68 187.84 205.78 172.95 215.20 163.76 C 241.18 200.29 279.29 228.90 323.05 239.94 C 289.54 214.17 257.34 184.92 236.07 147.93 M 504.02 257.02 C 480.69 273.54 468.76 304.45 472.17 332.62 C 474.41 377.12 517.43 414.57 561.83 411.09 C 603.59 411.08 642.33 375.57 644.71 333.71 C 658.81 287.25 623.90 235.05 575.89 229.94 C 549.29 227.53 521.99 237.00 504.02 257.02 M 470.23 398.29 C 458.35 399.45 457.13 414.36 464.71 421.28 C 479.68 437.00 503.52 446.99 525.14 441.35 C 534.73 439.06 534.86 426.26 529.12 419.95 C 514.66 403.77 491.74 395.51 470.23 398.29 Z" />
<path fill="#84d9f4" opacity="1.00" d=" M 280.82 106.14 C 385.87 105.76 490.92 106.20 595.97 105.92 C 635.56 107.63 670.36 143.88 667.95 184.09 C 652.01 160.74 625.64 143.42 596.80 143.07 C 505.11 143.06 413.40 142.72 321.72 143.25 L 320.76 143.29 C 307.67 130.66 293.25 119.45 280.82 106.14 Z" />
<path fill="#5890a2" opacity="1.00" d=" M 199.91 150.02 C 201.79 145.97 203.54 141.63 207.13 138.77 C 209.39 143.99 203.18 146.94 199.91 150.02 Z" />
<path fill="#f6921e" opacity="1.00" d=" M 695.11 213.94 C 746.53 240.67 797.66 267.92 849.25 294.34 C 797.87 295.88 746.42 294.57 695.01 295.00 C 695.03 280.28 694.80 265.56 695.13 250.85 C 733.41 260.43 770.98 272.67 809.07 282.97 C 771.10 264.17 733.24 245.17 695.04 226.84 C 695.03 222.53 695.06 218.23 695.11 213.94 Z" />
<path fill="#ffffff" opacity="1.00" d=" M 695.04 226.84 C 733.24 245.17 771.10 264.17 809.07 282.97 C 770.98 272.67 733.41 260.43 695.13 250.85 C 694.96 242.84 694.90 234.84 695.04 226.84 Z" />
<path fill="#000000" opacity="1.00" d=" M 504.02 257.02 C 521.99 237.00 549.29 227.53 575.89 229.94 C 623.90 235.05 658.81 287.25 644.71 333.71 C 634.28 367.91 600.88 395.43 564.21 392.96 C 530.55 393.27 498.47 369.92 488.23 337.88 C 477.63 310.46 485.20 278.91 504.02 257.02 M 529.39 255.04 L 529.20 255.71 C 503.56 271.81 491.12 306.65 503.12 334.96 C 516.88 375.06 570.86 391.67 604.37 365.53 L 603.44 365.51 C 628.48 350.29 639.19 315.72 628.37 288.54 C 615.25 249.42 563.66 231.64 529.39 255.04 Z" />
<path fill="#ffffff" opacity="1.00" d=" M 529.39 255.04 C 563.66 231.64 615.25 249.42 628.37 288.54 C 639.19 315.72 628.48 350.29 603.44 365.51 C 570.75 368.58 537.49 348.88 526.27 317.77 C 518.35 297.63 521.76 275.40 529.20 255.71 L 529.39 255.04 M 562.96 330.92 C 576.72 352.69 614.21 335.39 606.03 310.55 C 602.99 321.75 585.39 321.98 583.26 310.41 C 580.63 302.78 587.90 298.31 593.30 294.83 C 571.44 284.06 548.34 311.58 562.96 330.92 Z" />
<path fill="#d0d2d3" opacity="1.00" d=" M 503.12 334.96 C 491.12 306.65 503.56 271.81 529.20 255.71 C 521.76 275.40 518.35 297.63 526.27 317.77 C 537.49 348.88 570.75 368.58 603.44 365.51 L 604.37 365.53 C 570.86 391.67 516.88 375.06 503.12 334.96 Z" />
<path fill="#0594c1" opacity="1.00" d=" M 472.17 332.62 C 468.76 304.45 480.69 273.54 504.02 257.02 C 485.20 278.91 477.63 310.46 488.23 337.88 C 498.47 369.92 530.55 393.27 564.21 392.96 C 600.88 395.43 634.28 367.91 644.71 333.71 C 642.33 375.57 603.59 411.08 561.83 411.09 C 517.43 414.57 474.41 377.12 472.17 332.62 Z" />
<path fill="#000000" opacity="1.00" d=" M 562.96 330.92 C 548.34 311.58 571.44 284.06 593.30 294.83 C 587.90 298.31 580.63 302.78 583.26 310.41 C 585.39 321.98 602.99 321.75 606.03 310.55 C 614.21 335.39 576.72 352.69 562.96 330.92 Z" />
<path fill="#ffffff" opacity="1.00" d=" M 193.08 365.00 C 281.72 364.63 371.83 385.40 448.76 430.24 C 477.84 447.62 505.44 469.52 523.09 498.94 C 439.38 499.11 355.66 498.90 271.95 499.04 C 234.30 502.12 198.69 471.24 193.52 434.38 C 192.37 411.27 193.16 388.12 193.08 365.00 Z" />
<path fill="#000000" opacity="1.00" d=" M 470.23 398.29 C 491.74 395.51 514.66 403.77 529.12 419.95 C 534.86 426.26 534.73 439.06 525.14 441.35 C 503.52 446.99 479.68 437.00 464.71 421.28 C 457.13 414.36 458.35 399.45 470.23 398.29 Z" />
<path fill="#f6921e" opacity="1.00" d=" M 695.00 408.02 C 719.54 408.29 744.10 407.35 768.62 408.44 C 743.12 421.64 717.80 435.21 692.26 448.31 C 693.70 439.64 694.71 430.89 695.10 422.11 C 711.97 419.95 728.60 416.30 745.34 413.33 C 728.55 412.78 711.77 412.97 694.99 413.03 C 694.99 411.36 694.99 409.69 695.00 408.02 Z" />
<path fill="#ffffff" opacity="1.00" d=" M 694.99 413.03 C 711.77 412.97 728.55 412.78 745.34 413.33 C 728.60 416.30 711.97 419.95 695.10 422.11 C 695.00 419.05 695.03 416.07 694.99 413.03 Z" />
<path fill="#f6921e" opacity="1.00" d=" M 189.28 551.17 C 215.97 552.52 242.72 543.45 263.48 526.74 C 272.64 526.84 281.80 526.95 290.97 526.99 C 282.02 538.58 270.70 547.94 258.24 555.54 C 262.50 580.11 244.33 603.11 222.15 610.95 C 216.76 607.21 216.53 598.29 214.30 592.10 C 225.54 587.35 236.31 578.11 237.08 565.13 C 220.94 568.47 204.91 573.12 188.22 572.18 C 188.58 565.17 188.92 558.16 189.28 551.17 Z" />
<path fill="#f6921e" opacity="1.00" d=" M 363.27 527.22 C 370.70 527.11 378.13 526.92 385.57 526.63 C 381.19 539.86 368.94 548.22 360.24 558.44 C 365.28 580.42 352.50 603.86 332.42 613.20 C 330.39 607.62 325.53 602.42 325.34 596.44 C 334.19 590.33 342.33 581.54 341.88 569.97 C 327.76 574.46 314.21 580.77 299.05 581.15 C 297.09 575.05 296.50 568.60 296.23 562.23 C 322.02 560.68 347.83 548.33 363.27 527.22 Z" />
</svg>
