<?xml version="1.0" encoding="UTF-8" ?>
<!DOCTYPE svg PUBLIC "-//W3C//DTD SVG 1.1//EN" "http://www.w3.org/Graphics/SVG/1.1/DTD/svg11.dtd">
<svg width="927pt" height="633pt" viewBox="0 0 927 633" version="1.1" xmlns="http://www.w3.org/2000/svg">
<path fill="#000000" opacity="1.00" d=" M 576.19 11.18 C 595.66 3.43 620.06 13.39 628.25 32.69 C 636.71 49.27 632.43 68.29 627.02 85.04 C 671.28 100.11 700.04 147.56 695.16 193.73 C 771.06 232.99 847.20 272.18 922.33 312.80 C 846.56 313.28 770.78 312.85 695.01 313.01 C 694.99 339.33 694.98 365.66 695.01 391.99 C 741.13 392.23 787.27 391.57 833.38 392.30 C 783.97 419.39 733.02 444.40 683.50 471.48 C 667.94 501.30 637.01 522.15 603.69 525.88 C 548.22 526.33 492.72 525.61 437.25 526.21 C 425.40 548.09 414.47 571.51 415.61 597.09 C 393.74 590.47 375.70 570.33 370.76 548.01 C 376.95 541.89 381.63 534.51 386.10 527.10 C 379.78 527.04 373.47 527.02 367.16 527.06 C 355.16 548.41 344.65 571.86 345.68 596.94 C 340.61 596.09 335.88 593.97 331.37 591.58 C 325.89 587.19 320.66 582.44 316.26 576.95 C 312.43 572.27 308.43 567.64 305.80 562.15 C 299.90 551.15 296.11 538.95 296.87 526.33 C 295.18 526.50 291.81 526.85 290.13 527.02 C 281.25 527.05 272.39 526.79 263.52 526.77 C 215.96 524.05 172.36 485.79 167.18 437.78 C 164.36 403.46 167.10 368.95 165.68 334.57 C 139.85 363.55 94.92 388.31 57.14 366.83 C 45.64 360.84 31.17 345.12 42.33 332.34 C 57.63 318.25 78.63 313.15 98.17 307.95 C 75.95 303.93 53.71 296.37 35.83 282.18 C 15.47 267.19 4.41 240.25 9.03 215.35 C 15.48 194.84 41.56 200.18 56.82 206.23 C 96.14 220.12 131.18 243.52 165.95 266.05 C 166.17 234.43 165.79 202.81 166.07 171.19 C 171.05 123.37 212.37 82.55 260.48 79.25 C 345.01 78.57 429.57 79.32 514.11 78.90 C 504.95 75.76 496.26 71.12 488.32 65.63 C 480.49 60.31 484.82 47.69 492.89 44.87 C 520.65 25.99 557.96 33.73 583.94 52.10 C 577.02 40.24 567.97 24.32 576.19 11.18 M 193.09 184.02 C 192.92 244.34 192.97 304.67 193.07 365.00 C 192.91 384.96 192.98 404.93 192.98 424.89 C 192.74 465.59 231.06 502.62 272.05 499.01 C 265.71 485.13 274.42 469.59 266.81 456.18 C 264.37 446.48 264.33 436.03 266.13 426.24 C 274.45 402.38 299.11 392.00 319.01 379.77 C 341.55 369.18 364.78 356.44 379.86 335.85 C 368.96 371.97 332.13 389.63 305.02 412.02 C 293.48 421.08 280.75 433.92 282.44 449.89 C 302.18 424.51 333.59 411.23 363.32 401.31 C 341.73 418.44 318.21 434.20 301.99 456.95 C 292.72 470.06 292.06 489.35 304.22 501.02 C 313.21 453.70 356.99 425.29 396.84 404.82 C 367.69 435.64 333.85 466.69 323.47 509.49 C 321.01 525.93 319.85 543.93 327.78 559.08 C 339.22 496.82 395.85 457.76 423.80 403.80 C 437.23 380.32 444.47 352.52 437.09 325.74 C 449.15 355.58 441.80 390.22 429.66 419.05 C 417.85 447.24 400.97 472.93 384.63 498.65 C 430.77 499.42 476.93 498.86 523.09 498.93 C 545.72 499.12 568.36 498.91 591.00 499.08 C 629.55 501.14 665.56 468.05 667.97 429.81 C 668.00 347.90 668.07 265.98 667.93 184.07 C 670.34 144.17 636.12 108.23 596.89 105.95 C 486.97 106.05 377.05 105.99 267.13 105.99 C 226.81 106.22 190.80 143.61 193.09 184.02 M 695.13 213.90 C 695.07 218.22 695.05 222.54 695.06 226.87 C 694.93 234.86 694.98 242.86 695.13 250.86 C 694.82 265.57 695.03 280.28 695.01 295.00 C 746.41 294.56 797.87 295.88 849.24 294.34 C 797.67 267.90 746.50 240.71 695.13 213.90 M 695.00 408.01 C 694.99 409.68 694.99 411.35 694.99 413.02 C 695.03 416.06 695.01 419.05 695.10 422.12 C 694.71 430.90 693.74 439.65 692.25 448.31 C 717.78 435.17 743.15 421.67 768.64 408.48 C 744.12 407.28 719.54 408.34 695.00 408.01 M 391.88 527.52 C 391.18 538.43 392.99 549.25 397.80 559.11 C 398.98 547.93 403.70 537.72 407.29 527.21 C 403.44 527.28 395.73 527.44 391.88 527.52 Z" />
<path fill="#84d9f4" opacity="1.00" d=" M 193.09 184.02 C 190.80 143.61 226.81 106.22 267.13 105.99 C 377.05 105.99 486.97 106.05 596.89 105.95 C 636.12 108.23 670.34 144.17 667.93 184.07 C 651.40 159.42 623.01 142.17 592.83 143.08 C 484.58 142.86 376.31 143.10 268.06 142.97 C 237.87 141.79 209.79 159.69 193.09 184.02 Z" />
<path fill="#00adee" opacity="1.00" d=" M 193.09 184.02 C 209.79 159.69 237.87 141.79 268.06 142.97 C 376.31 143.10 484.58 142.86 592.83 143.08 C 623.01 142.17 651.40 159.42 667.93 184.07 C 668.07 265.98 668.00 347.90 667.97 429.81 C 665.56 468.05 629.55 501.14 591.00 499.08 C 568.36 498.91 545.72 499.12 523.09 498.93 C 501.63 462.69 465.43 439.32 429.66 419.05 C 441.80 390.22 449.15 355.58 437.09 325.74 C 444.47 352.52 437.23 380.32 423.80 403.80 C 395.85 457.76 339.22 496.82 327.78 559.08 C 319.85 543.93 321.01 525.93 323.47 509.49 C 333.85 466.69 367.69 435.64 396.84 404.82 C 356.99 425.29 313.21 453.70 304.22 501.02 C 292.06 489.35 292.72 470.06 301.99 456.95 C 318.21 434.20 341.73 418.44 363.32 401.31 C 333.59 411.23 302.18 424.51 282.44 449.89 C 280.75 433.92 293.48 421.08 305.02 412.02 C 332.13 389.63 368.96 371.97 379.86 335.85 C 364.78 356.44 341.55 369.18 319.01 379.77 C 278.02 368.94 235.43 364.38 193.07 365.00 C 192.97 304.67 192.92 244.34 193.09 184.02 M 504.02 257.02 C 470.16 281.22 461.92 332.72 483.09 367.89 C 498.62 395.32 530.15 413.35 561.83 411.09 C 603.63 411.08 642.29 375.54 644.76 333.68 C 659.08 285.62 621.21 231.36 571.06 229.85 C 545.87 228.35 520.99 238.43 504.02 257.02 M 470.23 398.29 C 458.90 399.30 457.26 413.11 463.86 420.16 C 478.50 436.95 503.17 446.86 525.15 441.35 C 535.08 438.92 534.73 425.64 528.67 419.34 C 514.12 403.56 491.43 395.89 470.23 398.29 Z" />
<path fill="#f6921e" opacity="1.00" d=" M 695.13 213.90 C 746.50 240.71 797.67 267.90 849.24 294.34 C 797.87 295.88 746.41 294.56 695.01 295.00 C 695.03 280.28 694.82 265.57 695.13 250.86 C 733.41 260.42 770.98 272.68 809.07 282.96 C 771.10 264.20 733.27 245.15 695.06 226.87 C 695.05 222.54 695.07 218.22 695.13 213.90 Z" />
<path fill="#ffffff" opacity="1.00" d=" M 695.06 226.87 C 733.27 245.15 771.10 264.20 809.07 282.96 C 770.98 272.68 733.41 260.42 695.13 250.86 C 694.98 242.86 694.93 234.86 695.06 226.87 Z" />
<path fill="#000000" opacity="1.00" d=" M 504.02 257.02 C 520.99 238.43 545.87 228.35 571.06 229.85 C 621.21 231.36 659.08 285.62 644.76 333.68 C 634.24 367.86 600.93 395.44 564.20 392.97 C 530.56 393.26 498.46 369.92 488.23 337.88 C 477.61 310.45 485.22 278.91 504.02 257.02 M 529.39 255.04 L 529.21 255.71 C 503.56 271.81 491.11 306.66 503.13 334.96 C 516.89 375.08 570.83 391.64 604.39 365.55 L 603.44 365.52 C 628.47 350.28 639.21 315.72 628.37 288.54 C 615.25 249.42 563.66 231.64 529.39 255.04 Z" />
<path fill="#ffffff" opacity="1.00" d=" M 529.39 255.04 C 563.66 231.64 615.25 249.42 628.37 288.54 C 639.21 315.72 628.47 350.28 603.44 365.52 C 563.95 369.88 524.29 338.60 522.08 298.54 C 519.98 283.65 524.58 269.53 529.21 255.71 L 529.39 255.04 M 562.97 330.92 C 576.72 352.70 614.25 335.36 606.01 310.54 C 603.02 321.76 585.36 321.98 583.26 310.41 C 580.65 302.80 587.87 298.27 593.31 294.85 C 571.46 284.01 548.31 311.61 562.97 330.92 Z" />
<path fill="#d0d2d3" opacity="1.00" d=" M 503.13 334.96 C 491.11 306.66 503.56 271.81 529.21 255.71 C 524.58 269.53 519.98 283.65 522.08 298.54 C 524.29 338.60 563.95 369.88 603.44 365.52 L 604.39 365.55 C 570.83 391.64 516.89 375.08 503.13 334.96 Z" />
<path fill="#0594c1" opacity="1.00" d=" M 483.09 367.89 C 461.92 332.72 470.16 281.22 504.02 257.02 C 485.22 278.91 477.61 310.45 488.23 337.88 C 498.46 369.92 530.56 393.26 564.20 392.97 C 600.93 395.44 634.24 367.86 644.76 333.68 C 642.29 375.54 603.63 411.08 561.83 411.09 C 530.15 413.35 498.62 395.32 483.09 367.89 Z" />
<path fill="#000000" opacity="1.00" d=" M 562.97 330.92 C 548.31 311.61 571.46 284.01 593.31 294.85 C 587.87 298.27 580.65 302.80 583.26 310.41 C 585.36 321.98 603.02 321.76 606.01 310.54 C 614.25 335.36 576.72 352.70 562.97 330.92 Z" />
<path fill="#ffffff" opacity="1.00" d=" M 193.07 365.00 C 235.43 364.38 278.02 368.94 319.01 379.77 C 299.11 392.00 274.45 402.38 266.13 426.24 C 264.33 436.03 264.37 446.48 266.81 456.18 C 274.42 469.59 265.71 485.13 272.05 499.01 C 231.06 502.62 192.74 465.59 192.98 424.89 C 192.98 404.93 192.91 384.96 193.07 365.00 Z" />
<path fill="#000000" opacity="1.00" d=" M 470.23 398.29 C 491.43 395.89 514.12 403.56 528.67 419.34 C 534.73 425.64 535.08 438.92 525.15 441.35 C 503.17 446.86 478.50 436.95 463.86 420.16 C 457.26 413.11 458.90 399.30 470.23 398.29 Z" />
<path fill="#f6921e" opacity="1.00" d=" M 695.00 408.01 C 719.54 408.34 744.12 407.28 768.64 408.48 C 743.15 421.67 717.78 435.17 692.25 448.31 C 693.74 439.65 694.71 430.90 695.10 422.12 C 711.98 419.95 728.59 416.29 745.34 413.33 C 728.55 412.81 711.77 412.97 694.99 413.02 C 694.99 411.35 694.99 409.68 695.00 408.01 Z" />
<path fill="#ffffff" opacity="1.00" d=" M 694.99 413.02 C 711.77 412.97 728.55 412.81 745.34 413.33 C 728.59 416.29 711.98 419.95 695.10 422.12 C 695.01 419.05 695.03 416.06 694.99 413.02 Z" />
<path fill="#ffffff" opacity="1.00" d=" M 384.63 498.65 C 400.97 472.93 417.85 447.24 429.66 419.05 C 465.43 439.32 501.63 462.69 523.09 498.93 C 476.93 498.86 430.77 499.42 384.63 498.65 Z" />
<path fill="#f6921e" opacity="1.00" d=" M 189.26 551.17 C 215.99 552.56 242.69 543.40 263.52 526.77 C 272.39 526.79 281.25 527.05 290.13 527.02 L 291.08 527.03 C 281.94 538.45 270.81 547.99 258.25 555.49 C 262.33 578.76 246.42 599.71 226.44 609.54 C 216.84 614.99 216.98 598.30 214.28 592.09 C 225.56 587.39 236.31 578.09 237.08 565.13 C 220.95 568.49 204.90 573.11 188.21 572.18 C 188.59 565.17 188.92 558.16 189.26 551.17 Z" />
<path fill="#f6921e" opacity="1.00" d=" M 367.16 527.06 C 373.47 527.02 379.78 527.04 386.10 527.10 C 381.63 534.51 376.95 541.89 370.76 548.01 C 367.56 552.55 359.07 555.16 360.29 561.82 C 364.64 582.78 351.16 604.33 332.42 613.20 C 329.10 605.93 319.94 595.82 331.37 591.58 C 335.88 593.97 340.61 596.09 345.68 596.94 C 344.65 571.86 355.16 548.41 367.16 527.06 Z" />
<path fill="#00adee" opacity="1.00" d=" M 391.88 527.52 C 395.73 527.44 403.44 527.28 407.29 527.21 C 403.70 537.72 398.98 547.93 397.80 559.11 C 392.99 549.25 391.18 538.43 391.88 527.52 Z" />
<path fill="#f6921e" opacity="1.00" d=" M 296.19 562.03 C 299.37 562.01 302.61 562.07 305.80 562.15 C 308.43 567.64 312.43 572.27 316.26 576.95 C 311.58 581.08 304.97 580.18 299.18 581.18 C 296.89 575.07 296.63 568.46 296.19 562.03 Z" />
</svg>
