<?xml version="1.0" encoding="UTF-8" ?>
<!DOCTYPE svg PUBLIC "-//W3C//DTD SVG 1.1//EN" "http://www.w3.org/Graphics/SVG/1.1/DTD/svg11.dtd">
<svg width="927pt" height="633pt" viewBox="0 0 927 633" version="1.1" xmlns="http://www.w3.org/2000/svg">
<path fill="#000000" opacity="1.00" d=" M 576.19 11.18 C 595.66 3.43 620.07 13.39 628.25 32.70 C 636.74 49.26 632.41 68.26 627.04 85.01 C 668.60 99.42 697.89 142.75 694.93 186.72 C 694.45 189.41 694.37 193.39 697.46 194.57 C 772.36 233.92 847.65 272.64 922.29 312.44 C 846.58 313.78 770.77 312.58 695.02 313.02 C 694.98 339.34 694.96 365.66 695.02 391.98 C 741.12 392.19 787.22 391.68 833.32 392.20 C 784.14 419.47 732.97 444.37 683.48 471.47 C 667.92 501.25 637.01 522.18 603.70 525.88 C 530.99 526.59 458.23 525.08 385.54 526.61 C 378.12 526.89 370.70 527.07 363.29 527.20 C 339.91 526.91 316.52 526.94 293.15 527.04 C 291.79 535.06 290.93 543.15 289.70 551.20 C 284.01 549.72 278.50 547.52 273.26 544.86 C 267.03 541.27 261.04 537.10 256.20 531.75 C 254.99 530.16 252.58 526.98 251.37 525.40 C 206.52 517.14 169.76 478.40 166.13 432.62 C 165.52 399.92 166.57 367.19 165.73 334.49 C 149.65 353.02 127.93 366.83 104.23 373.30 C 81.03 379.56 52.35 371.47 40.04 349.82 C 36.24 343.68 38.42 336.07 43.33 331.28 C 58.76 318.10 79.01 312.98 98.18 307.96 C 75.96 303.86 53.70 296.40 35.83 282.18 C 15.47 267.19 4.40 240.24 9.03 215.34 C 15.68 194.53 42.11 200.36 57.55 206.48 C 96.60 220.41 131.39 243.70 165.99 266.02 C 166.15 234.41 165.80 202.79 166.06 171.18 C 171.05 123.35 212.37 82.58 260.47 79.23 C 345.01 78.61 429.58 79.30 514.12 78.91 C 501.92 73.34 476.65 66.90 486.97 49.27 C 514.50 25.42 556.18 32.21 583.95 52.10 C 577.02 40.24 567.97 24.33 576.19 11.18 M 193.05 184.08 C 192.98 244.38 192.93 304.69 193.09 365.00 C 193.15 388.08 192.38 411.21 193.50 434.27 C 197.86 462.53 218.97 486.89 245.90 496.12 C 232.39 480.96 225.18 459.73 230.31 439.59 C 233.79 427.39 225.40 415.74 228.05 403.34 C 228.02 385.44 244.83 374.09 260.12 368.79 C 299.56 356.68 344.71 360.33 379.98 335.92 C 346.84 369.52 295.11 367.53 257.38 393.25 C 248.15 398.96 247.07 410.16 248.92 419.87 C 274.15 391.02 313.82 381.70 350.22 377.11 C 320.84 390.17 290.72 403.63 267.21 426.20 C 256.70 436.72 246.52 451.47 251.06 467.18 C 269.73 430.58 307.86 410.66 346.13 401.11 C 317.43 421.10 286.44 442.09 270.37 474.32 C 264.35 487.20 265.49 505.97 276.99 514.72 C 280.87 502.18 283.44 487.19 291.99 475.98 C 317.87 434.75 364.94 416.22 401.27 386.28 C 420.09 371.36 434.73 349.96 437.62 325.76 C 446.81 357.25 429.62 389.50 405.14 408.81 C 371.41 437.85 328.62 459.16 305.74 498.80 C 378.19 499.24 450.64 498.94 523.10 498.95 C 548.94 498.94 574.80 499.29 600.64 498.81 C 638.82 495.38 670.96 458.51 668.07 420.09 C 667.86 341.43 668.13 262.76 667.94 184.10 C 670.35 144.20 636.14 108.23 596.90 105.95 C 486.97 106.04 377.04 106.02 267.11 105.96 C 226.75 106.25 190.82 143.64 193.05 184.08 M 695.08 214.00 C 695.02 218.26 694.99 222.53 695.02 226.80 C 694.86 234.82 694.93 242.83 695.11 250.85 C 694.77 265.56 695.04 280.27 695.02 294.99 C 746.42 294.57 797.89 295.89 849.26 294.34 C 797.63 267.98 746.58 240.58 695.08 214.00 M 695.00 408.03 C 694.99 409.70 694.98 411.37 694.99 413.05 C 695.02 416.07 694.99 419.04 695.09 422.09 C 694.68 430.87 693.76 439.63 692.23 448.29 C 717.78 435.21 743.14 421.67 768.64 408.47 C 744.12 407.29 719.54 408.31 695.00 408.03 Z" />
<path fill="#84d9f4" opacity="1.00" d=" M 193.05 184.08 C 190.82 143.64 226.75 106.25 267.11 105.96 C 377.04 106.02 486.97 106.04 596.90 105.95 C 636.14 108.23 670.35 144.20 667.94 184.10 C 652.24 160.89 626.21 143.77 597.65 143.26 C 487.76 142.58 377.86 143.31 267.97 142.90 C 237.80 141.80 209.73 159.75 193.05 184.08 Z" />
<path fill="#00adee" opacity="1.00" d=" M 193.05 184.08 C 209.73 159.75 237.80 141.80 267.97 142.90 C 377.86 143.31 487.76 142.58 597.65 143.26 C 626.21 143.77 652.24 160.89 667.94 184.10 C 668.13 262.76 667.86 341.43 668.07 420.09 C 670.96 458.51 638.82 495.38 600.64 498.81 C 574.80 499.29 548.94 498.94 523.10 498.95 C 496.17 456.12 451.26 427.31 405.14 408.81 C 429.62 389.50 446.81 357.25 437.62 325.76 C 434.73 349.96 420.09 371.36 401.27 386.28 C 364.94 416.22 317.87 434.75 291.99 475.98 C 283.44 487.19 280.87 502.18 276.99 514.72 C 265.49 505.97 264.35 487.20 270.37 474.32 C 286.44 442.09 317.43 421.10 346.13 401.11 C 307.86 410.66 269.73 430.58 251.06 467.18 C 246.52 451.47 256.70 436.72 267.21 426.20 C 290.72 403.63 320.84 390.17 350.22 377.11 C 313.82 381.70 274.15 391.02 248.92 419.87 C 247.07 410.16 248.15 398.96 257.38 393.25 C 295.11 367.53 346.84 369.52 379.98 335.92 C 344.71 360.33 299.56 356.68 260.12 368.79 C 237.90 365.93 215.50 364.26 193.09 365.00 C 192.93 304.69 192.98 244.38 193.05 184.08 M 504.02 257.03 C 470.16 281.19 461.92 332.72 483.09 367.89 C 498.63 395.32 530.15 413.35 561.84 411.09 C 603.60 411.08 642.32 375.56 644.72 333.72 C 657.30 291.29 630.12 243.78 587.72 232.27 C 558.02 224.62 524.61 234.06 504.02 257.03 M 470.07 398.50 C 459.22 399.70 456.69 413.72 464.26 420.69 C 479.09 436.87 503.34 447.01 525.15 441.34 C 535.08 438.91 534.74 425.63 528.66 419.34 C 514.01 403.70 491.41 395.26 470.07 398.50 Z" />
<path fill="#f6921e" opacity="1.00" d=" M 695.08 214.00 C 746.58 240.58 797.63 267.98 849.26 294.34 C 797.89 295.89 746.42 294.57 695.02 294.99 C 695.04 280.27 694.77 265.56 695.11 250.85 C 733.40 260.44 770.98 272.65 809.06 282.99 C 771.11 264.14 733.20 245.19 695.02 226.80 C 694.99 222.53 695.02 218.26 695.08 214.00 Z" />
<path fill="#ffffff" opacity="1.00" d=" M 695.02 226.80 C 733.20 245.19 771.11 264.14 809.06 282.99 C 770.98 272.65 733.40 260.44 695.11 250.85 C 694.93 242.83 694.86 234.82 695.02 226.80 Z" />
<path fill="#000000" opacity="1.00" d=" M 504.02 257.03 C 524.61 234.06 558.02 224.62 587.72 232.27 C 630.12 243.78 657.30 291.29 644.72 333.72 C 634.25 367.90 600.88 395.43 564.20 392.97 C 530.56 393.26 498.45 369.92 488.24 337.87 C 477.59 310.46 485.22 278.91 504.02 257.03 M 529.40 255.06 L 529.21 255.73 C 503.54 271.78 491.12 306.67 503.13 334.95 C 516.87 375.07 570.86 391.66 604.38 365.54 L 603.45 365.50 C 631.61 348.49 640.75 307.94 624.33 279.67 C 607.21 246.14 560.65 234.01 529.40 255.06 Z" />
<path fill="#ffffff" opacity="1.00" d=" M 529.40 255.06 C 560.65 234.01 607.21 246.14 624.33 279.67 C 640.75 307.94 631.61 348.49 603.45 365.50 C 570.75 368.58 537.50 348.88 526.27 317.77 C 518.35 297.64 521.74 275.40 529.21 255.73 L 529.40 255.06 M 558.91 315.29 C 556.63 331.09 573.43 345.08 588.63 340.03 C 601.42 337.60 609.67 322.85 605.92 310.55 C 603.03 321.83 585.33 321.91 583.26 310.41 C 580.63 302.78 587.90 298.28 593.32 294.84 C 578.52 288.22 558.60 298.33 558.91 315.29 Z" />
<path fill="#d0d2d3" opacity="1.00" d=" M 503.13 334.95 C 491.12 306.67 503.54 271.78 529.21 255.73 C 521.74 275.40 518.35 297.64 526.27 317.77 C 537.50 348.88 570.75 368.58 603.45 365.50 L 604.38 365.54 C 570.86 391.66 516.87 375.07 503.13 334.95 Z" />
<path fill="#0594c1" opacity="1.00" d=" M 483.09 367.89 C 461.92 332.72 470.16 281.19 504.02 257.03 C 485.22 278.91 477.59 310.46 488.24 337.87 C 498.45 369.92 530.56 393.26 564.20 392.97 C 600.88 395.43 634.25 367.90 644.72 333.72 C 642.32 375.56 603.60 411.08 561.84 411.09 C 530.15 413.35 498.63 395.32 483.09 367.89 Z" />
<path fill="#000000" opacity="1.00" d=" M 558.91 315.29 C 558.60 298.33 578.52 288.22 593.32 294.84 C 587.90 298.28 580.63 302.78 583.26 310.41 C 585.33 321.91 603.03 321.83 605.92 310.55 C 609.67 322.85 601.42 337.60 588.63 340.03 C 573.43 345.08 556.63 331.09 558.91 315.29 Z" />
<path fill="#ffffff" opacity="1.00" d=" M 193.09 365.00 C 215.50 364.26 237.90 365.93 260.12 368.79 C 244.83 374.09 228.02 385.44 228.05 403.34 C 225.40 415.74 233.79 427.39 230.31 439.59 C 225.18 459.73 232.39 480.96 245.90 496.12 C 218.97 486.89 197.86 462.53 193.50 434.27 C 192.38 411.21 193.15 388.08 193.09 365.00 Z" />
<path fill="#000000" opacity="1.00" d=" M 470.07 398.50 C 491.41 395.26 514.01 403.70 528.66 419.34 C 534.74 425.63 535.08 438.91 525.15 441.34 C 503.34 447.01 479.09 436.87 464.26 420.69 C 456.69 413.72 459.22 399.70 470.07 398.50 Z" />
<path fill="#f6921e" opacity="1.00" d=" M 695.00 408.03 C 719.54 408.31 744.12 407.29 768.64 408.47 C 743.14 421.67 717.78 435.21 692.23 448.29 C 693.76 439.63 694.68 430.87 695.09 422.09 C 711.97 419.96 728.60 416.31 745.35 413.33 C 728.56 412.67 711.77 413.03 694.99 413.05 C 694.98 411.37 694.99 409.70 695.00 408.03 Z" />
<path fill="#ffffff" opacity="1.00" d=" M 305.74 498.80 C 328.62 459.16 371.41 437.85 405.14 408.81 C 451.26 427.31 496.17 456.12 523.10 498.95 C 450.64 498.94 378.19 499.24 305.74 498.80 Z" />
<path fill="#ffffff" opacity="1.00" d=" M 694.99 413.05 C 711.77 413.03 728.56 412.67 745.35 413.33 C 728.60 416.31 711.97 419.96 695.09 422.09 C 694.99 419.04 695.02 416.07 694.99 413.05 Z" />
<path fill="#f6921e" opacity="1.00" d=" M 363.29 527.20 C 370.70 527.07 378.12 526.89 385.54 526.61 C 381.28 539.83 368.96 548.24 360.21 558.41 C 365.30 580.33 352.51 603.96 332.44 613.17 C 329.71 607.68 326.67 602.27 324.94 596.36 C 334.30 590.79 342.20 581.48 341.89 570.00 C 327.76 574.35 314.26 580.87 299.09 581.13 C 296.90 575.08 296.58 568.57 296.24 562.22 C 322.04 560.69 347.85 548.31 363.29 527.20 Z" />
<path fill="#f6921e" opacity="1.00" d=" M 189.27 551.17 C 212.79 552.04 237.12 545.83 256.20 531.75 C 261.04 537.10 267.03 541.27 273.26 544.86 C 268.35 548.59 263.28 552.11 258.21 555.63 C 262.51 580.17 244.27 603.10 222.18 610.96 C 216.62 607.22 216.57 598.30 214.31 592.11 C 225.51 587.33 236.36 578.11 237.07 565.13 C 220.93 568.44 204.91 573.16 188.21 572.17 C 188.56 565.17 188.91 558.16 189.27 551.17 Z" />
</svg>
