<?xml version="1.0" encoding="UTF-8" ?>
<!DOCTYPE svg PUBLIC "-//W3C//DTD SVG 1.1//EN" "http://www.w3.org/Graphics/SVG/1.1/DTD/svg11.dtd">
<svg width="927pt" height="633pt" viewBox="0 0 927 633" version="1.1" xmlns="http://www.w3.org/2000/svg">
<path fill="#000000" opacity="1.00" d=" M 590.75 6.46 C 613.76 0.21 638.68 19.99 639.93 43.48 C 641.54 58.47 636.74 73.30 629.08 86.01 C 669.94 100.61 697.75 143.92 695.06 187.02 C 696.20 195.58 692.60 205.88 696.11 213.69 C 771.24 253.83 847.63 291.99 922.32 332.83 C 846.55 333.23 770.78 332.87 695.01 333.01 C 694.98 349.33 694.96 365.66 695.01 381.99 C 741.13 382.23 787.26 381.58 833.37 382.29 C 785.86 408.28 737.01 432.60 689.21 458.26 C 676.59 494.66 641.87 521.78 603.70 525.88 C 531.57 526.35 459.42 525.57 387.30 526.25 C 379.94 526.63 372.60 527.04 365.25 527.25 C 340.51 526.85 315.77 526.96 291.04 527.08 C 283.11 526.98 275.19 527.03 267.28 526.82 C 216.11 526.18 169.97 483.85 166.13 432.62 C 165.69 397.37 166.25 362.10 165.92 326.85 C 138.33 350.57 100.34 369.99 63.45 357.53 C 48.38 350.49 29.63 337.20 33.83 318.32 C 48.69 298.97 76.33 299.97 98.27 295.16 C 75.46 289.17 53.69 277.84 37.25 260.75 C 19.67 241.14 10.02 209.39 24.73 185.78 C 35.16 175.59 51.99 181.16 63.61 186.41 C 101.78 204.63 134.33 232.43 165.93 260.11 C 166.27 230.17 165.66 200.23 166.15 170.29 C 171.58 122.83 212.67 82.56 260.47 79.24 C 357.69 78.59 454.93 79.32 552.15 78.89 C 533.36 70.10 514.23 61.22 498.25 47.77 C 491.11 42.65 490.03 30.47 499.09 27.03 C 530.11 10.28 569.20 23.54 592.00 48.10 C 587.58 35.04 580.35 17.92 590.75 6.46 M 193.06 184.08 C 192.87 194.93 192.92 205.80 193.22 216.65 C 255.82 246.39 329.02 241.08 391.26 271.75 C 413.70 281.91 432.32 301.72 438.00 326.01 C 414.72 290.49 373.59 273.27 332.66 269.33 C 292.89 264.97 253.08 258.84 215.14 245.91 C 222.48 260.35 238.15 267.17 251.89 274.11 C 279.59 285.65 308.85 293.08 338.47 297.62 C 294.13 300.22 246.77 293.97 208.95 269.04 C 215.61 281.46 229.18 287.76 241.27 293.74 C 276.91 308.10 315.67 312.45 353.69 315.11 L 353.84 315.80 C 309.06 320.59 261.64 320.14 219.97 300.99 C 237.16 322.71 266.54 326.35 292.04 330.99 C 317.49 332.38 342.81 335.83 368.31 336.44 C 336.31 342.79 303.31 344.07 270.90 340.11 C 248.41 336.28 223.56 331.24 208.09 312.91 C 200.08 305.22 202.46 292.08 193.38 285.31 C 192.43 311.85 193.22 338.44 193.07 365.00 C 193.01 386.54 192.77 408.10 193.13 429.65 C 195.50 463.77 223.87 493.39 257.37 498.84 C 345.93 499.17 434.51 498.98 523.08 498.93 C 548.95 498.95 574.83 499.25 600.70 498.83 C 638.83 495.48 670.94 458.46 668.07 420.09 C 667.85 341.42 668.14 262.74 667.93 184.07 C 670.34 144.18 636.12 108.23 596.90 105.95 C 486.97 106.03 377.04 106.02 267.11 105.96 C 226.76 106.25 190.80 143.64 193.06 184.08 M 695.13 233.92 C 695.02 238.22 695.07 242.53 695.05 246.85 C 694.91 254.85 694.97 262.85 695.13 270.86 C 694.81 285.57 695.04 300.28 695.01 315.00 C 746.41 314.55 797.88 315.91 849.25 314.32 C 797.66 287.93 746.52 260.69 695.13 233.92 M 695.00 398.01 C 695.00 399.68 694.99 401.35 694.99 403.02 C 695.02 406.05 694.98 409.03 695.06 412.08 C 694.95 420.50 694.66 428.92 694.31 437.34 C 719.07 424.36 743.82 411.36 768.62 398.45 C 744.10 397.31 719.53 398.32 695.00 398.01 Z" />
<path fill="#84d9f4" opacity="1.00" d=" M 193.06 184.08 C 190.80 143.64 226.76 106.25 267.11 105.96 C 377.04 106.02 486.97 106.03 596.90 105.95 C 636.12 108.23 670.34 144.18 667.93 184.07 C 651.37 159.49 623.06 141.99 592.84 143.09 C 484.55 142.81 376.26 143.19 267.97 142.90 C 237.81 141.80 209.73 159.74 193.06 184.08 Z" />
<path fill="#00adee" opacity="1.00" d=" M 193.06 184.08 C 209.73 159.74 237.81 141.80 267.97 142.90 C 376.26 143.19 484.55 142.81 592.84 143.09 C 623.06 141.99 651.37 159.49 667.93 184.07 C 668.14 262.74 667.85 341.42 668.07 420.09 C 670.94 458.46 638.83 495.48 600.70 498.83 C 574.83 499.25 548.95 498.95 523.08 498.93 C 505.58 469.71 478.21 447.94 449.40 430.61 C 372.34 385.40 281.96 364.80 193.07 365.00 C 193.22 338.44 192.43 311.85 193.38 285.31 C 202.46 292.08 200.08 305.22 208.09 312.91 C 223.56 331.24 248.41 336.28 270.90 340.11 C 303.31 344.07 336.31 342.79 368.31 336.44 C 342.81 335.83 317.49 332.38 292.04 330.99 C 266.54 326.35 237.16 322.71 219.97 300.99 C 261.64 320.14 309.06 320.59 353.84 315.80 L 353.69 315.11 C 315.67 312.45 276.91 308.10 241.27 293.74 C 229.18 287.76 215.61 281.46 208.95 269.04 C 246.77 293.97 294.13 300.22 338.47 297.62 C 308.85 293.08 279.59 285.65 251.89 274.11 C 238.15 267.17 222.48 260.35 215.14 245.91 C 253.08 258.84 292.89 264.97 332.66 269.33 C 373.59 273.27 414.72 290.49 438.00 326.01 C 432.32 301.72 413.70 281.91 391.26 271.75 C 329.02 241.08 255.82 246.39 193.22 216.65 C 192.92 205.80 192.87 194.93 193.06 184.08 M 504.02 257.03 C 470.77 280.76 462.20 330.92 482.00 365.99 C 497.21 394.44 529.39 413.41 561.84 411.10 C 603.61 411.09 642.29 375.53 644.71 333.72 C 657.32 291.29 630.11 243.77 587.72 232.27 C 558.02 224.61 524.61 234.06 504.02 257.03 M 470.07 398.50 C 459.22 399.69 456.69 413.72 464.26 420.69 C 479.09 436.87 503.34 447.00 525.15 441.34 C 535.07 438.91 534.74 425.63 528.66 419.34 C 514.01 403.70 491.41 395.26 470.07 398.50 Z" />
<path fill="#000000" opacity="1.00" d=" M 504.02 257.03 C 524.61 234.06 558.02 224.61 587.72 232.27 C 630.11 243.77 657.32 291.29 644.71 333.72 C 632.13 378.10 579.89 406.91 536.21 387.71 C 483.73 370.18 466.56 296.89 504.02 257.03 M 529.39 255.04 L 529.21 255.71 C 488.60 279.41 489.36 344.71 530.19 367.81 C 551.98 382.53 583.26 381.77 603.80 365.29 C 628.55 350.01 639.17 315.56 628.36 288.54 C 615.31 249.43 563.54 231.92 529.39 255.04 Z" />
<path fill="#f6921e" opacity="1.00" d=" M 695.13 233.92 C 746.52 260.69 797.66 287.93 849.25 314.32 C 797.88 315.91 746.41 314.55 695.01 315.00 C 695.04 300.28 694.81 285.57 695.13 270.86 C 733.41 280.42 770.98 292.68 809.07 302.97 C 771.10 284.19 733.26 265.16 695.05 246.85 C 695.07 242.53 695.02 238.22 695.13 233.92 Z" />
<path fill="#ffffff" opacity="1.00" d=" M 529.39 255.04 C 563.54 231.92 615.31 249.43 628.36 288.54 C 639.17 315.56 628.55 350.01 603.80 365.29 C 564.19 370.28 524.31 338.63 522.08 298.55 C 519.96 283.65 524.58 269.53 529.21 255.71 L 529.39 255.04 M 562.98 330.92 C 576.54 352.73 614.64 335.29 605.93 310.54 C 603.04 321.82 585.32 321.92 583.26 310.41 C 580.65 302.80 587.86 298.25 593.32 294.86 C 571.48 283.99 548.29 311.62 562.98 330.92 Z" />
<path fill="#ffffff" opacity="1.00" d=" M 695.05 246.85 C 733.26 265.16 771.10 284.19 809.07 302.97 C 770.98 292.68 733.41 280.42 695.13 270.86 C 694.97 262.85 694.91 254.85 695.05 246.85 Z" />
<path fill="#d0d2d3" opacity="1.00" d=" M 530.19 367.81 C 489.36 344.71 488.60 279.41 529.21 255.71 C 524.58 269.53 519.96 283.65 522.08 298.55 C 524.31 338.63 564.19 370.28 603.80 365.29 C 583.26 381.77 551.98 382.53 530.19 367.81 Z" />
<path fill="#0594c1" opacity="1.00" d=" M 482.00 365.99 C 462.20 330.92 470.77 280.76 504.02 257.03 C 466.56 296.89 483.73 370.18 536.21 387.71 C 579.89 406.91 632.13 378.10 644.71 333.72 C 642.29 375.53 603.61 411.09 561.84 411.10 C 529.39 413.41 497.21 394.44 482.00 365.99 Z" />
<path fill="#000000" opacity="1.00" d=" M 562.98 330.92 C 548.29 311.62 571.48 283.99 593.32 294.86 C 587.86 298.25 580.65 302.80 583.26 310.41 C 585.32 321.92 603.04 321.82 605.93 310.54 C 614.64 335.29 576.54 352.73 562.98 330.92 Z" />
<path fill="#ffffff" opacity="1.00" d=" M 193.07 365.00 C 281.96 364.80 372.34 385.40 449.40 430.61 C 478.21 447.94 505.58 469.71 523.08 498.93 C 434.51 498.98 345.93 499.17 257.37 498.84 C 223.87 493.39 195.50 463.77 193.13 429.65 C 192.77 408.10 193.01 386.54 193.07 365.00 Z" />
<path fill="#000000" opacity="1.00" d=" M 470.07 398.50 C 491.41 395.26 514.01 403.70 528.66 419.34 C 534.74 425.63 535.07 438.91 525.15 441.34 C 503.34 447.00 479.09 436.87 464.26 420.69 C 456.69 413.72 459.22 399.69 470.07 398.50 Z" />
<path fill="#f6921e" opacity="1.00" d=" M 695.00 398.01 C 719.53 398.32 744.10 397.31 768.62 398.45 C 743.82 411.36 719.07 424.36 694.31 437.34 C 694.66 428.92 694.95 420.50 695.06 412.08 C 711.96 410.01 728.57 406.27 745.32 403.33 C 728.54 402.78 711.76 402.99 694.99 403.02 C 694.99 401.35 695.00 399.68 695.00 398.01 Z" />
<path fill="#ffffff" opacity="1.00" d=" M 694.99 403.02 C 711.76 402.99 728.54 402.78 745.32 403.33 C 728.57 406.27 711.96 410.01 695.06 412.08 C 694.98 409.03 695.02 406.05 694.99 403.02 Z" />
<path fill="#f6921e" opacity="1.00" d=" M 365.25 527.25 C 372.60 527.04 379.94 526.63 387.30 526.25 C 383.04 542.75 362.18 554.35 368.26 571.90 C 372.27 590.52 360.60 607.86 346.98 619.31 C 343.04 614.39 339.63 609.06 335.94 603.97 C 344.08 596.10 351.77 586.19 349.93 574.01 C 336.65 581.11 323.39 589.25 308.39 592.05 C 306.56 586.23 304.77 580.36 303.95 574.30 C 329.11 566.83 354.22 552.15 365.25 527.25 Z" />
<path fill="#f6921e" opacity="1.00" d=" M 266.30 526.79 L 267.28 526.82 C 275.19 527.03 283.11 526.98 291.04 527.08 C 284.56 539.24 274.89 549.46 264.96 558.89 C 271.36 582.91 258.64 610.63 235.57 620.10 C 232.97 614.03 229.67 608.31 227.03 602.26 C 236.97 595.47 246.81 585.25 245.01 572.06 C 229.87 578.95 213.92 584.53 197.24 585.90 C 196.87 578.97 196.19 572.08 195.19 565.22 C 222.63 562.89 249.91 549.29 266.30 526.79 Z" />
</svg>
