<?xml version="1.0" encoding="UTF-8" ?>
<!DOCTYPE svg PUBLIC "-//W3C//DTD SVG 1.1//EN" "http://www.w3.org/Graphics/SVG/1.1/DTD/svg11.dtd">
<svg width="927pt" height="633pt" viewBox="0 0 927 633" version="1.1" xmlns="http://www.w3.org/2000/svg">
<path fill="#000000" opacity="1.00" d=" M 591.76 6.31 C 614.47 0.66 638.72 20.38 639.91 43.48 C 641.54 58.48 636.74 73.29 629.09 86.01 C 679.87 103.56 703.80 161.88 694.97 212.35 C 769.68 253.98 847.35 291.40 922.34 332.80 C 846.56 333.28 770.78 332.84 695.01 333.01 C 694.97 349.34 694.96 365.66 695.01 381.99 C 741.13 382.23 787.27 381.58 833.39 382.29 C 785.87 408.29 737.00 432.56 689.24 458.28 C 676.54 494.65 641.88 521.81 603.68 525.87 C 531.56 526.36 459.42 525.57 387.30 526.24 C 379.95 526.62 372.60 527.03 365.26 527.25 C 341.23 526.87 317.20 526.97 293.17 527.04 C 291.83 535.07 290.87 543.16 289.70 551.22 C 285.46 550.00 281.21 548.73 277.19 546.88 C 270.78 543.89 264.75 540.13 259.26 535.68 C 255.69 529.22 251.08 523.33 242.98 522.97 C 199.87 512.66 167.33 471.98 165.98 427.87 C 165.90 394.19 166.15 360.51 165.92 326.84 C 138.08 350.81 99.07 370.69 62.07 356.89 C 47.54 349.82 29.65 336.62 33.83 318.34 C 48.54 298.91 76.26 299.90 98.26 295.15 C 54.42 284.94 8.17 247.30 19.33 197.44 C 21.23 178.72 42.88 177.24 56.57 183.43 C 97.95 200.89 132.37 230.95 165.93 260.11 C 166.29 230.18 165.63 200.24 166.16 170.31 C 171.57 122.87 212.67 82.50 260.49 79.28 C 357.69 78.54 454.93 79.34 552.15 78.89 C 533.37 70.08 514.21 61.24 498.25 47.75 C 491.10 42.67 490.04 30.46 499.08 27.03 C 530.11 10.28 569.20 23.53 591.99 48.10 C 588.03 35.38 578.90 16.06 591.76 6.31 M 193.08 184.01 C 192.94 244.34 192.95 304.67 193.08 364.99 C 193.20 388.07 192.32 411.20 193.52 434.25 C 197.70 462.57 219.05 486.83 245.90 496.13 C 233.54 482.02 225.77 462.93 229.61 443.98 C 234.93 427.53 223.32 411.07 229.47 394.58 C 234.17 380.82 247.90 373.14 260.91 368.63 C 300.18 356.82 344.94 360.11 380.01 335.96 C 346.55 369.10 295.31 367.91 257.27 393.15 C 248.21 399.10 247.12 410.09 248.91 419.86 C 274.41 391.45 313.63 381.40 350.18 377.11 C 320.87 390.30 290.69 403.60 267.21 426.20 C 256.85 436.84 246.45 451.42 251.09 467.20 C 269.71 430.59 307.90 410.68 346.14 401.14 C 319.19 419.66 291.00 439.19 273.84 467.79 C 264.44 481.45 263.09 505.94 277.71 514.42 C 283.89 467.70 324.92 437.30 362.00 413.99 C 394.66 393.41 433.17 367.77 437.56 325.74 C 446.85 357.17 429.59 389.53 405.13 408.80 C 371.36 437.84 328.75 459.10 305.77 498.79 C 378.21 499.23 450.65 498.95 523.09 498.93 C 550.49 498.76 577.93 499.67 605.31 498.49 C 638.25 492.60 665.39 463.13 667.98 429.80 C 668.00 347.89 668.06 265.98 667.94 184.07 C 670.33 144.17 636.12 108.22 596.88 105.96 C 486.96 106.03 377.05 106.02 267.13 105.96 C 226.79 106.24 190.83 143.58 193.08 184.01 M 695.11 233.93 C 695.08 238.23 695.04 242.53 695.05 246.84 C 694.91 254.84 694.97 262.85 695.13 270.85 C 694.81 285.57 695.03 300.28 695.01 315.00 C 746.41 314.54 797.88 315.93 849.25 314.31 C 797.64 287.95 746.53 260.66 695.11 233.93 M 695.00 398.02 C 694.99 399.68 694.99 401.35 694.99 403.03 C 695.02 406.05 694.98 409.03 695.07 412.08 C 694.91 420.51 694.64 428.93 694.32 437.35 C 719.07 424.34 743.83 411.37 768.62 398.44 C 744.10 397.35 719.54 398.29 695.00 398.02 Z" />
<path fill="#84d9f4" opacity="1.00" d=" M 193.08 184.01 C 190.83 143.58 226.79 106.24 267.13 105.96 C 377.05 106.02 486.96 106.03 596.88 105.96 C 636.12 108.22 670.33 144.17 667.94 184.07 C 651.37 159.45 623.05 142.05 592.82 143.09 C 484.57 142.86 376.32 143.10 268.07 142.97 C 237.87 141.77 209.80 159.70 193.08 184.01 Z" />
<path fill="#00adee" opacity="1.00" d=" M 193.08 184.01 C 209.80 159.70 237.87 141.77 268.07 142.97 C 376.32 143.10 484.57 142.86 592.82 143.09 C 623.05 142.05 651.37 159.45 667.94 184.07 C 668.06 265.98 668.00 347.89 667.98 429.80 C 665.39 463.13 638.25 492.60 605.31 498.49 C 577.93 499.67 550.49 498.76 523.09 498.93 C 496.16 456.10 451.25 427.32 405.13 408.80 C 429.59 389.53 446.85 357.17 437.56 325.74 C 433.17 367.77 394.66 393.41 362.00 413.99 C 324.92 437.30 283.89 467.70 277.71 514.42 C 263.09 505.94 264.44 481.45 273.84 467.79 C 291.00 439.19 319.19 419.66 346.14 401.14 C 307.90 410.68 269.71 430.59 251.09 467.20 C 246.45 451.42 256.85 436.84 267.21 426.20 C 290.69 403.60 320.87 390.30 350.18 377.11 C 313.63 381.40 274.41 391.45 248.91 419.86 C 247.12 410.09 248.21 399.10 257.27 393.15 C 295.31 367.91 346.55 369.10 380.01 335.96 C 344.94 360.11 300.18 356.82 260.91 368.63 C 238.38 366.29 215.77 364.12 193.08 364.99 C 192.95 304.67 192.94 244.34 193.08 184.01 M 504.02 257.02 C 455.21 291.42 463.58 375.10 517.05 400.95 C 567.88 431.69 642.05 393.34 644.71 333.72 C 657.32 291.29 630.10 243.76 587.71 232.27 C 558.01 224.62 524.61 234.07 504.02 257.02 M 470.11 398.51 C 459.21 399.62 456.71 413.71 464.25 420.68 C 479.08 436.88 503.31 446.97 525.14 441.36 C 534.66 439.09 535.00 426.24 528.97 420.08 C 514.84 403.52 491.48 395.70 470.11 398.51 Z" />
<path fill="#000000" opacity="1.00" d=" M 504.02 257.02 C 524.61 234.07 558.01 224.62 587.71 232.27 C 630.10 243.76 657.32 291.29 644.71 333.72 C 632.08 378.42 579.26 407.12 535.48 387.44 C 483.48 369.47 466.80 296.69 504.02 257.02 M 529.38 255.03 L 529.20 255.71 C 498.12 274.54 488.79 320.08 510.82 349.17 C 529.99 379.33 575.85 388.15 603.77 365.28 C 628.57 350.05 639.14 315.56 628.38 288.54 C 615.28 249.43 563.56 231.93 529.38 255.03 Z" />
<path fill="#f6921e" opacity="1.00" d=" M 695.11 233.93 C 746.53 260.66 797.64 287.95 849.25 314.31 C 797.88 315.93 746.41 314.54 695.01 315.00 C 695.03 300.28 694.81 285.57 695.13 270.85 C 733.41 280.43 770.98 292.68 809.07 302.96 C 771.10 284.18 733.25 265.16 695.05 246.84 C 695.04 242.53 695.08 238.23 695.11 233.93 Z" />
<path fill="#ffffff" opacity="1.00" d=" M 529.38 255.03 C 563.56 231.93 615.28 249.43 628.38 288.54 C 639.14 315.56 628.57 350.05 603.77 365.28 C 570.96 368.93 537.54 348.88 526.26 317.77 C 518.37 297.63 521.76 275.40 529.20 255.71 L 529.38 255.03 M 562.95 330.91 C 576.53 352.68 614.56 335.37 605.96 310.57 C 602.98 321.79 585.36 321.93 583.25 310.41 C 580.64 302.79 587.91 298.32 593.29 294.82 C 571.42 284.08 548.36 311.57 562.95 330.91 Z" />
<path fill="#ffffff" opacity="1.00" d=" M 695.05 246.84 C 733.25 265.16 771.10 284.18 809.07 302.96 C 770.98 292.68 733.41 280.43 695.13 270.85 C 694.97 262.85 694.91 254.84 695.05 246.84 Z" />
<path fill="#d0d2d3" opacity="1.00" d=" M 510.82 349.17 C 488.79 320.08 498.12 274.54 529.20 255.71 C 521.76 275.40 518.37 297.63 526.26 317.77 C 537.54 348.88 570.96 368.93 603.77 365.28 C 575.85 388.15 529.99 379.33 510.82 349.17 Z" />
<path fill="#0594c1" opacity="1.00" d=" M 517.05 400.95 C 463.58 375.10 455.21 291.42 504.02 257.02 C 466.80 296.69 483.48 369.47 535.48 387.44 C 579.26 407.12 632.08 378.42 644.71 333.72 C 642.05 393.34 567.88 431.69 517.05 400.95 Z" />
<path fill="#000000" opacity="1.00" d=" M 562.95 330.91 C 548.36 311.57 571.42 284.08 593.29 294.82 C 587.91 298.32 580.64 302.79 583.25 310.41 C 585.36 321.93 602.98 321.79 605.96 310.57 C 614.56 335.37 576.53 352.68 562.95 330.91 Z" />
<path fill="#ffffff" opacity="1.00" d=" M 193.08 364.99 C 215.77 364.12 238.38 366.29 260.91 368.63 C 247.90 373.14 234.17 380.82 229.47 394.58 C 223.32 411.07 234.93 427.53 229.61 443.98 C 225.77 462.93 233.54 482.02 245.90 496.13 C 219.05 486.83 197.70 462.57 193.52 434.25 C 192.32 411.20 193.20 388.07 193.08 364.99 Z" />
<path fill="#000000" opacity="1.00" d=" M 470.11 398.51 C 491.48 395.70 514.84 403.52 528.97 420.08 C 535.00 426.24 534.66 439.09 525.14 441.36 C 503.31 446.97 479.08 436.88 464.25 420.68 C 456.71 413.71 459.21 399.62 470.11 398.51 Z" />
<path fill="#f6921e" opacity="1.00" d=" M 695.00 398.02 C 719.54 398.29 744.10 397.35 768.62 398.44 C 743.83 411.37 719.07 424.34 694.32 437.35 C 694.64 428.93 694.91 420.51 695.07 412.08 C 711.96 409.98 728.59 406.30 745.33 403.31 C 728.55 402.82 711.77 402.95 694.99 403.03 C 694.99 401.35 694.99 399.68 695.00 398.02 Z" />
<path fill="#ffffff" opacity="1.00" d=" M 694.99 403.03 C 711.77 402.95 728.55 402.82 745.33 403.31 C 728.59 406.30 711.96 409.98 695.07 412.08 C 694.98 409.03 695.02 406.05 694.99 403.03 Z" />
<path fill="#ffffff" opacity="1.00" d=" M 305.77 498.79 C 328.75 459.10 371.36 437.84 405.13 408.80 C 451.25 427.32 496.16 456.10 523.09 498.93 C 450.65 498.95 378.21 499.23 305.77 498.79 Z" />
<path fill="#f6921e" opacity="1.00" d=" M 365.26 527.25 C 372.60 527.03 379.95 526.62 387.30 526.24 C 382.24 539.82 370.67 550.82 366.45 563.68 C 374.09 584.45 363.57 606.38 346.98 619.31 C 343.07 614.37 339.59 609.11 335.96 603.97 C 344.08 596.08 351.74 586.20 349.95 574.03 C 336.64 581.10 323.41 589.24 308.40 592.06 C 306.50 586.25 304.87 580.34 303.93 574.30 C 329.11 566.85 354.21 552.15 365.26 527.25 Z" />
<path fill="#f6921e" opacity="1.00" d=" M 195.21 565.23 C 219.17 563.47 242.04 552.28 259.26 535.68 C 264.75 540.13 270.78 543.89 277.19 546.88 C 273.22 552.18 264.18 555.25 265.32 562.85 C 270.67 585.63 257.23 609.83 237.00 619.94 C 231.87 616.06 230.37 607.96 227.03 602.26 C 236.97 595.46 246.79 585.27 245.01 572.08 C 229.86 578.93 213.93 584.54 197.24 585.90 C 196.77 578.98 196.22 572.08 195.21 565.23 Z" />
</svg>
