<?xml version="1.0" encoding="iso-8859-1"?>
<!-- Generator: Adobe Illustrator 19.0.0, SVG Export Plug-In . SVG Version: 6.00 Build 0)  -->
<svg version="1.1" id="Layer_1" xmlns="http://www.w3.org/2000/svg" xmlns:xlink="http://www.w3.org/1999/xlink" x="0px" y="0px"
	 viewBox="0 0 512.001 512.001" style="enable-background:new 0 0 512.001 512.001;" xml:space="preserve">
<path style="fill:#D2AA82;" d="M379.867,125.133c-2.259,0-4.517-0.862-6.241-2.586c-3.448-3.448-3.448-9.035,0-12.483l24.275-24.275
	c9.517-9.535,25.034-9.535,34.551,0c2.638,2.638,6.948,2.638,9.586,0l11.034-11.034c3.448-3.448,9.035-3.448,12.483,0
	c3.448,3.448,3.448,9.035,0,12.483l-11.034,11.034c-9.517,9.535-25.034,9.535-34.551,0c-2.569-2.552-7.017-2.552-9.586,0
	l-24.275,24.275C384.384,124.271,382.126,125.133,379.867,125.133z"/>
<path style="fill:#464655;" d="M380.178,178.408l-62.412-62.411l31.652-31.652c6.894-6.894,18.073-6.894,24.967,0l37.444,37.444
	c6.894,6.894,6.894,18.073,0,24.967L380.178,178.408z"/>
<circle style="fill:#5B5D6E;" cx="216.269" cy="279.903" r="216.269"/>
<path style="fill:#464655;" d="M328.409,424.084c-119.442,0-216.269-96.827-216.269-216.269c0-52.024,18.381-99.748,48.987-137.06
	C68.399,95.139,0,179.523,0,279.904c0,119.442,96.827,216.269,216.269,216.269c67.417,0,127.62-30.857,167.282-79.208
	C365.943,421.594,347.469,424.084,328.409,424.084z"/>
<circle style="fill:#707487;" cx="347.531" cy="208.137" r="32.043"/>
<circle style="fill:#AEB5CA;" cx="306.44" cy="147.03" r="20.027"/>
<g>
	<path style="fill:#FFD782;" d="M443.839,70.531c-1.44,0-2.905-0.353-4.258-1.099l-18.37-10.134
		c-4.267-2.354-5.818-7.724-3.466-11.991c2.354-4.262,7.715-5.827,12-3.466l18.37,10.134c4.267,2.354,5.818,7.724,3.466,11.991
		C449.968,68.885,446.952,70.531,443.839,70.531z"/>
	<path style="fill:#FFD782;" d="M497.562,111.156c-2.198,0-4.388-0.814-6.103-2.448l-14.801-14.159
		c-3.525-3.371-3.647-8.956-0.276-12.483c3.362-3.525,8.948-3.642,12.483-0.276l14.801,14.159c3.525,3.371,3.647,8.956,0.276,12.483
		C502.208,110.241,499.889,111.156,497.562,111.156z"/>
	<path style="fill:#FFD782;" d="M482.217,73.272c-3.207,0-6.302-1.75-7.862-4.802c-2.224-4.341-0.509-9.659,3.828-11.884
		l20.965-10.741c4.345-2.229,9.655-0.509,11.879,3.832c2.224,4.341,0.509,9.659-3.828,11.884l-20.965,10.741
		C484.941,72.962,483.571,73.272,482.217,73.272z"/>
	<path style="fill:#FFD782;" d="M463.976,57.566c-4.655,0-8.551-3.651-8.81-8.357l-1.284-24.09
		c-0.258-4.866,3.482-9.026,8.345-9.284c5.181-0.194,9.035,3.482,9.293,8.344l1.284,24.09c0.258,4.866-3.482,9.026-8.345,9.284
		C464.295,57.562,464.132,57.566,463.976,57.566z"/>
</g>
<g>
</g>
<g>
</g>
<g>
</g>
<g>
</g>
<g>
</g>
<g>
</g>
<g>
</g>
<g>
</g>
<g>
</g>
<g>
</g>
<g>
</g>
<g>
</g>
<g>
</g>
<g>
</g>
<g>
</g>
</svg>
