<?xml version="1.0" encoding="iso-8859-1"?>
<!-- Generator: Adobe Illustrator 19.0.0, SVG Export Plug-In . SVG Version: 6.00 Build 0)  -->
<svg version="1.1" id="Layer_1" xmlns="http://www.w3.org/2000/svg" xmlns:xlink="http://www.w3.org/1999/xlink" x="0px" y="0px"
	 viewBox="0 0 512.002 512.002" style="enable-background:new 0 0 512.002 512.002;" xml:space="preserve">
<path style="fill:#328777;" d="M124.745,358.571c0,0-49.668,31.176-87.862,110.499c-5.575,11.58-0.282,25.476,11.571,30.443
	l5.869,2.46c12.693,5.318,27.182-1.913,30.474-15.275c7.139-28.989,25.703-77.545,55.804-97.517L124.745,358.571z"/>
<path style="fill:#266659;" d="M140.601,389.181l-15.856-30.609c0,0-16.64,10.446-38.065,34.627
	c9.158,6.285,20.567,14.144,29.798,20.598C123.471,403.871,131.505,395.216,140.601,389.181z"/>
<path style="fill:#7CD8A4;" d="M438.041,29.251c50.513,44.396-62.112,140.388-41.916,150.433
	c20.196,10.045,73.927-49.867,73.927-49.867l2.552,48.466c-21.993,31.059-53.129,55.306-73.765,69.331
	c-8.168,5.551-2.721,18.409,6.924,16.289c32.563-7.155,71.599-38.44,71.599-38.44l-18.493,50.395
	c-38.503,41.319-95.839,52.216-128.699,54.954c-7.308,0.609-8.444,10.826-1.456,13.05c36.387,11.581,74.942-1.512,74.942-1.512
	l-32.168,51.278c-42.673,22.221-100.744,15.355-132.242,9.085c-6.519-1.298-10.349,7.053-5.133,11.172
	c32.869,25.956,64.13,23.94,64.13,23.94c-125.949,62.374-166.868-62.811-166.868-62.811l-3.136-2.756
	c0,0-128.722-22.835-80.579-154.667c0,0,1.744,27.062,26.12,54.399c5.833,6.541,16.449,0.462,13.843-7.906
	c-9.848-31.619-20.813-83.123-5.535-124.806l46.724-38.485c0,0-6.242,31.009,3.34,62.055c2.98,9.656,17.271,7.507,17.257-2.598
	c-0.046-33.84,6.25-84.123,38.256-122.75l47.604-24.809c0,0-46.044,75.628-22.483,103.86c0,0,24.521-63.37,69.884-105.199
	l48.392-3.691c0,0-52.518,60.978-39.963,79.718S384.391-17.9,434.905,26.495L438.041,29.251z"/>
<g style="opacity:0.18;">
	<path style="fill:#328777;" d="M399.579,247.613c20.636-14.024,51.772-38.272,73.765-69.331l-2.552-48.466
		c0,0-53.731,59.912-73.927,49.867c-17.812-8.858,67.683-84.567,53.47-132.775C342.22,215.4,207.165,320.035,129.559,372.767
		l2.558,2.247c0,0,40.919,125.185,166.868,62.811c0,0-31.261,2.015-64.13-23.941c-5.216-4.119-1.386-12.469,5.132-11.172
		c31.498,6.269,89.567,13.136,132.242-9.085l32.168-51.278c0,0-38.555,13.094-74.942,1.512c-6.989-2.224-5.853-12.441,1.456-13.05
		c32.86-2.738,90.195-13.635,128.699-54.954l18.493-50.395c0,0-39.036,31.285-71.599,38.44
		C396.858,266.022,391.41,253.164,399.579,247.613z"/>
</g>
<path d="M481.834,219.247c-2.789-2.008-6.576-1.911-9.26,0.238c-0.377,0.301-38.051,30.257-68.455,36.937
	c-0.403,0.09-1.016,0.224-1.445-0.771c-0.463-1.072,0.143-1.483,0.469-1.704c22.219-15.1,53.391-39.718,75.711-71.24
	c0.997-1.406,1.489-3.107,1.398-4.829l-2.552-48.466c-0.163-3.095-2.176-5.788-5.1-6.819c-2.921-1.03-6.18-0.198-8.25,2.108
	c-0.131,0.147-13.279,14.761-28.682,28.008c-18.285,15.724-28.961,20.212-33.817,20.46c2.187-5.963,10.805-18.534,17.332-28.057
	c24.289-35.431,60.989-88.968,23.952-121.582c-0.004-0.004-0.008-0.008-0.012-0.012c-0.002-0.002-0.005-0.003-0.007-0.005
	c-0.006-0.006-0.012-0.011-0.018-0.017l0,0l-3.135-2.755c-37.102-32.61-85.509,10.683-117.54,39.331
	c-8.605,7.696-19.964,17.855-25.598,20.79c-0.376-4.838,2.691-15.969,15.877-36.054c11.151-16.984,24.037-32.002,24.166-32.151
	c2.022-2.35,2.429-5.686,1.03-8.452c-1.399-2.766-4.327-4.42-7.416-4.182l-48.393,3.691c-0.038,0.003-0.074,0.014-0.11,0.018
	c-0.386,0.036-0.769,0.092-1.144,0.185c-0.017,0.004-0.034,0.01-0.051,0.015c-0.368,0.094-0.727,0.219-1.078,0.366
	c-0.044,0.018-0.089,0.034-0.132,0.053c-0.346,0.153-0.68,0.335-1.002,0.539c-0.049,0.032-0.098,0.062-0.146,0.095
	c-0.32,0.212-0.625,0.447-0.913,0.71c-0.01,0.009-0.022,0.016-0.033,0.026c-31.417,28.97-52.879,67.364-63.701,89.752
	c-0.42-22.741,15.113-57.549,28.035-78.8c1.787-2.937,1.4-6.705-0.95-9.215c-2.35-2.51-6.082-3.147-9.132-1.559l-47.604,24.809
	c-0.905,0.472-1.706,1.12-2.358,1.905c-1.493,1.802-2.914,3.634-4.302,5.48c-0.206,0.241-0.397,0.497-0.574,0.766
	c-28.959,39.023-35.187,87.115-35.14,121.401c0,0.435,0.001,0.976-0.984,1.126c-1.007,0.145-1.166-0.374-1.297-0.796
	c-8.859-28.704-3.206-58.001-3.149-58.284c0.639-3.177-0.789-6.413-3.569-8.079c-2.779-1.666-6.305-1.404-8.807,0.657
	l-46.724,38.484c-1.052,0.866-1.853,1.996-2.322,3.276c-15.634,42.652-5.686,94.083,5.413,129.718
	c0.095,0.305,0.059,0.347-0.005,0.424c-0.183,0.215-0.485,0.306-0.581,0.31c0-0.001-0.083-0.04-0.228-0.202
	c-22.136-24.826-24.177-49.579-24.194-49.794c-0.233-3.615-2.966-6.573-6.553-7.088c-3.587-0.52-7.042,1.551-8.284,4.955
	c-15.604,42.719-14.991,79.181,1.819,108.368c14.65,25.436,38.504,39.918,57.171,47.837c-15.515,12.519-43.084,40.379-69.478,95.196
	c-3.614,7.504-3.974,15.93-1.017,23.724c2.961,7.806,8.832,13.88,16.528,17.104l5.87,2.46c3.739,1.567,7.7,2.347,11.654,2.347
	c4.651,0,9.295-1.079,13.556-3.224c7.854-3.952,13.561-11.108,15.659-19.631c5.859-23.791,19.148-65.102,44.134-85.874
	c10.556,17.73,28.558,40.058,56.469,51.776c12.509,5.253,25.805,7.875,39.837,7.874c5.513,0,11.141-0.414,16.875-1.223
	c0.645,0.171,1.299,0.263,1.946,0.263c1.52,0,3-0.463,4.253-1.298c14.639-2.768,29.956-8.085,45.895-15.979
	c3.259-1.614,4.918-5.298,3.99-8.815c-0.927-3.516-4.207-5.882-7.849-5.692c-0.275,0.019-26.132,1.199-54.349-18.876
	c33.088,6.002,89.246,11.164,131.59-10.884c1.208-0.629,2.227-1.569,2.951-2.723l32.168-51.278c1.721-2.743,1.526-6.269-0.479-8.81
	c-2.003-2.54-5.395-3.545-8.463-2.514c-0.345,0.115-33.25,10.972-65.249,2.869c33.415-3.429,89.941-15.485,128.52-56.885
	c0.696-0.746,1.236-1.626,1.587-2.582l18.493-50.395C485.735,224.875,484.623,221.255,481.834,219.247z M406.55,136.454
	c-15.246,22.24-22.47,33.335-20.112,42.413c0.876,3.372,3.105,6.097,6.276,7.674c11.715,5.828,28.539-1.233,52.941-22.217
	c6.578-5.657,12.698-11.478,17.679-16.434l1.39,26.396c-37.815,29.302-77.909,40.958-119.222,34.613
	c-19.582-3.004-34.969-9.574-43.953-14.212L438.133,40.688C454.004,63.17,432.361,98.804,406.55,136.454z M299.973,36.286
	c-17.679,26.895-22.52,44.484-15.236,55.355c1.972,2.943,4.961,4.802,8.416,5.238c9.302,1.166,19.38-7.416,39.479-25.39
	c35.701-31.929,69.789-59.023,94.454-41.428L289.623,185.05c-5.601-7.699-15.018-22.683-21.072-43.288
	C256.717,101.49,263.004,60.1,287.22,18.685l26.781-2.043C309.727,22.22,304.739,29.036,299.973,36.286z M216.865,30.919
	c-2.924,6.076-6.02,13.029-8.828,20.384c-12.429,32.558-12.81,56.161-1.131,70.156c1.737,2.082,4.446,3.085,7.121,2.649
	c2.675-0.439,4.92-2.262,5.9-4.789c0.168-0.433,12.155-30.918,34.309-62.915c-10.564,36.556-6.866,67.606-0.381,89.677
	c7.41,25.218,19.352,42.847,25.39,50.671l-44.944,50.674c-7.341-8.865-21.433-27.646-33.128-53.647
	c-21.817-48.504-25.484-98.023-10.927-147.208c0.768-1.008,1.546-2.011,2.349-3.002L216.865,30.919z M124.835,165.108
	c2.462,7.978,9.958,12.676,18.226,11.424c8.259-1.252,14.019-7.95,14.008-16.291c-0.027-19.393,2.068-43.486,9.644-67.411
	c-2.483,44.074,8.831,81.468,20.737,107.773c13.263,29.304,29.089,49.669,36.564,58.422l-43.606,49.166
	c-17.572-23.81-72.83-104.117-75.948-176.204c-0.016-0.375-0.068-0.739-0.136-1.099l14.945-12.31
	C118.776,131.003,119.547,147.974,124.835,165.108z M47.542,245.287c4.156,9.536,10.585,20.656,20.523,31.801
	c5.063,5.68,12.915,6.977,19.541,3.226c6.554-3.709,9.569-11.319,7.331-18.506c-8.375-26.893-20.18-77.605-6.338-117.965
	l1.297-1.068c3.593,35.698,18.079,76.172,43.157,120.5c15.32,27.078,30.206,47.687,36.962,56.636l-14.88,16.777
	c-0.053,0.023-0.104,0.052-0.156,0.077c-12.8,0.326-67.249-2.721-110.113-72.834C45.296,257.925,46.176,251.714,47.542,245.287z
	 M55.506,315.593c-3.889-6.775-6.72-14.076-8.539-21.86c23.819,30.031,49.158,44.316,67.762,51.098
	c10.527,3.838,19.911,5.705,27.351,6.574l-11.934,13.455c-0.186-0.048-0.369-0.106-0.558-0.14
	C129.077,364.628,78.151,355.038,55.506,315.593z M77.361,485.485c-1.027,4.17-3.824,7.674-7.674,9.611
	c-3.879,1.953-8.4,2.111-12.404,0.433l-5.87-2.46c-3.784-1.586-6.67-4.574-8.126-8.412c-1.452-3.827-1.276-7.963,0.496-11.644
	c31.429-65.275,64.488-89.992,73.141-95.637c3.368,0.968,6.053,1.607,7.795,1.985l0.1,0.089c0.771,2.09,2.169,5.625,4.25,10.067
	C100.62,411.319,85.284,453.313,77.361,485.485z M140.18,376.631l13.142-14.818c1.835,7.148,4.862,15.962,9.859,25.6
	c8.918,17.197,25.792,39.865,57.267,59.347c-7.5-0.998-14.701-2.913-21.574-5.789C162.882,425.918,145.181,388.867,140.18,376.631z
	 M240.741,395.201c-6.456-1.284-12.651,1.866-15.409,7.844c-2.764,5.989-1.143,12.76,4.036,16.849
	c14.514,11.462,28.753,17.826,40.52,21.346c-6.316,2.044-12.481,3.58-18.499,4.636c-34.413-15.581-60.029-37.909-74.2-64.728
	c-7.928-15.003-10.335-27.744-11.062-33.772l15.524-17.503c10.15,5.747,32.043,17.51,60.061,28.9
	c44.823,18.221,84.966,27.412,119.618,27.412c1.969,0,3.915-0.04,5.849-0.099l-1.051,1.675
	C325.56,407.835,270.326,401.089,240.741,395.201z M326.391,351.159c22.452,7.146,45.369,5.584,60.847,2.949l-10.156,16.189
	c-0.49-0.054-0.992-0.065-1.502-0.023c-71.012,6.089-156.498-37.241-183.509-52.15l43.615-49.176
	c10.303,6.578,31.865,18.88,61.192,27.832c18.661,5.696,42.299,10.482,69.059,10.482c13.162,0,27.087-1.178,41.535-3.956
	c-28.753,13.532-58.639,18.267-77.94,19.875c-6.913,0.575-12.283,5.791-13.062,12.68
	C315.693,342.761,319.772,349.052,326.391,351.159z M452.221,271.746c-0.686,0.72-1.392,1.409-2.091,2.11
	c-47.16,21.098-97.033,23.937-148.244,8.436c-25.892-7.837-45.61-18.648-55.878-24.981l45.078-50.825
	c9.355,5.2,27.396,13.646,51.339,17.438c7.242,1.147,15.348,1.897,24.166,1.897c19.135,0,41.61-3.54,65.8-14.246
	c-13.303,12.109-26.745,22.154-37.856,29.706c-6.707,4.557-9.145,12.958-5.928,20.431c3.197,7.426,10.931,11.403,18.8,9.673
	c18.917-4.156,39.469-15.689,54.233-25.307L452.221,271.746z"/>
<g>
</g>
<g>
</g>
<g>
</g>
<g>
</g>
<g>
</g>
<g>
</g>
<g>
</g>
<g>
</g>
<g>
</g>
<g>
</g>
<g>
</g>
<g>
</g>
<g>
</g>
<g>
</g>
<g>
</g>
</svg>
