<?xml version="1.0" encoding="iso-8859-1"?>
<!-- Generator: Adobe Illustrator 19.0.0, SVG Export Plug-In . SVG Version: 6.00 Build 0)  -->
<svg version="1.1" id="Layer_1" xmlns="http://www.w3.org/2000/svg" xmlns:xlink="http://www.w3.org/1999/xlink" x="0px" y="0px"
	 viewBox="0 0 512 512" style="enable-background:new 0 0 512 512;" xml:space="preserve">
<path style="fill:#7C665D;" d="M480.006,231.006c0,123.714-100.291,224.006-224.006,224.006S15.759,353.652,31.994,231.006
	C48.775,104.228,116.274,7,256,7C393.769,7,480.006,107.291,480.006,231.006z"/>
<g>
	<path style="fill:#6E5550;" d="M157.497,284.407C135.31,269.547,81.82,240.044,34.795,263.35
		c11.586,73.078,58.505,134.389,122.702,165.882V284.407z"/>
	<path style="fill:#6E5550;" d="M354.503,284.407v144.824c64.197-31.494,111.115-92.803,122.7-165.881
		C430.179,240.045,376.69,269.546,354.503,284.407z"/>
</g>
<path style="fill:#957863;" d="M373.773,337.842l-4.245-26.998c-14.059-50.655-60.503-87.838-115.636-87.838
	s-101.577,37.183-115.637,87.838l-3.284,16.035c-0.495,3.686-0.821,7.424-0.974,11.208l0.283,16.43
	c0.287,4.402,0.734,8.913,1.342,13.502l2.821,16.506c12.601,60.36,51.326,126.486,115.449,126.486
	c64.122,0,102.848-66.127,115.448-126.486l2.821-16.506c0.607-4.589,1.055-9.1,1.342-13.502l0.283-16.43
	C373.782,338.006,373.777,337.924,373.773,337.842z"/>
<path style="fill:#C09682;" d="M315.001,389.011c0,50.812-23.655,92.003-59.002,92.003s-59.002-41.19-59.002-92.003
	c0-50.811,23.655-92.003,59.002-92.003S315.001,338.199,315.001,389.011z"/>
<path style="fill:#EBB4A0;" d="M257.345,409.525c20.001,0,41.334-23.657,56.002,0c14.667,23.657-16.99,69.488-56.002,69.488
	s-70.668-45.831-56.002-69.488C216.011,385.869,237.344,409.525,257.345,409.525z"/>
<path d="M452.195,358.321c4.903-7.275,9.454-14.949,13.552-23.046c6.585,2.309,12.899,4.968,18.671,8.034
	c1.196,0.636,2.48,0.937,3.747,0.937c2.864,0,5.634-1.542,7.072-4.248c2.073-3.902,0.59-8.746-3.312-10.818
	c-6.093-3.237-12.668-6.053-19.483-8.506c9.802-23.782,15.723-50.836,15.723-81.5c0-63.697-15.545-97.264-40.91-146.755
	C404.508,9.005,299.264,0,256,0C216.248,0,123.155,0,72.846,92.235c-2.388,4.378-4.738,8.631-7.036,12.79
	c-23.453,42.448-41.977,75.977-41.977,134.148c0,30.664,5.921,57.719,15.723,81.5c-6.813,2.453-13.389,5.27-19.483,8.506
	c-3.902,2.073-5.384,6.917-3.312,10.818c1.438,2.706,4.208,4.248,7.072,4.248c1.266,0,2.551-0.301,3.747-0.937
	c5.769-3.064,12.083-5.723,18.673-8.031c4.098,8.094,8.648,15.768,13.551,23.043c-16.612,10.319-31.576,22.897-42.357,37.144
	c-2.666,3.523-1.971,8.541,1.552,11.207c1.444,1.093,3.14,1.621,4.822,1.621c2.42,0,4.812-1.094,6.385-3.173
	c9.762-12.9,23.626-24.384,39.029-33.815c5.489,7.024,11.294,13.625,17.31,19.827c-16.021,15.236-28.745,32.009-37.325,44.713
	c-2.473,3.661-1.509,8.634,2.153,11.107c1.373,0.927,2.929,1.371,4.47,1.371c2.568,0,5.091-1.235,6.637-3.524
	c8.169-12.097,20.352-28.188,35.522-42.553c16.246,14.864,33.468,27.072,49.786,36.919c0.625,0.377,1.282,0.654,1.953,0.845
	c11.542,18.985,26.285,38.087,44.957,54.376C210.662,508.309,224.256,512,234.185,512c6.664,0,11.679-1.663,14.646-3.012
	c2.694-1.225,5.099-2.792,7.168-4.593c2.069,1.801,4.475,3.368,7.168,4.593c2.968,1.349,7.981,3.012,14.646,3.012
	c9.93,0,23.526-3.692,39.486-17.615c18.673-16.289,33.415-35.392,44.957-54.376c0.67-0.19,1.327-0.467,1.953-0.844
	c16.318-9.847,33.54-22.056,49.786-36.919c15.17,14.365,27.353,30.456,35.522,42.553c1.546,2.289,4.068,3.524,6.637,3.524
	c1.541,0,3.097-0.444,4.47-1.371c3.662-2.473,4.625-7.446,2.153-11.107c-8.58-12.704-21.304-29.477-37.326-44.713
	c6.016-6.2,11.821-12.802,17.31-19.827c15.404,9.431,29.267,20.915,39.029,33.815c1.573,2.079,3.965,3.173,6.385,3.173
	c1.682,0,3.377-0.528,4.822-1.621c3.523-2.667,4.218-7.684,1.552-11.207C483.771,381.217,468.808,368.639,452.195,358.321z
	 M83.466,363.369c9.821-4.959,19.935-9.078,29.765-12.207c0.889,3.755,2.306,9.28,4.365,16.1
	c-6.662,3.939-12.998,8.431-18.976,13.259C93.37,375.133,88.294,369.417,83.466,363.369z M110.207,391.674
	c4.018-3.167,8.193-6.146,12.516-8.859c3.067,8.586,6.897,18.195,11.615,28.317C126.22,405.277,118.096,398.805,110.207,391.674z
	 M256,472.351c-13.542,0-35.945-17.244-46.096-35.483c-2.172-3.902-5.082-10.289-4.817-16.047c0.043-0.299,0.067-0.602,0.076-0.91
	c0.187-1.729,0.67-3.388,1.596-4.882c3.671-5.92,6.882-6.737,9.805-6.737c4.417,0,9.981,2.195,15.872,4.519
	c4.824,1.903,10.083,3.974,15.564,5.117v14.387c0,4.418,3.582,8,8,8c4.418,0,8-3.582,8-8v-14.387
	c5.48-1.144,10.74-3.214,15.563-5.117c5.892-2.324,11.457-4.519,15.873-4.519c2.923,0,6.134,0.816,9.805,6.737
	c0.756,1.219,1.223,2.548,1.473,3.935c-0.006,0.103-0.01,0.175-0.011,0.193c-0.057,0.856,0.027,1.689,0.226,2.479
	c-0.025,5.538-2.764,11.513-4.833,15.231C291.945,455.106,269.542,472.351,256,472.351z M377.661,411.132
	c4.718-10.122,8.548-19.731,11.615-28.318c4.323,2.714,8.498,5.693,12.516,8.859C393.905,398.805,385.78,405.277,377.661,411.132z
	 M413.38,380.521c-5.977-4.828-12.313-9.32-18.976-13.259c2.059-6.819,3.476-12.345,4.365-16.1
	c9.83,3.129,19.943,7.248,29.765,12.207C423.705,369.417,418.63,375.133,413.38,380.521z M438.169,350.339
	c-26.823-13.961-55.956-22.095-78.092-22.095c-4.418,0-8,3.582-8,8s3.582,8,8,8c6.99,0,14.864,0.966,23.203,2.769
	c-0.712,2.963-1.841,7.35-3.456,12.816c-8.488-3.638-17.406-6.267-26.701-7.499c-4.379-0.578-8.401,2.5-8.982,6.879
	c-0.581,4.38,2.5,8.401,6.879,8.982c8.267,1.096,16.241,3.521,23.864,6.903c-10.594,30.166-31.357,75.178-68.102,107.232
	c-13.644,11.902-27.474,16.422-36.992,12.094c-3.95-1.796-5.791-4.681-5.791-6.065c0-0.324-0.025-0.642-0.063-0.955
	c19.723-4.482,41.808-24.191,52.139-42.752c5.184-9.313,7.415-18.232,6.682-26.105c0.535-11.465,2.111-77.092-27.798-134.059
	c-2.054-3.913-6.891-5.418-10.802-3.364c-3.912,2.054-5.418,6.89-3.364,10.802c19.058,36.297,24.38,77.431,25.714,102.857
	c-3.377-1.648-7.07-2.49-11.072-2.49c-7.458,0-14.72,2.865-21.744,5.635c-6.37,2.513-12.387,4.886-17.692,4.886
	c-5.306,0-11.323-2.374-17.693-4.886c-7.023-2.771-14.285-5.635-21.744-5.635c-4.061,0-7.803,0.864-11.22,2.561
	c1.327-25.422,6.643-66.599,25.717-102.928c2.054-3.912,0.548-8.748-3.364-10.802c-3.91-2.053-8.748-0.548-10.802,3.364
	c-31.075,59.187-28.162,127.725-27.742,135.152c-0.437,7.6,1.826,16.128,6.771,25.012c10.332,18.563,32.418,38.271,52.14,42.752
	c-0.038,0.313-0.063,0.631-0.063,0.955c0,1.384-1.84,4.269-5.791,6.065c-9.52,4.329-23.349-0.192-36.992-12.093
	c-36.745-32.055-57.509-77.068-68.102-107.232c7.622-3.382,15.597-5.808,23.864-6.903c4.38-0.581,7.46-4.602,6.879-8.982
	c-0.58-4.38-4.604-7.458-8.982-6.879c-9.295,1.232-18.213,3.86-26.701,7.499c-1.615-5.466-2.744-9.854-3.456-12.816
	c8.338-1.803,16.212-2.769,23.203-2.769c4.418,0,8-3.582,8-8s-3.582-8-8-8c-22.137,0-51.269,8.133-78.092,22.095
	c-4.279-6.279-8.269-12.883-11.906-19.814c35.923-9.412,73.638-10.291,74.142-10.3c4.417-0.087,7.928-3.737,7.842-8.154
	c-0.086-4.416-3.723-7.927-8.151-7.843c-2.208,0.042-42.37,0.966-80.789,11.58c-9.422-22.348-15.134-47.786-15.134-76.635
	c0-54.043,16.77-84.398,39.981-126.409c2.312-4.184,4.675-8.461,7.077-12.866C132.653,16,215.964,16,256,16
	c40.324,0,138.295,8.157,177.017,83.713c25.003,48.787,39.149,79.318,39.149,139.458c0,28.849-5.712,54.287-15.134,76.635
	c-38.419-10.613-78.581-11.537-80.789-11.58c-4.467-0.073-8.067,3.427-8.152,7.845s3.427,8.067,7.845,8.152
	c0.504,0.01,38.204,0.87,74.144,10.294C446.44,337.451,442.45,344.057,438.169,350.339z"/>
<path d="M80.786,256.243c-4.389-0.508-8.357,2.641-8.864,7.03c-0.506,4.389,2.641,8.358,7.03,8.864
	c19.236,2.22,29.543,8.011,33.42,18.781c1.174,3.262,4.249,5.292,7.527,5.292c0.899,0,1.814-0.153,2.709-0.475
	c4.157-1.497,6.313-6.08,4.817-10.237C119.388,263.172,96.958,258.109,80.786,256.243z"/>
<path d="M389.39,295.736c0.896,0.322,1.81,0.475,2.709,0.475c3.278,0,6.353-2.03,7.527-5.292
	c3.877-10.769,14.184-16.56,33.42-18.781c4.389-0.506,7.537-4.475,7.03-8.864c-0.507-4.389-4.471-7.542-8.864-7.03
	c-16.172,1.866-38.602,6.929-46.64,29.255C383.077,289.655,385.234,294.238,389.39,295.736z"/>
<g>
</g>
<g>
</g>
<g>
</g>
<g>
</g>
<g>
</g>
<g>
</g>
<g>
</g>
<g>
</g>
<g>
</g>
<g>
</g>
<g>
</g>
<g>
</g>
<g>
</g>
<g>
</g>
<g>
</g>
</svg>
