<?xml version="1.0" encoding="iso-8859-1"?>
<!-- Generator: Adobe Illustrator 19.0.0, SVG Export Plug-In . SVG Version: 6.00 Build 0)  -->
<svg version="1.1" id="Layer_1" xmlns="http://www.w3.org/2000/svg" xmlns:xlink="http://www.w3.org/1999/xlink" x="0px" y="0px"
	 viewBox="0 0 502 502" style="enable-background:new 0 0 502 502;" xml:space="preserve">
<g>
	<g>
		<path d="M251,502c-45.782,0-88.944-17.948-121.533-50.537c-32.59-32.589-50.537-75.75-50.537-121.533V172.07
			c0-45.783,17.947-88.944,50.537-121.533C162.056,17.948,205.218,0,251,0s88.944,17.948,121.533,50.537
			c32.59,32.589,50.537,75.75,50.537,121.533v157.86c0,45.783-17.947,88.944-50.537,121.533C339.944,484.052,296.782,502,251,502z
			 M251,20C167.148,20,98.93,88.218,98.93,172.07v157.86C98.93,413.782,167.148,482,251,482s152.07-68.218,152.07-152.07V172.07
			C403.07,88.218,334.852,20,251,20z"/>
	</g>
	<g>
		<path d="M132.35,328.354c-5.522,0-10-4.477-10-10v-13.681c0-5.523,4.478-10,10-10s10,4.477,10,10v13.681
			C142.35,323.876,137.872,328.354,132.35,328.354z"/>
		<path d="M252.188,457.799c-58.867,0-110.502-39.83-125.567-96.858c-1.411-5.34,1.774-10.812,7.114-12.223
			c5.334-1.41,10.811,1.774,12.222,7.114c12.75,48.261,56.434,81.967,106.231,81.967c5.522,0,10,4.477,10,10
			S257.71,457.799,252.188,457.799z"/>
	</g>
	<path d="M251,41.043c-17.7,0-32.101,14.4-32.101,32.101v53.041c0,14.209,9.283,26.284,22.101,30.497v34.752c0,5.523,4.478,10,10,10
		s10-4.477,10-10v-34.752c12.817-4.214,22.101-16.288,22.101-30.497V73.144C283.101,55.444,268.7,41.043,251,41.043z
		 M263.101,126.185c0,6.672-5.429,12.101-12.101,12.101s-12.101-5.428-12.101-12.101V73.144c0-6.672,5.429-12.101,12.101-12.101
		s12.101,5.428,12.101,12.101V126.185z"/>
</g>
<g>
</g>
<g>
</g>
<g>
</g>
<g>
</g>
<g>
</g>
<g>
</g>
<g>
</g>
<g>
</g>
<g>
</g>
<g>
</g>
<g>
</g>
<g>
</g>
<g>
</g>
<g>
</g>
<g>
</g>
</svg>
