<?xml version="1.0" encoding="iso-8859-1"?>
<!-- Generator: Adobe Illustrator 19.0.0, SVG Export Plug-In . SVG Version: 6.00 Build 0)  -->
<svg version="1.1" id="Layer_1" xmlns="http://www.w3.org/2000/svg" xmlns:xlink="http://www.w3.org/1999/xlink" x="0px" y="0px"
	 viewBox="0 0 511.999 511.999" style="enable-background:new 0 0 511.999 511.999;" xml:space="preserve">
<g>
	<path style="fill:#CFF09E;" d="M83.917,320.81v119.503h344.166V320.81c0-15.044-12.195-27.238-27.238-27.238H111.157
		C96.113,293.571,83.917,305.767,83.917,320.81z"/>
	<rect x="106.351" y="440.312" style="fill:#CFF09E;" width="67.945" height="57.664"/>
	<rect x="337.694" y="440.312" style="fill:#CFF09E;" width="67.945" height="57.664"/>
</g>
<g>
	<path style="fill:#507C5C;" d="M168.069,407.779c-22.517,0-40.836-18.319-40.836-40.836s18.32-40.837,40.836-40.837
		c22.518,0,40.837,18.32,40.837,40.837c0,7.747-6.281,14.027-14.027,14.027c-7.746,0-14.027-6.28-14.027-14.027
		c0-7.048-5.736-12.784-12.784-12.784c-7.048,0-12.783,5.734-12.783,12.784c0,7.048,5.734,12.783,12.783,12.783
		c7.746,0,14.027,6.28,14.027,14.027C182.095,401.499,175.816,407.779,168.069,407.779z"/>
	<path style="fill:#507C5C;" d="M343.931,407.779c-22.518,0-40.837-18.319-40.837-40.836s18.32-40.837,40.837-40.837
		s40.836,18.32,40.836,40.837c0,7.747-6.281,14.027-14.027,14.027s-14.027-6.28-14.027-14.027c0-7.048-5.734-12.784-12.783-12.784
		s-12.784,5.734-12.784,12.784c0,7.048,5.736,12.783,12.784,12.783c7.746,0,14.027,6.28,14.027,14.027
		C357.958,401.499,351.678,407.779,343.931,407.779z"/>
	<path style="fill:#507C5C;" d="M478.273,168.058c-7.746,0-14.027,6.28-14.027,14.027v13.238h-22.136V40.603
		C442.11,18.214,423.896,0,401.507,0H110.493C88.105,0,69.89,18.214,69.89,40.603v154.719H47.755v-13.238
		c0-7.747-6.281-14.027-14.027-14.027s-14.027,6.28-14.027,14.027v54.529c0,7.747,6.281,14.027,14.027,14.027
		s14.027-6.28,14.027-14.027v-13.238H69.89v14.619c0,7.747,6.281,14.027,14.027,14.027s14.027-6.28,14.027-14.027V40.603
		c0-6.919,5.63-12.55,12.55-12.55h291.013c6.921,0,12.55,5.63,12.55,12.55v241.123c-4.152-1.407-8.591-2.183-13.213-2.183H147.766
		V155.225c0-24.805,20.179-44.984,44.982-44.984h126.504c24.805,0,44.982,20.179,44.982,44.984v72.176
		c0,7.747,6.281,14.027,14.027,14.027s14.027-6.28,14.027-14.027v-72.176c0-40.272-32.764-73.037-73.036-73.037H192.749
		c-40.272,0-73.036,32.764-73.036,73.037v124.319h-8.556c-22.756,0-41.267,18.511-41.267,41.265v105.477h-8.297
		c-7.746,0-14.027,6.28-14.027,14.027c0,7.747,6.281,14.027,14.027,14.027h22.324h8.41v43.633c0,7.747,6.281,14.027,14.027,14.027
		h67.947c7.746,0,14.027-6.28,14.027-14.027v-43.633h135.344v43.633c0,7.747,6.281,14.027,14.027,14.027h67.947
		c7.746,0,14.027-6.28,14.027-14.027v-43.633h8.41h22.324c7.746,0,14.027-6.28,14.027-14.027c0-7.747-6.281-14.027-14.027-14.027
		h-8.297V320.809v-97.434h22.136v13.238c0,7.747,6.281,14.027,14.027,14.027c7.746,0,14.027-6.28,14.027-14.027v-54.529
		C492.3,174.338,486.019,168.058,478.273,168.058z M160.275,483.947h-39.895V454.34h39.893v29.606H160.275z M391.619,483.947
		h-39.893V454.34h39.893V483.947z M405.646,426.287h-67.947H174.302h-67.948h-8.41V320.81c0-7.285,5.928-13.212,13.213-13.212
		h289.687c7.285,0,13.213,5.926,13.213,13.212v105.477H405.646z"/>
</g>
<g>
</g>
<g>
</g>
<g>
</g>
<g>
</g>
<g>
</g>
<g>
</g>
<g>
</g>
<g>
</g>
<g>
</g>
<g>
</g>
<g>
</g>
<g>
</g>
<g>
</g>
<g>
</g>
<g>
</g>
</svg>
