<?xml version="1.0" encoding="iso-8859-1"?>
<!-- Generator: Adobe Illustrator 19.0.0, SVG Export Plug-In . SVG Version: 6.00 Build 0)  -->
<svg version="1.1" id="Layer_1" xmlns="http://www.w3.org/2000/svg" xmlns:xlink="http://www.w3.org/1999/xlink" x="0px" y="0px"
	 viewBox="0 0 460 460" style="enable-background:new 0 0 460 460;" xml:space="preserve">
<g id="XMLID_2600_">
	<path id="XMLID_1380_" style="fill:#56503F;" d="M340,395v20h-30h-20c0-11.046,8.954-20,20-20H340z"/>
	<path id="XMLID_1546_" style="fill:#72643E;" d="M310,415h60c11.046,0,20-8.954,20-20v-60h-80V415z"/>
	<path id="XMLID_1372_" style="fill:#56503F;" d="M130,395v20h-30H80c0-11.046,8.954-20,20-20H130z"/>
	<path id="XMLID_1405_" style="fill:#877C51;" d="M100,295v60H80l0,0c-33.137,0-60-26.863-60-60v-35c0-2.761-2.239-5-5-5H2
		c-1.105,0-2-0.896-2-2v-38c0-11.046,8.954-20,20-20l0,0c33.137,0,60,26.863,60,60v30c0,5.523,4.477,10,10,10H100z"/>
	<path id="XMLID_1503_" style="fill:#7F734C;" d="M100,335v20H80l0,0c-33.137,0-60-26.863-60-60v-35c0-2.761-2.239-5-5-5H2
		c-1.105,0-2-0.896-2-2v-18l0,0c33.137,0,60,26.863,60,60v30c0,5.523,4.477,10,10,10h10H100z"/>
	<path id="XMLID_1522_" style="fill:#72643E;" d="M180,295v60v20v20c0,11.046-8.954,20-20,20h-60v-40v-20H80v-70
		c0,5.523,4.477,10,10,10h10H180z"/>
	<path id="XMLID_1718_" style="fill:#665231;" d="M160,335h20v40h-20V335z"/>
	<path id="XMLID_1577_" style="fill:#877C51;" d="M100,415h40c11.046,0,20-8.954,20-20v-20h-60V415z"/>
	<path id="XMLID_1579_" style="fill:#877C51;" d="M310,415h40c11.046,0,20-8.954,20-20v-20h-60V415z"/>
	<path id="XMLID_1591_" style="fill:#665231;" d="M370,335v40h20v-40H370z"/>
	<path id="XMLID_1580_" style="fill:#877C51;" d="M400,355c0,33.137,26.863,60,60,60l0,0v-60H400z"/>
	<path id="XMLID_1581_" style="fill:#72643E;" d="M460,335v20v20h-56.572c-2.212-6.257-3.428-12.985-3.428-20v-20H460z"/>
	<path id="XMLID_904_" style="fill:#A38E5F;" d="M460,225v130H100V225c0-99.411,80.589-180,180-180l0,0
		C379.411,45,460,125.589,460,225z"/>
	<path id="XMLID_2588_" style="fill:#AD9B6F;" d="M460,235v120H340v-80c0-22.091-17.909-40-40-40h-40c-22.091,0-40,17.909-40,40v80
		H100V235h80c22.091,0,40-17.909,40-40v-40c0-22.091-17.909-40-40-40h-42.475C158.499,87.875,187.051,66.915,220,55.264V75
		c0,22.091,17.909,40,40,40h40c22.091,0,40-17.909,40-40V55.257c32.953,11.648,61.499,32.62,82.475,59.743H380
		c-22.091,0-40,17.909-40,40v40c0,22.091,17.909,40,40,40H460z"/>
	<path id="XMLID_1956_" style="fill:#967D4B;" d="M310,285v20c0,11.046-8.954,20-20,20h-20c-11.046,0-20-8.954-20-20v-20
		c0-11.046,8.954-20,20-20h20C301.046,265,310,273.954,310,285z"/>
	<path id="XMLID_895_" style="fill:#967D4B;" d="M170,145h-10.631c-7.042,0-13.63,3.664-17.176,9.748
		C134.442,168.042,130,183.501,130,200c0,2.761,2.239,5,5,5h35c11.046,0,20-8.954,20-20v-20C190,153.954,181.046,145,170,145z"/>
	<path id="XMLID_1908_" style="fill:#967D4B;" d="M280,45c-10.223,0-20.243,0.862-30,2.502V65c0,11.046,8.954,20,20,20h20
		c11.046,0,20-8.954,20-20V47.502C300.244,45.862,290.223,45,280,45L280,45z"/>
	<path id="XMLID_1937_" style="fill:#967D4B;" d="M417.807,154.748c-3.547-6.083-10.135-9.748-17.176-9.748H390
		c-11.046,0-20,8.954-20,20v20c0,11.046,8.954,20,20,20h35c2.761,0,5-2.239,5-5C430,183.501,425.558,168.042,417.807,154.748z"/>
	<path id="XMLID_890_" style="fill:#7F673C;" d="M170,171.667v6.667c0,3.682-2.985,6.667-6.667,6.667h-11.667
		c-0.92,0-1.667-0.746-1.667-1.667c0-5.5,1.481-10.653,4.064-15.084c1.182-2.028,3.378-3.249,5.725-3.249h3.544
		C167.015,165,170,167.985,170,171.667z"/>
	<path id="XMLID_1983_" style="fill:#7F673C;" d="M285,285h-10c-2.761,0-5,2.239-5,5v10c0,2.761,2.239,5,5,5h10c2.761,0,5-2.239,5-5
		v-10C290,287.239,287.761,285,285,285z"/>
	<path id="XMLID_1987_" style="fill:#7F673C;" d="M280,45c-3.357,0-6.689,0.103-10,0.284V60c0,2.761,2.239,5,5,5h10
		c2.761,0,5-2.239,5-5V45.284C286.689,45.103,283.357,45,280,45L280,45z"/>
	<path id="XMLID_1982_" style="fill:#7F673C;" d="M405.936,168.249c-1.182-2.028-3.378-3.249-5.725-3.249h-3.544
		c-3.682,0-6.667,2.985-6.667,6.667v6.667c0,3.682,2.985,6.667,6.667,6.667h11.667c0.92,0,1.667-0.746,1.667-1.667
		C410,177.834,408.519,172.681,405.936,168.249z"/>
	<path id="XMLID_1976_" style="fill:#9E8E61;" d="M370,80V69.106c8.121,4.698,15.828,10.027,23.083,15.894H375
		C372.239,85,370,82.761,370,80z"/>
	<path id="XMLID_2000_" style="fill:#9E8E61;" d="M170,265h-20c-11.046,0-20,8.954-20,20v20c0,11.046,8.954,20,20,20h20
		c11.046,0,20-8.954,20-20v-20C190,273.954,181.046,265,170,265z"/>
	<path id="XMLID_1988_" style="fill:#9E8E61;" d="M290,145h-20c-11.046,0-20,8.954-20,20v20c0,11.046,8.954,20,20,20h20
		c11.046,0,20-8.954,20-20v-20C310,153.954,301.046,145,290,145z"/>
	<path id="XMLID_886_" style="fill:#9E8E61;" d="M185,85c2.761,0,5-2.239,5-5V69.106c-8.121,4.698-15.828,10.027-23.083,15.894H185z
		"/>
	<path id="XMLID_2001_" style="fill:#9E8E61;" d="M410,265h-20c-11.046,0-20,8.954-20,20v20c0,11.046,8.954,20,20,20h20
		c11.046,0,20-8.954,20-20v-20C430,273.954,421.046,265,410,265z"/>
	<path id="XMLID_2002_" style="fill:#756A45;" d="M170,290v10c0,2.761-2.239,5-5,5h-10c-2.761,0-5-2.239-5-5v-10
		c0-2.761,2.239-5,5-5h10C167.761,285,170,287.239,170,290z"/>
	<path id="XMLID_2034_" style="fill:#756A45;" d="M405,285h-10c-2.761,0-5,2.239-5,5v10c0,2.761,2.239,5,5,5h10c2.761,0,5-2.239,5-5
		v-10C410,287.239,407.761,285,405,285z"/>
	<path id="XMLID_892_" style="fill:#756A45;" d="M285,165h-10c-2.761,0-5,2.239-5,5v10c0,2.761,2.239,5,5,5h10c2.761,0,5-2.239,5-5
		v-10C290,167.239,287.761,165,285,165z"/>
	<path id="XMLID_903_" style="fill:#3A362C;" d="M40,220c0,2.761-2.239,5-5,5s-5-2.239-5-5s2.239-5,5-5S40,217.239,40,220z"/>
</g>
<g>
</g>
<g>
</g>
<g>
</g>
<g>
</g>
<g>
</g>
<g>
</g>
<g>
</g>
<g>
</g>
<g>
</g>
<g>
</g>
<g>
</g>
<g>
</g>
<g>
</g>
<g>
</g>
<g>
</g>
</svg>
