<?xml version="1.0" encoding="iso-8859-1"?>
<!-- Generator: Adobe Illustrator 19.0.0, SVG Export Plug-In . SVG Version: 6.00 Build 0)  -->
<svg version="1.1" id="Layer_1" xmlns="http://www.w3.org/2000/svg" xmlns:xlink="http://www.w3.org/1999/xlink" x="0px" y="0px"
	 viewBox="0 0 512 512" style="enable-background:new 0 0 512 512;" xml:space="preserve">
<rect x="223.565" y="241.52" style="fill:#CFF09E;" width="64.856" height="255.363"/>
<g>
	<path style="fill:#507C5C;" d="M467.014,29.724c-3.251-7.688-12.116-11.288-19.804-8.036l-62.2,26.293h-70.115
		C309.261,20.629,284.994,0,256,0s-53.261,20.629-58.895,47.982H126.99l-62.2-26.293c-7.686-3.248-16.553,0.348-19.804,8.036
		c-3.249,7.688,0.348,16.555,8.036,19.804l65.022,27.486c1.862,0.787,3.863,1.192,5.885,1.192h74.726
		c6.198,19.617,22.201,34.918,42.233,40.123v62.735H209.54c-25.597,0-46.421,20.824-46.421,46.421v50.253
		c0,8.347,6.766,15.113,15.113,15.113c8.347,0,15.113-6.766,15.113-15.113v-50.253c0-8.93,7.265-16.195,16.195-16.195h92.917
		c8.93,0,16.195,7.265,16.195,16.195v50.253c0,8.347,6.766,15.113,15.113,15.113c8.347,0,15.113-6.766,15.113-15.113v-50.253
		c0-25.597-20.824-46.421-46.421-46.421h-31.346v-75.592c0-0.056-0.008-0.109-0.008-0.165s0.008-0.109,0.008-0.165
		c0-8.347-6.766-15.113-15.113-15.113c-16.488,0-29.902-13.414-29.902-29.902s13.414-29.902,29.902-29.902
		s29.902,13.414,29.902,29.902c0,0.777,0.077,1.532,0.19,2.278c-0.011,0.23-0.035,0.456-0.035,0.689
		c0,8.347,6.766,15.113,15.113,15.113h86.902c2.021,0,4.023-0.407,5.885-1.192l65.022-27.487
		C466.667,46.279,470.263,37.412,467.014,29.724z"/>
	<path style="fill:#507C5C;" d="M405.527,317.043h-51.878c-8.347,0-15.113,6.766-15.113,15.113v29.494h-34.995V241.517
		c0-8.347-6.766-15.113-15.113-15.113h-64.856c-8.347,0-15.113,6.766-15.113,15.113v120.134h-34.995v-29.494
		c0-8.347-6.766-15.113-15.113-15.113h-51.88c-8.347,0-15.113,6.766-15.113,15.113c0,8.347,6.766,15.113,15.113,15.113h36.765
		v14.381h-13.088c-8.347,0-15.113,6.766-15.113,15.113c0,8.347,6.766,15.113,15.113,15.113h78.309v105.011
		c0,8.347,6.766,15.113,15.113,15.113h64.856c8.347,0,15.113-6.766,15.113-15.113V391.877h78.309
		c8.347,0,15.113-6.766,15.113-15.113c0-8.347-6.766-15.113-15.113-15.113h-13.088v-14.381h36.765
		c8.347,0,15.113-6.766,15.113-15.113C420.639,323.809,413.874,317.043,405.527,317.043z M273.315,481.774h-34.63V256.631h34.63
		V481.774z"/>
</g>
<g>
</g>
<g>
</g>
<g>
</g>
<g>
</g>
<g>
</g>
<g>
</g>
<g>
</g>
<g>
</g>
<g>
</g>
<g>
</g>
<g>
</g>
<g>
</g>
<g>
</g>
<g>
</g>
<g>
</g>
</svg>
